<?xml version="1.0" encoding="utf-8" standalone="no"?>
<!DOCTYPE svg PUBLIC "-//W3C//DTD SVG 1.1//EN"
  "http://www.w3.org/Graphics/SVG/1.1/DTD/svg11.dtd">
<!-- Created with matplotlib (https://matplotlib.org/) -->
<svg height="163.780899pt" version="1.1" viewBox="0 0 235.236402 163.780899" width="235.236402pt" xmlns="http://www.w3.org/2000/svg" xmlns:xlink="http://www.w3.org/1999/xlink">
 <defs>
  <style type="text/css">
*{stroke-linecap:butt;stroke-linejoin:round;}
  </style>
 </defs>
 <g id="figure_1">
  <g id="patch_1">
   <path d="M 0 163.780899 
L 235.236402 163.780899 
L 235.236402 0 
L 0 0 
z
" style="fill:#ffffff;"/>
  </g>
  <g id="axes_1">
   <g id="patch_2">
    <path d="M 45.625092 131.411804 
L 221.597497 131.411804 
L 221.597497 10.7 
L 45.625092 10.7 
z
" style="fill:#ffffff;"/>
   </g>
   <g id="line2d_1">
    <path clip-path="url(#pe0fe1cffef)" d="M 55.576331 87.354104 
L 64.207778 123.222986 
L 76.798603 123.145288 
L 95.196518 125.953025 
L 122.049907 112.579578 
L 161.256559 124.678089 
L 218.491584 129.91771 
" style="fill:none;stroke:#699cb1;stroke-linecap:square;stroke-width:0.75;"/>
    <defs>
     <path d="M -2 2 
L 2 2 
L 2 -2 
L -2 -2 
z
" id="m7eda592ab1" style="stroke:#699cb1;stroke-linejoin:miter;"/>
    </defs>
    <g clip-path="url(#pe0fe1cffef)">
     <use style="fill:#699cb1;stroke:#699cb1;stroke-linejoin:miter;" x="55.576331" xlink:href="#m7eda592ab1" y="87.354104"/>
     <use style="fill:#699cb1;stroke:#699cb1;stroke-linejoin:miter;" x="64.207778" xlink:href="#m7eda592ab1" y="123.222986"/>
     <use style="fill:#699cb1;stroke:#699cb1;stroke-linejoin:miter;" x="76.798603" xlink:href="#m7eda592ab1" y="123.145288"/>
     <use style="fill:#699cb1;stroke:#699cb1;stroke-linejoin:miter;" x="95.196518" xlink:href="#m7eda592ab1" y="125.953025"/>
     <use style="fill:#699cb1;stroke:#699cb1;stroke-linejoin:miter;" x="122.049907" xlink:href="#m7eda592ab1" y="112.579578"/>
     <use style="fill:#699cb1;stroke:#699cb1;stroke-linejoin:miter;" x="161.256559" xlink:href="#m7eda592ab1" y="124.678089"/>
     <use style="fill:#699cb1;stroke:#699cb1;stroke-linejoin:miter;" x="218.491584" xlink:href="#m7eda592ab1" y="129.91771"/>
    </g>
   </g>
   <g id="matplotlib.axis_1">
    <g id="xtick_1">
     <g id="line2d_2">
      <defs>
       <path d="M 0 0 
L 0 3.5 
" id="m41eea0a431" style="stroke:#808080;stroke-width:0.8;"/>
      </defs>
      <g>
       <use style="fill:#808080;stroke:#808080;stroke-width:0.8;" x="45.625092" xlink:href="#m41eea0a431" y="131.411804"/>
      </g>
     </g>
     <g id="text_1">
      <!-- $1k$ -->
      <defs>
       <path d="M 26.59375 63.796875 
C 26.59375 65.890625 26.5 66 25.09375 66 
C 21.203125 61.359375 15.296875 59.890625 9.703125 59.6875 
C 9.40625 59.6875 8.90625 59.6875 8.796875 59.5 
C 8.703125 59.296875 8.703125 59.09375 8.703125 57 
C 11.796875 57 17 57.59375 21 59.984375 
L 21 7.296875 
C 21 3.796875 20.796875 2.59375 12.203125 2.59375 
L 9.203125 2.59375 
L 9.203125 0 
C 14 0.09375 19 0.1875 23.796875 0.1875 
C 28.59375 0.1875 33.59375 0.09375 38.40625 0 
L 38.40625 2.59375 
L 35.40625 2.59375 
C 26.796875 2.59375 26.59375 3.6875 26.59375 7.296875 
z
" id="CMR17-49"/>
       <path d="M 28.09375 66.484375 
C 28.203125 66.890625 28.40625 67.484375 28.40625 67.984375 
C 28.40625 69 27.40625 69 27.203125 69 
C 27.09375 69 23.5 68.6875 21.703125 68.484375 
C 20 68.390625 18.5 68.1875 16.703125 68.09375 
C 14.296875 67.890625 13.59375 67.796875 13.59375 65.984375 
C 13.59375 64.984375 14.59375 64.984375 15.59375 64.984375 
C 20.703125 64.984375 20.703125 64.109375 20.703125 63.125 
C 20.703125 62.71875 20.703125 62.53125 20.203125 60.75 
L 5.90625 3.90625 
C 5.5 2.390625 5.5 2.203125 5.5 1.59375 
C 5.5 -0.609375 7.203125 -1 8.203125 -1 
C 11 -1 11.59375 1.1875 12.40625 4.296875 
L 17.09375 23.0625 
C 24.296875 22.265625 28.59375 19.25 28.59375 14.4375 
C 28.59375 13.828125 28.59375 13.4375 28.296875 11.921875 
C 27.90625 10.421875 27.90625 9.21875 27.90625 8.71875 
C 27.90625 2.890625 31.703125 -1 36.796875 -1 
C 41.40625 -1 43.796875 3.203125 44.59375 4.609375 
C 46.703125 8.3125 48 13.9375 48 14.328125 
C 48 14.828125 47.59375 15.234375 47 15.234375 
C 46.09375 15.234375 46 14.828125 45.59375 13.234375 
C 44.203125 8.015625 42.09375 1 37 1 
C 35 1 33.703125 2 33.703125 5.8125 
C 33.703125 7.71875 34.09375 9.921875 34.5 11.421875 
C 34.90625 13.234375 34.90625 13.328125 34.90625 14.53125 
C 34.90625 20.453125 29.59375 23.765625 20.40625 24.96875 
C 24 27.171875 27.59375 31.078125 29 32.59375 
C 34.703125 38.984375 38.59375 41.984375 43.203125 41.984375 
C 45.5 41.984375 46.09375 41.484375 46.796875 41 
C 43.09375 40.59375 41.703125 37.984375 41.703125 35.984375 
C 41.703125 33.59375 43.59375 32.796875 45 32.796875 
C 47.703125 32.796875 50.09375 35.09375 50.09375 38.296875 
C 50.09375 41.15625 47.796875 44 43.296875 44 
C 37.796875 44 33.296875 40.296875 26.203125 32.296875 
C 25.203125 31.078125 21.5 27.28125 17.796875 25.875 
z
" id="CMMI12-107"/>
      </defs>
      <g transform="translate(41.303278 143.946606)scale(0.08 -0.08)">
       <use transform="scale(0.996264)" xlink:href="#CMR17-49"/>
       <use transform="translate(45.690477 0)scale(0.996264)" xlink:href="#CMMI12-107"/>
      </g>
     </g>
    </g>
    <g id="xtick_2">
     <g id="line2d_3">
      <g>
       <use style="fill:#808080;stroke:#808080;stroke-width:0.8;" x="80.819573" xlink:href="#m41eea0a431" y="131.411804"/>
      </g>
     </g>
     <g id="text_2">
      <!-- $5k$ -->
      <defs>
       <path d="M 11.40625 58.59375 
C 12.40625 58.1875 16.5 56.890625 20.703125 56.890625 
C 30 56.890625 35.09375 61.890625 38 64.6875 
C 38 65.484375 38 66 37.40625 66 
C 37.296875 66 37.09375 66 36.296875 65.59375 
C 32.796875 64.09375 28.703125 63 23.703125 63 
C 20.703125 63 16.203125 63.359375 11.296875 65.484375 
C 10.203125 66 10 66 9.90625 66 
C 9.40625 66 9.296875 65.890625 9.296875 63.90625 
L 9.296875 34.859375 
C 9.296875 33.015625 9.296875 32.5 10.296875 32.5 
C 10.796875 32.5 11 32.703125 11.5 33.421875 
C 14.703125 38.046875 19.09375 40 24.09375 40 
C 27.59375 40 35.09375 37.734375 35.09375 20.203125 
C 35.09375 16.984375 35.09375 11.1875 32.09375 6.59375 
C 29.59375 2.484375 25.703125 0.390625 21.40625 0.390625 
C 14.796875 0.390625 8.09375 4.984375 6.296875 12.6875 
C 6.703125 12.59375 7.5 12.390625 7.90625 12.390625 
C 9.203125 12.390625 11.703125 13.09375 11.703125 16.1875 
C 11.703125 18.890625 9.796875 20 7.90625 20 
C 5.59375 20 4.09375 18.59375 4.09375 15.796875 
C 4.09375 7.09375 11 -2 21.59375 -2 
C 31.90625 -2 41.703125 6.890625 41.703125 19.796875 
C 41.703125 32.09375 33.90625 41.59375 24.203125 41.59375 
C 19.09375 41.59375 14.796875 39.6875 11.40625 36 
z
" id="CMR17-53"/>
      </defs>
      <g transform="translate(76.497759 143.946606)scale(0.08 -0.08)">
       <use transform="scale(0.996264)" xlink:href="#CMR17-53"/>
       <use transform="translate(45.690477 0)scale(0.996264)" xlink:href="#CMMI12-107"/>
      </g>
     </g>
    </g>
    <g id="xtick_3">
     <g id="line2d_4">
      <g>
       <use style="fill:#808080;stroke:#808080;stroke-width:0.8;" x="124.812674" xlink:href="#m41eea0a431" y="131.411804"/>
      </g>
     </g>
     <g id="text_3">
      <!-- $10k$ -->
      <defs>
       <path d="M 42 31.84375 
C 42 37.96875 41.90625 48.421875 37.703125 56.453125 
C 34 63.484375 28.09375 66 22.90625 66 
C 18.09375 66 12 63.78125 8.203125 56.5625 
C 4.203125 49.015625 3.796875 39.671875 3.796875 31.84375 
C 3.796875 26.109375 3.90625 17.375 7 9.734375 
C 11.296875 -0.609375 19 -2 22.90625 -2 
C 27.5 -2 34.5 -0.109375 38.59375 9.4375 
C 41.59375 16.375 42 24.5 42 31.84375 
z
M 22.90625 -0.40625 
C 16.5 -0.40625 12.703125 5.125 11.296875 12.75 
C 10.203125 18.6875 10.203125 27.328125 10.203125 32.953125 
C 10.203125 40.6875 10.203125 47.109375 11.5 53.234375 
C 13.40625 61.78125 19 64.390625 22.90625 64.390625 
C 27 64.390625 32.296875 61.671875 34.203125 53.4375 
C 35.5 47.71875 35.59375 40.984375 35.59375 32.953125 
C 35.59375 26.421875 35.59375 18.375 34.40625 12.453125 
C 32.296875 1.5 26.40625 -0.40625 22.90625 -0.40625 
z
" id="CMR17-48"/>
      </defs>
      <g transform="translate(118.373769 143.946606)scale(0.08 -0.08)">
       <use transform="scale(0.996264)" xlink:href="#CMR17-49"/>
       <use transform="translate(45.690477 0)scale(0.996264)" xlink:href="#CMR17-48"/>
       <use transform="translate(91.380954 0)scale(0.996264)" xlink:href="#CMMI12-107"/>
      </g>
     </g>
    </g>
    <g id="xtick_4">
     <g id="line2d_5">
      <g>
       <use style="fill:#808080;stroke:#808080;stroke-width:0.8;" x="168.805776" xlink:href="#m41eea0a431" y="131.411804"/>
      </g>
     </g>
     <g id="text_4">
      <!-- $15k$ -->
      <g transform="translate(162.366871 143.946606)scale(0.08 -0.08)">
       <use transform="scale(0.996264)" xlink:href="#CMR17-49"/>
       <use transform="translate(45.690477 0)scale(0.996264)" xlink:href="#CMR17-53"/>
       <use transform="translate(91.380954 0)scale(0.996264)" xlink:href="#CMMI12-107"/>
      </g>
     </g>
    </g>
    <g id="xtick_5">
     <g id="line2d_6">
      <g>
       <use style="fill:#808080;stroke:#808080;stroke-width:0.8;" x="221.597497" xlink:href="#m41eea0a431" y="131.411804"/>
      </g>
     </g>
     <g id="text_5">
      <!-- $21k$ -->
      <defs>
       <path d="M 41.703125 15.46875 
L 39.90625 15.46875 
C 38.90625 8.390625 38.09375 7.1875 37.703125 6.59375 
C 37.203125 5.796875 30 5.796875 28.59375 5.796875 
L 9.40625 5.796875 
C 13 9.6875 20 16.765625 28.5 24.9375 
C 34.59375 30.71875 41.703125 37.5 41.703125 47.390625 
C 41.703125 59.1875 32.296875 66 21.796875 66 
C 10.796875 66 4.09375 56.296875 4.09375 47.296875 
C 4.09375 43.390625 7 42.890625 8.203125 42.890625 
C 9.203125 42.890625 12.203125 43.484375 12.203125 46.984375 
C 12.203125 50.09375 9.59375 51 8.203125 51 
C 7.59375 51 7 50.890625 6.59375 50.6875 
C 8.5 59.1875 14.296875 63.390625 20.40625 63.390625 
C 29.09375 63.390625 34.796875 56.5 34.796875 47.390625 
C 34.796875 38.703125 29.703125 31.21875 24 24.734375 
L 4.09375 2.296875 
L 4.09375 0 
L 39.296875 0 
z
" id="CMR17-50"/>
      </defs>
      <g transform="translate(215.158592 143.946606)scale(0.08 -0.08)">
       <use transform="scale(0.996264)" xlink:href="#CMR17-50"/>
       <use transform="translate(45.690477 0)scale(0.996264)" xlink:href="#CMR17-49"/>
       <use transform="translate(91.380954 0)scale(0.996264)" xlink:href="#CMMI12-107"/>
      </g>
     </g>
    </g>
    <g id="text_6">
     <!-- Number of testing data points -->
     <defs>
      <path d="M 22.90625 65.296875 
L 21.09375 69 
L 8.796875 69 
L 8.796875 0 
L 16.59375 0 
L 16.59375 61.328125 
L 16.703125 61.421875 
C 17.40625 59.640625 17.796875 58.734375 21.90625 49.890625 
L 43.296875 3.6875 
L 45.09375 0 
L 57.40625 0 
L 57.40625 69 
L 49.59375 69 
L 49.59375 7.65625 
L 49.5 7.5625 
C 48.796875 9.34375 48.40625 10.234375 44.296875 19.09375 
z
" id="CMSS17-78"/>
      <path d="M 40.90625 43 
L 33.296875 43 
L 33.296875 15.25 
C 33.296875 7.8125 27.90625 4.796875 22.203125 4.796875 
C 15.59375 4.796875 15 7 15 11.125 
L 15 43 
L 7.40625 43 
L 7.40625 10.625 
C 7.40625 2.796875 10.09375 -1 17 -1 
C 20.40625 -1 28.09375 -0.203125 33.5 4.796875 
L 33.5 -0.203125 
L 40.90625 -0.203125 
z
" id="CMSS17-117"/>
      <path d="M 67 29.34375 
C 67 36.078125 65.296875 44 54.09375 44 
C 46.59375 44 42.09375 39.296875 40.09375 36.375 
C 38.296875 41.6875 34.09375 44 28.09375 44 
C 21.296875 44 17 40.09375 14.703125 37.28125 
L 14.703125 43.484375 
L 7.40625 43.484375 
L 7.40625 0 
L 15 0 
L 15 24.3125 
C 15 30.25 17.203125 37.890625 24.296875 37.890625 
C 33.40625 37.890625 33.40625 31.453125 33.40625 28.53125 
L 33.40625 0 
L 41 0 
L 41 24.3125 
C 41 30.25 43.203125 37.890625 50.296875 37.890625 
C 59.40625 37.890625 59.40625 31.453125 59.40625 28.53125 
L 59.40625 0 
L 67 0 
z
" id="CMSS17-109"/>
      <path d="M 14.90625 69 
L 7.5 69 
L 7.5 -0.203125 
L 15.09375 -0.203125 
L 15.09375 4.296875 
C 18.90625 0.59375 23.5 -1 27.59375 -1 
C 37.203125 -1 45 8.734375 45 21.59375 
C 45 33.328125 39 44 30.09375 44 
C 23.796875 44 18.203125 41.390625 14.90625 38.6875 
z
M 15.09375 32.734375 
C 17.296875 35.5625 20.40625 37.890625 24.796875 37.890625 
C 30.703125 37.890625 37.40625 33.53125 37.40625 21.59375 
C 37.40625 8.84375 29.40625 5.09375 23.90625 5.09375 
C 21.90625 5.09375 19.796875 5.59375 17.796875 7.3125 
C 15.09375 9.75 15.09375 11.265625 15.09375 12.6875 
z
" id="CMSS17-98"/>
      <path d="M 39.09375 21.484375 
C 39.09375 24.796875 38.90625 31.265625 35.703125 36.671875 
C 32.203125 42.390625 26.5 44 22.203125 44 
C 11.796875 44 3 34.125 3 21.296875 
C 3 9.046875 12.09375 -1 23.59375 -1 
C 28.09375 -1 33.59375 0.296875 38.59375 3.890625 
C 38.59375 4.296875 38.40625 6.46875 38.296875 6.578125 
C 38.296875 6.765625 38 9.828125 38 10.234375 
C 33.203125 6.375 27.703125 5.09375 23.703125 5.09375 
C 17.296875 5.09375 10.40625 10.421875 10.09375 21.484375 
z
M 10.90625 27 
C 12.203125 32.59375 16.59375 37.890625 22.203125 37.890625 
C 23.703125 37.890625 30.703125 37.6875 32.5 27 
z
" id="CMSS17-101"/>
      <path d="M 14.90625 21.390625 
C 14.90625 30.84375 21.796875 37.171875 30.59375 37.375 
L 30.59375 44 
C 24.203125 43.890625 18.203125 40.6875 14.59375 35.46875 
L 14.59375 43.484375 
L 7.5 43.484375 
L 7.5 0 
L 14.90625 0 
z
" id="CMSS17-114"/>
      <path d="M 44.203125 21.1875 
C 44.203125 33.984375 34.703125 44 23.5 44 
C 12 44 2.703125 33.6875 2.703125 21.1875 
C 2.703125 8.5 12.296875 -1 23.40625 -1 
C 34.796875 -1 44.203125 8.796875 44.203125 21.1875 
z
M 23.5 5.296875 
C 16.40625 5.296875 10.296875 11.09375 10.296875 21.984375 
C 10.296875 33.59375 17.40625 37.890625 23.40625 37.890625 
C 29.90625 37.890625 36.59375 33.1875 36.59375 21.984375 
C 36.59375 10.6875 30.09375 5.296875 23.5 5.296875 
z
" id="CMSS17-111"/>
      <path d="M 16.796875 37.1875 
L 26.90625 37.1875 
L 26.90625 43 
L 16.59375 43 
L 16.59375 55.671875 
C 16.59375 62.703125 22 63.890625 25.09375 63.890625 
C 26.09375 63.890625 28.90625 63.890625 32.5 62.609375 
L 32.5 69.1875 
C 30.203125 69.6875 27.40625 70 25.203125 70 
C 15.90625 70 9.40625 62.40625 9.40625 52.59375 
L 9.40625 43 
L 2.5 43 
L 2.5 37.1875 
L 9.40625 37.1875 
L 9.40625 0 
L 16.796875 0 
z
" id="CMSS17-102"/>
      <path d="M 16.703125 37.1875 
L 29.703125 37.1875 
L 29.703125 43 
L 16.703125 43 
L 16.703125 55 
L 9.59375 55 
L 9.59375 43 
L 1.703125 43 
L 1.703125 37.1875 
L 9.40625 37.1875 
L 9.40625 11.734375 
C 9.40625 6 10.703125 -1 17.296875 -1 
C 22.296875 -1 26.90625 0.390625 31.296875 2.6875 
L 29.703125 8.609375 
C 27.296875 6.5 24.40625 5.296875 21.296875 5.296875 
C 16.90625 5.296875 16.703125 10.921875 16.703125 13.4375 
z
" id="CMSS17-116"/>
      <path d="M 32.203125 40.984375 
C 26.296875 43.796875 21.703125 44 18.703125 44 
C 11.59375 44 3.09375 41.484375 3.09375 31.390625 
C 3.09375 21.296875 14.09375 19.09375 17.09375 18.484375 
C 21.703125 17.59375 26.796875 16.59375 26.796875 11.59375 
C 26.796875 5.296875 19.59375 5.296875 18.296875 5.296875 
C 14.296875 5.296875 8.796875 6.390625 3.796875 9.984375 
L 2.59375 3.296875 
C 8.296875 0 13.796875 -1 18.40625 -1 
C 30.703125 -1 33.796875 6.5 33.796875 12.1875 
C 33.796875 17.09375 31 20.390625 29.09375 21.890625 
C 25.796875 24.484375 24.59375 24.796875 16.40625 26.484375 
C 15 26.6875 10.09375 27.796875 10.09375 32.296875 
C 10.09375 37.984375 16.40625 37.984375 17.796875 37.984375 
C 24.296875 37.984375 28.296875 35.984375 31 34.484375 
z
" id="CMSS17-115"/>
      <path d="M 15.296875 66 
L 6.90625 66 
L 6.90625 57.59375 
L 15.296875 57.59375 
z
M 14.796875 43 
L 7.40625 43 
L 7.40625 0 
L 14.796875 0 
z
" id="CMSS17-105"/>
      <path d="M 40.90625 29.34375 
C 40.90625 35.671875 39.40625 44 28.09375 44 
C 21.703125 44 17.5 40.6875 14.703125 37.28125 
L 14.703125 43.484375 
L 7.40625 43.484375 
L 7.40625 0 
L 15 0 
L 15 24.3125 
C 15 30.65625 17.40625 37.890625 24.203125 37.890625 
C 33 37.890625 33.296875 31.953125 33.296875 28.53125 
L 33.296875 0 
L 40.90625 0 
z
" id="CMSS17-110"/>
      <path d="M 44.5 44 
C 38.796875 43.890625 33.90625 42.796875 29.90625 40.890625 
C 26.59375 43.484375 23.203125 44 20.90625 44 
C 12.203125 44 5.59375 36.8125 5.59375 28.5 
C 5.59375 23.140625 8.59375 19.09375 8.796875 18.890625 
C 7 16.390625 6 13.6875 6 10.6875 
C 6 7.1875 7.40625 4.6875 8.5 3.296875 
C 3.296875 0.09375 2.59375 -4.8125 2.59375 -6.703125 
C 2.59375 -14 11.703125 -20 23.40625 -20 
C 35.203125 -20 44.296875 -14 44.296875 -6.609375 
C 44.296875 7.1875 29 7.296875 24.796875 7.296875 
L 16.703125 7.296875 
C 15.203125 7.296875 11.203125 7.296875 11.203125 12.390625 
C 11.203125 14.390625 12.09375 15.6875 12.203125 15.796875 
C 13.703125 14.6875 16.796875 13 20.90625 13 
C 29.203125 13 36.09375 19.984375 36.09375 28.5 
C 36.09375 33.25 33.90625 36.703125 33 37.890625 
L 33.296875 37.890625 
C 33.59375 37.890625 37.796875 38.1875 39.296875 38.1875 
C 42.5 38.1875 42.796875 38.09375 45.59375 37.796875 
z
M 20.90625 18.5 
C 17.5 18.5 12.703125 20.578125 12.703125 28.5 
C 12.703125 37.109375 18.203125 38.484375 20.796875 38.484375 
C 24.203125 38.484375 29 36.40625 29 28.5 
C 29 19.875 23.5 18.5 20.90625 18.5 
z
M 24.703125 0 
C 27.09375 0 37.203125 0 37.203125 -6.8125 
C 37.203125 -11.109375 31 -14.5 23.5 -14.5 
C 15.90625 -14.5 9.703125 -11.203125 9.703125 -6.703125 
C 9.703125 -6.203125 9.703125 0 16.59375 0 
z
" id="CMSS17-103"/>
      <path d="M 40.796875 69 
L 33.40625 69 
L 33.40625 38.984375 
C 30.296875 41.59375 25.203125 44 19.59375 44 
C 10.5 44 3.296875 34.046875 3.296875 21.484375 
C 3.296875 8.9375 10.40625 -1 19.296875 -1 
C 26.203125 -1 30.796875 2.6875 33.203125 4.796875 
L 33.203125 -0.203125 
L 40.796875 -0.203125 
z
M 33.203125 13.296875 
C 33.203125 11.875 33.203125 10.359375 30.09375 7.625 
C 28.09375 5.90625 25.703125 5.09375 23.40625 5.09375 
C 18 5.09375 10.90625 9.140625 10.90625 21.390625 
C 10.90625 34.140625 18.90625 37.890625 24.40625 37.890625 
C 28.09375 37.890625 31.09375 36.0625 33.203125 33.03125 
z
" id="CMSS17-100"/>
      <path d="M 37.59375 27.953125 
C 37.59375 37.484375 30.90625 44 21.90625 44 
C 17.5 44 12.703125 43.1875 7.203125 39.984375 
L 7.796875 33.328125 
C 10.296875 35.15625 14.59375 38.09375 21.796875 38.09375 
C 26.90625 38.09375 30 34.140625 30 27.84375 
L 30 24 
C 14 23.5 4 18.890625 4 11.109375 
C 4 7.0625 6.5 -1 14.796875 -1 
C 16.296875 -1 24.40625 -0.8125 30.203125 3.5 
L 30.203125 -0.203125 
L 37.59375 -0.203125 
z
M 30 12.875 
C 30 11.109375 30 8.734375 27 6.96875 
C 24.40625 5.296875 21.09375 5.09375 19.703125 5.09375 
C 14.703125 5.09375 11.296875 7.859375 11.296875 11.296875 
C 11.296875 18.203125 26.90625 18.890625 30 19 
z
" id="CMSS17-97"/>
      <path d="M 15.09375 4.296875 
C 18.40625 1.09375 22.90625 -1 27.703125 -1 
C 37 -1 45 8.640625 45 21.59375 
C 45 33.546875 39 44 30.40625 44 
C 25.40625 44 19.40625 42.1875 14.90625 38.59375 
L 14.90625 43.1875 
L 7.5 43.1875 
L 7.5 -20 
L 15.09375 -20 
z
M 15.09375 32.625 
C 15.90625 33.84375 19.296875 37.6875 24.796875 37.6875 
C 31.796875 37.6875 37.40625 30.40625 37.40625 21.59375 
C 37.40625 11.578125 30.59375 5.09375 23.90625 5.09375 
C 21.90625 5.09375 19.796875 5.59375 17.796875 7.3125 
C 15.09375 9.75 15.09375 11.265625 15.09375 12.6875 
z
" id="CMSS17-112"/>
     </defs>
     <g transform="translate(79.956208 155.031153)scale(0.08 -0.08)">
      <use transform="scale(0.996264)" xlink:href="#CMSS17-78"/>
      <use transform="translate(66.061519 0)scale(0.996264)" xlink:href="#CMSS17-117"/>
      <use transform="translate(114.266462 0)scale(0.996264)" xlink:href="#CMSS17-109"/>
      <use transform="translate(188.495717 0)scale(0.996264)" xlink:href="#CMSS17-98"/>
      <use transform="translate(239.303099 0)scale(0.996264)" xlink:href="#CMSS17-101"/>
      <use transform="translate(280.941921 0)scale(0.996264)" xlink:href="#CMSS17-114"/>
      <use transform="translate(344.080806 0)scale(0.996264)" xlink:href="#CMSS17-111"/>
      <use transform="translate(390.92443 0)scale(0.996264)" xlink:href="#CMSS17-102"/>
      <use transform="translate(450.780201 0)scale(0.996264)" xlink:href="#CMSS17-116"/>
      <use transform="translate(484.611768 0)scale(0.996264)" xlink:href="#CMSS17-101"/>
      <use transform="translate(526.25059 0)scale(0.996264)" xlink:href="#CMSS17-115"/>
      <use transform="translate(562.164132 0)scale(0.996264)" xlink:href="#CMSS17-116"/>
      <use transform="translate(595.995699 0)scale(0.996264)" xlink:href="#CMSS17-105"/>
      <use transform="translate(618.176422 0)scale(0.996264)" xlink:href="#CMSS17-110"/>
      <use transform="translate(666.381365 0)scale(0.996264)" xlink:href="#CMSS17-103"/>
      <use transform="translate(744.454101 0)scale(0.996264)" xlink:href="#CMSS17-100"/>
      <use transform="translate(792.659044 0)scale(0.996264)" xlink:href="#CMSS17-97"/>
      <use transform="translate(837.580965 0)scale(0.996264)" xlink:href="#CMSS17-116"/>
      <use transform="translate(871.412531 0)scale(0.996264)" xlink:href="#CMSS17-97"/>
      <use transform="translate(947.563565 0)scale(0.996264)" xlink:href="#CMSS17-112"/>
      <use transform="translate(998.370947 0)scale(0.996264)" xlink:href="#CMSS17-111"/>
      <use transform="translate(1045.21457 0)scale(0.996264)" xlink:href="#CMSS17-105"/>
      <use transform="translate(1067.395293 0)scale(0.996264)" xlink:href="#CMSS17-110"/>
      <use transform="translate(1115.600236 0)scale(0.996264)" xlink:href="#CMSS17-116"/>
      <use transform="translate(1149.431803 0)scale(0.996264)" xlink:href="#CMSS17-115"/>
     </g>
    </g>
   </g>
   <g id="matplotlib.axis_2">
    <g id="ytick_1">
     <g id="line2d_7">
      <defs>
       <path d="M 0 0 
L -3.5 0 
" id="m2fd774d160" style="stroke:#808080;stroke-width:0.8;"/>
      </defs>
      <g>
       <use style="fill:#808080;stroke:#808080;stroke-width:0.8;" x="45.625092" xlink:href="#m2fd774d160" y="131.411804"/>
      </g>
     </g>
     <g id="text_7">
      <!-- $0.0$ -->
      <defs>
       <path d="M 18.40625 4.796875 
C 18.40625 7.6875 16 9.6875 13.59375 9.6875 
C 10.703125 9.6875 8.703125 7.296875 8.703125 4.890625 
C 8.703125 2 11.09375 0 13.5 0 
C 16.40625 0 18.40625 2.390625 18.40625 4.796875 
z
" id="CMMI12-58"/>
      </defs>
      <g transform="translate(27.804402 134.179205)scale(0.08 -0.08)">
       <use transform="scale(0.996264)" xlink:href="#CMR17-48"/>
       <use transform="translate(45.690477 0)scale(0.996264)" xlink:href="#CMMI12-58"/>
       <use transform="translate(72.787654 0)scale(0.996264)" xlink:href="#CMR17-48"/>
      </g>
     </g>
    </g>
    <g id="ytick_2">
     <g id="line2d_8">
      <g>
       <use style="fill:#808080;stroke:#808080;stroke-width:0.8;" x="45.625092" xlink:href="#m2fd774d160" y="91.174536"/>
      </g>
     </g>
     <g id="text_8">
      <!-- $1.0$ -->
      <g transform="translate(27.804402 93.941937)scale(0.08 -0.08)">
       <use transform="scale(0.996264)" xlink:href="#CMR17-49"/>
       <use transform="translate(45.690477 0)scale(0.996264)" xlink:href="#CMMI12-58"/>
       <use transform="translate(72.787654 0)scale(0.996264)" xlink:href="#CMR17-48"/>
      </g>
     </g>
    </g>
    <g id="ytick_3">
     <g id="line2d_9">
      <g>
       <use style="fill:#808080;stroke:#808080;stroke-width:0.8;" x="45.625092" xlink:href="#m2fd774d160" y="50.937268"/>
      </g>
     </g>
     <g id="text_9">
      <!-- $2.0$ -->
      <g transform="translate(27.804402 53.704669)scale(0.08 -0.08)">
       <use transform="scale(0.996264)" xlink:href="#CMR17-50"/>
       <use transform="translate(45.690477 0)scale(0.996264)" xlink:href="#CMMI12-58"/>
       <use transform="translate(72.787654 0)scale(0.996264)" xlink:href="#CMR17-48"/>
      </g>
     </g>
    </g>
    <g id="ytick_4">
     <g id="line2d_10">
      <g>
       <use style="fill:#808080;stroke:#808080;stroke-width:0.8;" x="45.625092" xlink:href="#m2fd774d160" y="10.7"/>
      </g>
     </g>
     <g id="text_10">
      <!-- $3.0$ -->
      <defs>
       <path d="M 22.09375 34 
C 31 34 34.90625 26.140625 34.90625 17.09375 
C 34.90625 5.03125 28.5 0.390625 22.703125 0.390625 
C 17.40625 0.390625 8.796875 3.015625 6.09375 10.796875 
C 6.59375 10.59375 7.09375 10.59375 7.59375 10.59375 
C 10 10.59375 11.796875 12.1875 11.796875 14.796875 
C 11.796875 17.6875 9.59375 19 7.59375 19 
C 5.90625 19 3.296875 18.1875 3.296875 14.484375 
C 3.296875 5.234375 12.296875 -2 22.90625 -2 
C 34 -2 42.5 6.75 42.5 16.984375 
C 42.5 26.84375 34.5 34 25 35.09375 
C 32.59375 36.671875 39.90625 43.375 39.90625 52.390625 
C 39.90625 60.25 32 66 23 66 
C 13.90625 66 5.90625 60.34375 5.90625 52.296875 
C 5.90625 48.796875 8.5 48.1875 9.796875 48.1875 
C 11.90625 48.1875 13.703125 49.484375 13.703125 52.09375 
C 13.703125 54.6875 11.90625 56 9.796875 56 
C 9.40625 56 8.90625 56 8.5 55.796875 
C 11.40625 62.484375 19.296875 63.6875 22.796875 63.6875 
C 26.296875 63.6875 32.90625 61.96875 32.90625 52.296875 
C 32.90625 49.484375 32.5 44.546875 29.09375 40.21875 
C 26.09375 36.390625 22.703125 36.1875 19.40625 35.890625 
C 18.90625 35.890625 16.59375 35.6875 16.203125 35.6875 
C 15.5 35.59375 15.09375 35.5 15.09375 34.796875 
C 15.09375 34.09375 15.203125 34 17.203125 34 
z
" id="CMR17-51"/>
      </defs>
      <g transform="translate(27.804402 13.467401)scale(0.08 -0.08)">
       <use transform="scale(0.996264)" xlink:href="#CMR17-51"/>
       <use transform="translate(45.690477 0)scale(0.996264)" xlink:href="#CMMI12-58"/>
       <use transform="translate(72.787654 0)scale(0.996264)" xlink:href="#CMR17-48"/>
      </g>
     </g>
    </g>
    <g id="text_11">
     <!-- Difference in accuracy (\%)  -->
     <defs>
      <path d="M 8.90625 69 
L 8.90625 0 
L 33.5 0 
C 49.90625 0 62.5 15.328125 62.5 33.890625 
C 62.5 53.0625 49.90625 69 33.5 69 
z
M 17.09375 5.59375 
L 17.09375 63.390625 
L 31.296875 63.390625 
C 44.703125 63.390625 54.296875 51.171875 54.296875 33.890625 
C 54.296875 17.3125 44.796875 5.59375 31.296875 5.59375 
z
" id="CMSS17-68"/>
      <path d="M 16.796875 37.1875 
L 27.09375 37.1875 
L 27.09375 43 
L 16.59375 43 
L 16.59375 55.671875 
C 16.59375 62.5 21.796875 63.890625 25.203125 63.890625 
C 28.703125 63.890625 31.59375 63 32.703125 62.609375 
L 32.703125 69.1875 
C 31.59375 69.390625 28.59375 70 25.296875 70 
C 16.09375 70 9.40625 62.5 9.40625 52.59375 
L 9.40625 43 
L 2.5 43 
L 2.5 37.1875 
L 9.40625 37.1875 
L 9.40625 0 
L 16.796875 0 
z
M 42.796875 37.1875 
L 53.09375 37.1875 
L 53.09375 43 
L 42.59375 43 
L 42.59375 55.671875 
C 42.59375 62.5 47.796875 63.890625 51.203125 63.890625 
C 54.703125 63.890625 57.59375 63 58.703125 62.609375 
L 58.703125 69.1875 
C 57.59375 69.390625 54.59375 70 51.296875 70 
C 42.09375 70 35.40625 62.5 35.40625 52.59375 
L 35.40625 0 
L 42.796875 0 
z
" id="CMSS17-11"/>
      <path d="M 38.5 39.6875 
C 38.5 40.390625 33.90625 42.390625 32.703125 42.796875 
C 29.40625 44 25.203125 44 24.09375 44 
C 11.09375 44 3.296875 32.6875 3.296875 21.296875 
C 3.296875 9.296875 12 -1 23.703125 -1 
C 30.40625 -1 35.203125 1.1875 39.09375 3.796875 
L 38.5 10.390625 
C 34.203125 7.09375 29.203125 5.296875 23.796875 5.296875 
C 16 5.296875 10.90625 12.09375 10.90625 21.390625 
C 10.90625 28.59375 14.203125 37.6875 24.203125 37.6875 
C 29.703125 37.6875 32.796875 36.59375 37.40625 33.484375 
z
" id="CMSS17-99"/>
      <path d="M 41.796875 43 
L 34 43 
C 25.5 20.203125 22.59375 10.953125 22.40625 5.984375 
L 22.296875 5.984375 
C 22 10.859375 17.59375 22.796875 14.09375 31.34375 
L 9.40625 43 
L 1.296875 43 
L 19 0.21875 
C 17.90625 -2.765625 16.296875 -7.25 15.796875 -8.234375 
C 13.59375 -13.8125 12.09375 -13.8125 10.5 -13.8125 
C 10.09375 -13.8125 6.90625 -13.703125 3.296875 -12.609375 
L 3.90625 -19.203125 
C 6.40625 -19.703125 8.90625 -20 10.703125 -20 
C 13.203125 -20 18.203125 -20 22.796875 -7.734375 
z
" id="CMSS17-121"/>
      <path d="M 25.203125 75 
C 19.796875 69.484375 7.40625 56.671875 7.40625 25.046875 
C 7.40625 -6.6875 19.796875 -19.40625 25.203125 -25 
L 31.296875 -25 
C 19 -12.203125 15 5.71875 15 24.9375 
C 15 44.0625 18.796875 62.078125 31.296875 75 
z
" id="CMSS17-40"/>
      <path d="M 61.296875 71.59375 
C 61.90625 72.59375 61.90625 73.09375 61.90625 73.1875 
C 61.90625 74.296875 61 75 60.203125 75 
C 59.09375 75 58.59375 74.1875 58.09375 73.1875 
L 17.203125 -1.703125 
C 17 -2.109375 16.59375 -2.703125 16.59375 -3.3125 
C 16.59375 -4.40625 17.5 -5.109375 18.40625 -5.109375 
C 19.296875 -5.109375 19.5 -4.703125 20.296875 -3.3125 
z
M 73.09375 14.890625 
C 73.09375 26.40625 66.90625 34.890625 60.09375 34.890625 
C 53.40625 34.890625 47 26.609375 47 14.890625 
C 47 3.171875 53.40625 -5.109375 60.09375 -5.109375 
C 67 -5.109375 73.09375 3.375 73.09375 14.890625 
z
M 60.09375 1 
C 58 1 54.59375 2.875 54.59375 14.890625 
C 54.59375 26.8125 58 28.796875 60.09375 28.796875 
C 63.796875 28.796875 65.796875 21.546875 65.796875 14.890625 
C 65.796875 8.234375 63.796875 1 60.09375 1 
z
M 31.296875 54.9375 
C 31.296875 66.5 25.09375 75 18.296875 75 
C 11.59375 75 5.203125 66.703125 5.203125 54.9375 
C 5.203125 43.1875 11.59375 34.890625 18.296875 34.890625 
C 25.203125 34.890625 31.296875 43.390625 31.296875 54.9375 
z
M 18.296875 41 
C 16.203125 41 12.796875 42.890625 12.796875 54.9375 
C 12.796875 66.90625 16.203125 68.890625 18.296875 68.890625 
C 22 68.890625 24 61.625 24 54.9375 
C 24 48.265625 22 41 18.296875 41 
z
" id="CMSS17-37"/>
      <path d="M 11.296875 -25 
C 16.703125 -19.5 29.09375 -6.6875 29.09375 24.9375 
C 29.09375 56.671875 16.703125 69.375 11.296875 75 
L 5.203125 75 
C 17.5 62.171875 21.5 44.265625 21.5 25.046875 
C 21.5 5.921875 17.703125 -12.09375 5.203125 -25 
z
" id="CMSS17-41"/>
     </defs>
     <g transform="translate(13.620366 118.302996)rotate(-90)scale(0.08 -0.08)">
      <use transform="scale(0.996264)" xlink:href="#CMSS17-68"/>
      <use transform="translate(67.542842 0)scale(0.996264)" xlink:href="#CMSS17-105"/>
      <use transform="translate(89.723565 0)scale(0.996264)" xlink:href="#CMSS17-11"/>
      <use transform="translate(144.374535 0)scale(0.996264)" xlink:href="#CMSS17-101"/>
      <use transform="translate(186.013357 0)scale(0.996264)" xlink:href="#CMSS17-114"/>
      <use transform="translate(217.923129 0)scale(0.996264)" xlink:href="#CMSS17-101"/>
      <use transform="translate(259.561952 0)scale(0.996264)" xlink:href="#CMSS17-110"/>
      <use transform="translate(307.766895 0)scale(0.996264)" xlink:href="#CMSS17-99"/>
      <use transform="translate(349.405717 0)scale(0.996264)" xlink:href="#CMSS17-101"/>
      <use transform="translate(422.273652 0)scale(0.996264)" xlink:href="#CMSS17-105"/>
      <use transform="translate(444.454375 0)scale(0.996264)" xlink:href="#CMSS17-110"/>
      <use transform="translate(523.88843 0)scale(0.996264)" xlink:href="#CMSS17-97"/>
      <use transform="translate(568.810351 0)scale(0.996264)" xlink:href="#CMSS17-99"/>
      <use transform="translate(610.449173 0)scale(0.996264)" xlink:href="#CMSS17-99"/>
      <use transform="translate(652.087995 0)scale(0.996264)" xlink:href="#CMSS17-117"/>
      <use transform="translate(700.292938 0)scale(0.996264)" xlink:href="#CMSS17-114"/>
      <use transform="translate(732.202711 0)scale(0.996264)" xlink:href="#CMSS17-97"/>
      <use transform="translate(777.124632 0)scale(0.996264)" xlink:href="#CMSS17-99"/>
      <use transform="translate(818.763454 0)scale(0.996264)" xlink:href="#CMSS17-121"/>
      <use transform="translate(892.992708 0)scale(0.996264)" xlink:href="#CMSS17-40"/>
      <use transform="translate(929.426622 0)scale(0.996264)" xlink:href="#CMSS17-37"/>
      <use transform="translate(1007.499358 0)scale(0.996264)" xlink:href="#CMSS17-41"/>
     </g>
     <!--  from original training -->
     <defs>
      <path d="M 14.796875 69 
L 7.40625 69 
L 7.40625 0 
L 14.796875 0 
z
" id="CMSS17-108"/>
     </defs>
     <g transform="translate(22.254656 108.430145)rotate(-90)scale(0.08 -0.08)">
      <use transform="scale(0.996264)" xlink:href="#CMSS17-102"/>
      <use transform="translate(28.626659 0)scale(0.996264)" xlink:href="#CMSS17-114"/>
      <use transform="translate(60.536431 0)scale(0.996264)" xlink:href="#CMSS17-111"/>
      <use transform="translate(107.380055 0)scale(0.996264)" xlink:href="#CMSS17-109"/>
      <use transform="translate(212.838422 0)scale(0.996264)" xlink:href="#CMSS17-111"/>
      <use transform="translate(257.079592 0)scale(0.996264)" xlink:href="#CMSS17-114"/>
      <use transform="translate(288.989364 0)scale(0.996264)" xlink:href="#CMSS17-105"/>
      <use transform="translate(311.170087 0)scale(0.996264)" xlink:href="#CMSS17-103"/>
      <use transform="translate(358.013711 0)scale(0.996264)" xlink:href="#CMSS17-105"/>
      <use transform="translate(380.194434 0)scale(0.996264)" xlink:href="#CMSS17-110"/>
      <use transform="translate(428.399377 0)scale(0.996264)" xlink:href="#CMSS17-97"/>
      <use transform="translate(473.321298 0)scale(0.996264)" xlink:href="#CMSS17-108"/>
      <use transform="translate(526.731133 0)scale(0.996264)" xlink:href="#CMSS17-116"/>
      <use transform="translate(560.5627 0)scale(0.996264)" xlink:href="#CMSS17-114"/>
      <use transform="translate(592.472473 0)scale(0.996264)" xlink:href="#CMSS17-97"/>
      <use transform="translate(637.394393 0)scale(0.996264)" xlink:href="#CMSS17-105"/>
      <use transform="translate(659.575116 0)scale(0.996264)" xlink:href="#CMSS17-110"/>
      <use transform="translate(707.780059 0)scale(0.996264)" xlink:href="#CMSS17-105"/>
      <use transform="translate(729.960782 0)scale(0.996264)" xlink:href="#CMSS17-110"/>
      <use transform="translate(778.165726 0)scale(0.996264)" xlink:href="#CMSS17-103"/>
     </g>
    </g>
   </g>
   <g id="line2d_11">
    <path clip-path="url(#pe0fe1cffef)" d="M 55.576331 29.449698 
L 64.207778 102.104454 
L 76.798603 127.869012 
L 95.196518 114.024582 
L 122.049907 123.241941 
L 161.256559 125.911023 
L 218.491584 128.293694 
" style="fill:none;stroke:#3c5a67;stroke-linecap:square;stroke-width:0.75;"/>
    <defs>
     <path d="M -1.5 1.5 
L 1.5 1.5 
L 1.5 -1.5 
L -1.5 -1.5 
z
" id="m89cc204e03" style="stroke:#3c5a67;stroke-linejoin:miter;"/>
    </defs>
    <g clip-path="url(#pe0fe1cffef)">
     <use style="fill:#3c5a67;stroke:#3c5a67;stroke-linejoin:miter;" x="55.576331" xlink:href="#m89cc204e03" y="29.449698"/>
     <use style="fill:#3c5a67;stroke:#3c5a67;stroke-linejoin:miter;" x="64.207778" xlink:href="#m89cc204e03" y="102.104454"/>
     <use style="fill:#3c5a67;stroke:#3c5a67;stroke-linejoin:miter;" x="76.798603" xlink:href="#m89cc204e03" y="127.869012"/>
     <use style="fill:#3c5a67;stroke:#3c5a67;stroke-linejoin:miter;" x="95.196518" xlink:href="#m89cc204e03" y="114.024582"/>
     <use style="fill:#3c5a67;stroke:#3c5a67;stroke-linejoin:miter;" x="122.049907" xlink:href="#m89cc204e03" y="123.241941"/>
     <use style="fill:#3c5a67;stroke:#3c5a67;stroke-linejoin:miter;" x="161.256559" xlink:href="#m89cc204e03" y="125.911023"/>
     <use style="fill:#3c5a67;stroke:#3c5a67;stroke-linejoin:miter;" x="218.491584" xlink:href="#m89cc204e03" y="128.293694"/>
    </g>
   </g>
   <g id="line2d_12">
    <path d="M 55.576331 125.117847 
L 64.207778 129.687843 
L 76.798603 131.411804 
L 95.196518 131.411804 
L 122.049907 131.411804 
L 161.256559 131.411804 
L 218.491584 131.411804 
" style="fill:none;stroke:#f8b156;stroke-dasharray:0.75,1.2375;stroke-dashoffset:0;stroke-width:0.75;"/>
    <defs>
     <path d="M -0 1.5 
L 1.5 -1.5 
L -1.5 -1.5 
z
" id="mb25001d88c" style="stroke:#f8b156;stroke-linejoin:miter;"/>
    </defs>
    <g>
     <use style="fill:#f8b156;stroke:#f8b156;stroke-linejoin:miter;" x="55.576331" xlink:href="#mb25001d88c" y="125.117847"/>
     <use style="fill:#f8b156;stroke:#f8b156;stroke-linejoin:miter;" x="64.207778" xlink:href="#mb25001d88c" y="129.687843"/>
     <use style="fill:#f8b156;stroke:#f8b156;stroke-linejoin:miter;" x="76.798603" xlink:href="#mb25001d88c" y="131.411804"/>
     <use style="fill:#f8b156;stroke:#f8b156;stroke-linejoin:miter;" x="95.196518" xlink:href="#mb25001d88c" y="131.411804"/>
     <use style="fill:#f8b156;stroke:#f8b156;stroke-linejoin:miter;" x="122.049907" xlink:href="#mb25001d88c" y="131.411804"/>
     <use style="fill:#f8b156;stroke:#f8b156;stroke-linejoin:miter;" x="161.256559" xlink:href="#mb25001d88c" y="131.411804"/>
     <use style="fill:#f8b156;stroke:#f8b156;stroke-linejoin:miter;" x="218.491584" xlink:href="#mb25001d88c" y="131.411804"/>
    </g>
   </g>
   <g id="patch_3">
    <path d="M 45.625092 131.411804 
L 45.625092 10.7 
" style="fill:none;stroke:#808080;stroke-linecap:square;stroke-linejoin:miter;stroke-width:0.5;"/>
   </g>
   <g id="patch_4">
    <path d="M 45.625092 131.411804 
L 221.597497 131.411804 
" style="fill:none;stroke:#808080;stroke-linecap:square;stroke-linejoin:miter;stroke-width:0.5;"/>
   </g>
   <g id="legend_1">
    <g id="patch_5">
     <path d="M 99.376476 51.369603 
L 215.997497 51.369603 
Q 217.597497 51.369603 217.597497 49.769603 
L 217.597497 16.3 
Q 217.597497 14.7 215.997497 14.7 
L 99.376476 14.7 
Q 97.776476 14.7 97.776476 16.3 
L 97.776476 49.769603 
Q 97.776476 51.369603 99.376476 51.369603 
z
" style="fill:#ffffff;opacity:0.8;stroke:#cccccc;stroke-linejoin:miter;"/>
    </g>
    <g id="line2d_13">
     <path d="M 100.976476 20.7 
L 116.976476 20.7 
" style="fill:none;stroke:#3c5a67;stroke-linecap:square;stroke-width:0.75;"/>
    </g>
    <g id="line2d_14">
     <g>
      <use style="fill:#3c5a67;stroke:#3c5a67;stroke-linejoin:miter;" x="108.976476" xlink:href="#m89cc204e03" y="20.7"/>
     </g>
    </g>
    <g id="text_12">
     <!-- Reservoir Sampling -->
     <defs>
      <path d="M 39.40625 32.796875 
L 39.59375 32.890625 
C 55.203125 38.28125 55.296875 48.828125 55.296875 50.6875 
C 55.296875 59.96875 45.703125 69 31.296875 69 
L 8.90625 69 
L 8.90625 0 
L 17.09375 0 
L 17.09375 31.890625 
L 31.796875 31.890625 
L 49.5 0 
L 57.90625 0 
z
M 17.09375 38 
L 17.09375 63.390625 
L 30.203125 63.390625 
C 42.90625 63.390625 47.40625 56.359375 47.40625 50.6875 
C 47.40625 45.421875 43.40625 38 30.203125 38 
z
" id="CMSS17-82"/>
      <path d="M 41.796875 43 
L 34 43 
L 27.296875 24.296875 
C 25.203125 18.1875 22.203125 9.796875 21.703125 5.5 
L 21.59375 5.5 
C 21.40625 7.296875 20.59375 9.890625 20.09375 11.6875 
C 19.5 13.890625 18.703125 16.5 18.09375 18.296875 
L 9.296875 43 
L 1.296875 43 
L 17.09375 0 
L 26 0 
z
" id="CMSS17-118"/>
      <path d="M 43.703125 66.09375 
C 39.296875 68.6875 34.5 71 26.40625 71 
C 13.5 71 5.203125 61.46875 5.203125 51.703125 
C 5.203125 47.875 6.296875 43.546875 10.203125 39.125 
C 14.09375 34.6875 18.5 33.484375 24.09375 32.078125 
C 26.40625 31.46875 30.296875 30.359375 31 30.0625 
C 36.59375 27.84375 39.296875 22.71875 39.296875 17.875 
C 39.296875 11.53125 34.40625 4.796875 25.703125 4.796875 
C 22.703125 4.796875 13.90625 5.296875 5.59375 12.953125 
L 4.203125 5 
C 12.40625 -1 21.296875 -2 25.796875 -2 
C 38.09375 -2 46.90625 7.71875 46.90625 18.78125 
C 46.90625 22.8125 45.703125 27.953125 41.5 32.6875 
C 37.40625 37.203125 33.796875 38.21875 25.59375 40.4375 
C 20.90625 41.640625 17.90625 42.453125 15.40625 45.5625 
C 13.703125 47.78125 12.796875 49.890625 12.796875 52.609375 
C 12.796875 58.25 17.59375 64.390625 26.40625 64.390625 
C 30.796875 64.390625 36.5 63.484375 42.296875 58.046875 
z
" id="CMSS17-83"/>
     </defs>
     <g transform="translate(123.376476 23.5)scale(0.08 -0.08)">
      <use transform="scale(0.996264)" xlink:href="#CMSS17-82"/>
      <use transform="translate(60.416155 0)scale(0.996264)" xlink:href="#CMSS17-101"/>
      <use transform="translate(102.054977 0)scale(0.996264)" xlink:href="#CMSS17-115"/>
      <use transform="translate(137.968519 0)scale(0.996264)" xlink:href="#CMSS17-101"/>
      <use transform="translate(179.607341 0)scale(0.996264)" xlink:href="#CMSS17-114"/>
      <use transform="translate(211.517114 0)scale(0.996264)" xlink:href="#CMSS17-118"/>
      <use transform="translate(254.517255 0)scale(0.996264)" xlink:href="#CMSS17-111"/>
      <use transform="translate(301.360879 0)scale(0.996264)" xlink:href="#CMSS17-105"/>
      <use transform="translate(323.541602 0)scale(0.996264)" xlink:href="#CMSS17-114"/>
      <use transform="translate(386.680487 0)scale(0.996264)" xlink:href="#CMSS17-83"/>
      <use transform="translate(438.729003 0)scale(0.996264)" xlink:href="#CMSS17-97"/>
      <use transform="translate(483.650924 0)scale(0.996264)" xlink:href="#CMSS17-109"/>
      <use transform="translate(557.880178 0)scale(0.996264)" xlink:href="#CMSS17-112"/>
      <use transform="translate(606.085121 0)scale(0.996264)" xlink:href="#CMSS17-108"/>
      <use transform="translate(628.265845 0)scale(0.996264)" xlink:href="#CMSS17-105"/>
      <use transform="translate(650.446568 0)scale(0.996264)" xlink:href="#CMSS17-110"/>
      <use transform="translate(698.651511 0)scale(0.996264)" xlink:href="#CMSS17-103"/>
     </g>
    </g>
    <g id="line2d_15">
     <path d="M 100.976476 31.849746 
L 116.976476 31.849746 
" style="fill:none;stroke:#699cb1;stroke-linecap:square;stroke-width:0.75;"/>
    </g>
    <g id="line2d_16">
     <g>
      <use style="fill:#699cb1;stroke:#699cb1;stroke-linejoin:miter;" x="108.976476" xlink:href="#m7eda592ab1" y="31.849746"/>
     </g>
    </g>
    <g id="text_13">
     <!-- Simple Random Sampling -->
     <g transform="translate(123.376476 34.649746)scale(0.08 -0.08)">
      <use transform="scale(0.996264)" xlink:href="#CMSS17-83"/>
      <use transform="translate(52.048516 0)scale(0.996264)" xlink:href="#CMSS17-105"/>
      <use transform="translate(74.229239 0)scale(0.996264)" xlink:href="#CMSS17-109"/>
      <use transform="translate(148.458494 0)scale(0.996264)" xlink:href="#CMSS17-112"/>
      <use transform="translate(196.663437 0)scale(0.996264)" xlink:href="#CMSS17-108"/>
      <use transform="translate(218.84416 0)scale(0.996264)" xlink:href="#CMSS17-101"/>
      <use transform="translate(291.712095 0)scale(0.996264)" xlink:href="#CMSS17-82"/>
      <use transform="translate(352.12825 0)scale(0.996264)" xlink:href="#CMSS17-97"/>
      <use transform="translate(397.05017 0)scale(0.996264)" xlink:href="#CMSS17-110"/>
      <use transform="translate(445.255113 0)scale(0.996264)" xlink:href="#CMSS17-100"/>
      <use transform="translate(493.460056 0)scale(0.996264)" xlink:href="#CMSS17-111"/>
      <use transform="translate(540.30368 0)scale(0.996264)" xlink:href="#CMSS17-109"/>
      <use transform="translate(645.762047 0)scale(0.996264)" xlink:href="#CMSS17-83"/>
      <use transform="translate(697.810563 0)scale(0.996264)" xlink:href="#CMSS17-97"/>
      <use transform="translate(742.732484 0)scale(0.996264)" xlink:href="#CMSS17-109"/>
      <use transform="translate(816.961738 0)scale(0.996264)" xlink:href="#CMSS17-112"/>
      <use transform="translate(865.166681 0)scale(0.996264)" xlink:href="#CMSS17-108"/>
      <use transform="translate(887.347405 0)scale(0.996264)" xlink:href="#CMSS17-105"/>
      <use transform="translate(909.528128 0)scale(0.996264)" xlink:href="#CMSS17-110"/>
      <use transform="translate(957.733071 0)scale(0.996264)" xlink:href="#CMSS17-103"/>
     </g>
    </g>
    <g id="line2d_17">
     <path d="M 100.976476 43.377075 
L 116.976476 43.377075 
" style="fill:none;stroke:#f8b156;stroke-dasharray:0.75,1.2375;stroke-dashoffset:0;stroke-width:0.75;"/>
    </g>
    <g id="line2d_18">
     <g>
      <use style="fill:#f8b156;stroke:#f8b156;stroke-linejoin:miter;" x="108.976476" xlink:href="#mb25001d88c" y="43.377075"/>
     </g>
    </g>
    <g id="text_14">
     <!-- GSH (our Method) -->
     <defs>
      <path d="M 56.40625 29.1875 
L 36.5 29.1875 
L 36.5 23 
L 48.796875 23 
L 48.796875 7.390625 
C 44.90625 6.296875 40.90625 5.5 36.90625 5.5 
C 22.90625 5.5 14.59375 20.484375 14.59375 34.6875 
C 14.59375 48.796875 23.296875 63.59375 36.90625 63.59375 
C 44.59375 63.59375 48.90625 61.1875 54.203125 57.1875 
L 55.5 65.1875 
C 48.90625 68.59375 44.796875 70 37.296875 70 
C 17.90625 70 6.203125 52.390625 6.203125 34.390625 
C 6.203125 17.1875 18 -1 36.703125 -1 
C 43.703125 -1 50.203125 0.796875 56.40625 3.890625 
z
" id="CMSS17-71"/>
      <path d="M 57.40625 69 
L 49 69 
L 49 39 
L 17.203125 39 
L 17.203125 69 
L 8.796875 69 
L 8.796875 0 
L 17.203125 0 
L 17.203125 32.890625 
L 49 32.890625 
L 49 0 
L 57.40625 0 
z
" id="CMSS17-72"/>
      <path d="M 49.90625 37.078125 
L 45.09375 23.0625 
C 44.296875 20.484375 41.59375 12.421875 41 9.25 
L 40.90625 9.25 
C 40.59375 11.234375 40 13.328125 38.40625 18.390625 
C 37.5 21.375 36.5 24.453125 35.5 27.234375 
L 20.703125 69 
L 9 69 
L 9 0 
L 16.796875 0 
L 16.796875 60.921875 
L 16.90625 60.921875 
C 16.90625 60.828125 17.796875 56.453125 23.90625 39.0625 
L 37.09375 1.59375 
L 44.5 1.59375 
L 56.40625 34.890625 
C 57.203125 37.171875 59.703125 44.421875 60.796875 47.90625 
C 61.796875 50.890625 64.296875 58.25 64.90625 61.125 
L 65 61.125 
L 65 0 
L 72.90625 0 
L 72.90625 69 
L 61.296875 69 
z
" id="CMSS17-77"/>
      <path d="M 40.90625 29.34375 
C 40.90625 35.671875 39.40625 44 28.09375 44 
C 21.796875 44 17.703125 40.890625 14.796875 37.484375 
L 14.796875 69 
L 7.40625 69 
L 7.40625 0 
L 15 0 
L 15 24.3125 
C 15 30.65625 17.40625 37.890625 24.203125 37.890625 
C 33 37.890625 33.296875 31.953125 33.296875 28.53125 
L 33.296875 0 
L 40.90625 0 
z
" id="CMSS17-104"/>
     </defs>
     <g transform="translate(123.376476 46.177075)scale(0.08 -0.08)">
      <use transform="scale(0.996264)" xlink:href="#CMSS17-71"/>
      <use transform="translate(62.458226 0)scale(0.996264)" xlink:href="#CMSS17-83"/>
      <use transform="translate(114.506742 0)scale(0.996264)" xlink:href="#CMSS17-72"/>
      <use transform="translate(211.797374 0)scale(0.996264)" xlink:href="#CMSS17-40"/>
      <use transform="translate(248.231288 0)scale(0.996264)" xlink:href="#CMSS17-111"/>
      <use transform="translate(295.074911 0)scale(0.996264)" xlink:href="#CMSS17-117"/>
      <use transform="translate(343.279854 0)scale(0.996264)" xlink:href="#CMSS17-114"/>
      <use transform="translate(406.41874 0)scale(0.996264)" xlink:href="#CMSS17-77"/>
      <use transform="translate(488.09477 0)scale(0.996264)" xlink:href="#CMSS17-101"/>
      <use transform="translate(529.733592 0)scale(0.996264)" xlink:href="#CMSS17-116"/>
      <use transform="translate(563.565158 0)scale(0.996264)" xlink:href="#CMSS17-104"/>
      <use transform="translate(611.770102 0)scale(0.996264)" xlink:href="#CMSS17-111"/>
      <use transform="translate(661.216164 0)scale(0.996264)" xlink:href="#CMSS17-100"/>
      <use transform="translate(709.421107 0)scale(0.996264)" xlink:href="#CMSS17-41"/>
     </g>
    </g>
   </g>
  </g>
 </g>
 <defs>
  <clipPath id="pe0fe1cffef">
   <rect height="120.711804" width="175.972406" x="45.625092" y="10.7"/>
  </clipPath>
 </defs>
</svg>
