<svg xmlns="http://www.w3.org/2000/svg" xmlns:xlink="http://www.w3.org/1999/xlink" xmlns:lucid="lucid" width="522.76" height="357.35"><g transform="translate(20 20)" lucid:page-tab-id="0_0"><path d="M0 0h1870.4v1323.2H0z" fill="#fff"/><path d="M0 317h317V0H0z" stroke="#999" stroke-width="1.33" fill="#fff"/><path d="M9.5 307.5h298V9.5H9.5z" stroke="#999" stroke-width="1.33" fill="#fff"/><path d="M225.4 88.13c1.25 0 2.52-.64 3.47-1.6.95-.62 1.27-1.9 1.27-3.16 0-1.27-.3-2.53-1.27-3.5-.95-.62-2.22-1.25-3.48-1.25-1.28 0-2.23.63-3.18 1.26-.95.96-1.6 2.22-1.6 3.5 0 1.26.65 2.53 1.6 3.16.95.95 1.9 1.6 3.17 1.6zM276.74 212.07c1.27 0 2.54-.63 3.17-1.58.96-.96 1.6-1.9 1.6-3.18 0-1.27-.64-2.54-1.6-3.5-.62-.94-1.9-1.26-3.16-1.26-1.27 0-2.54.32-3.5 1.27-.62.95-1.25 2.22-1.25 3.5 0 1.26.62 2.2 1.25 3.16.95.94 2.22 1.57 3.5 1.57zM149.94 34.24c1.27 0 2.54-.64 3.5-1.27.62-.95 1.26-2.22 1.26-3.5 0-1.26-.64-2.52-1.27-3.16-.95-.94-2.22-1.57-3.5-1.57-1.26 0-2.53.63-3.16 1.58-.95.64-1.58 1.9-1.58 3.18 0 1.27.62 2.54 1.57 3.5.63.62 1.9 1.26 3.17 1.26zM241.55 31.38c1.27 0 2.54-.3 3.5-1.26.94-.96 1.26-1.9 1.26-3.18 0-1.26-.3-2.53-1.26-3.48-.95-.95-2.22-1.27-3.5-1.27-1.25 0-2.2.3-3.16 1.26-.95.95-1.26 2.22-1.26 3.48 0 1.27.3 2.22 1.26 3.18.96.95 1.9 1.26 3.17 1.26zM290.06 236.16c1.26 0 2.53-.63 3.48-1.26.95-.95 1.27-2.22 1.27-3.5 0-1.26-.3-2.53-1.26-3.16-.95-.95-2.22-1.6-3.5-1.6-.94.02-2.2.65-3.16 1.6-.95.63-1.26 1.9-1.26 3.17 0 1.28.3 2.55 1.26 3.5.96.63 2.22 1.26 3.18 1.26zM209.22 93.52c1.27 0 2.54-.64 3.5-1.6.94-.62 1.26-1.9 1.26-3.16 0-1.27-.32-2.54-1.27-3.5-.94-.62-2.2-1.25-3.48-1.25-1.27 0-2.22.64-3.17 1.27-.95.95-1.6 2.22-1.6 3.5.02 1.26.65 2.53 1.6 3.16.95.95 1.9 1.58 3.17 1.58z" stroke="#f8b156" stroke-width=".13" fill="#f8b156"/><path d="M158.18 34.24c1.27 0 2.22-.64 3.17-1.27.95-.95 1.6-2.22 1.6-3.5 0-1.26-.65-2.52-1.6-3.16-.95-.94-1.9-1.57-3.17-1.57s-2.53.63-3.48 1.58c-.95.64-1.27 1.9-1.27 3.18 0 1.27.3 2.54 1.27 3.5.95.62 2.22 1.26 3.48 1.26zM176.9 31.38c1.25 0 2.52-.3 3.47-1.26.95-.96 1.27-1.9 1.27-3.18 0-1.26-.32-2.53-1.27-3.48-.95-.95-2.22-1.27-3.48-1.27-1.28 0-2.23.3-3.18 1.26-.95.95-1.6 2.22-1.6 3.48 0 1.27.65 2.22 1.6 3.18.95.95 1.9 1.26 3.17 1.26zM271.35 168.96c1.27 0 2.54-.63 3.17-1.58.95-.95 1.6-1.9 1.6-3.17 0-1.26-.65-2.53-1.6-3.48-.63-.95-1.9-1.27-3.17-1.27s-2.53.32-3.5 1.27c-.62.95-1.25 2.22-1.25 3.5 0 1.25.63 2.2 1.26 3.16.96.95 2.22 1.58 3.5 1.58zM120.46 61.18c1.27 0 2.22-.63 3.17-1.27.95-.94 1.27-2.2 1.27-3.47s-.32-2.54-1.27-3.17c-.95-.95-1.9-1.6-3.17-1.6s-2.54.65-3.5 1.6c-.94.63-1.25 1.9-1.25 3.17 0 1.26.32 2.53 1.27 3.48.95.65 2.22 1.28 3.5 1.28zM106.83 52.94c1.27 0 2.53-.32 3.5-1.27.62-.95 1.25-2.22 1.25-3.17 0-1.27-.63-2.54-1.26-3.5-.95-.94-2.22-1.25-3.5-1.25-1.26 0-2.53.3-3.16 1.26-.95.96-1.6 2.23-1.6 3.5 0 .95.65 2.22 1.6 3.17.63.95 1.9 1.27 3.17 1.27zM239.02 55.8c1.27 0 2.53-.64 3.17-1.28.94-.95 1.57-2.22 1.57-3.48 0-1.27-.63-2.54-1.58-3.17-.65-.95-1.9-1.6-3.18-1.6-1.27 0-2.54.65-3.5 1.6-.62.63-1.26 1.9-1.26 3.17s.64 2.53 1.27 3.48c.95.64 2.22 1.27 3.5 1.27zM179.74 96.05c1.27 0 2.22-.32 3.17-1.27.96-.95 1.6-2.22 1.6-3.48 0-.95-.64-2.22-1.6-3.17-.94-.95-1.9-1.27-3.16-1.27-1.27 0-2.54.32-3.5 1.27-.94.95-1.26 2.22-1.26 3.17 0 1.26.32 2.53 1.27 3.48.95.95 2.22 1.27 3.5 1.27zM273.9 31.38c1.26 0 2.52-.3 3.48-1.26.95-.96 1.26-1.9 1.26-3.18 0-1.26-.3-2.53-1.26-3.48-.96-.95-2.22-1.27-3.5-1.27-1.26 0-2.2.3-3.16 1.26-.95.95-1.27 2.22-1.27 3.48 0 1.27.32 2.22 1.27 3.18.95.95 1.9 1.26 3.17 1.26zM147.4 66.57c1.27 0 2.22-.63 3.17-1.27.96-.95 1.6-2.22 1.6-3.48 0-1.27-.64-2.54-1.6-3.18-.95-.95-1.9-1.58-3.16-1.58-1.26 0-2.53.63-3.48 1.58-.95.64-1.27 1.9-1.27 3.18 0 1.26.32 2.53 1.27 3.48.95.64 2.22 1.27 3.5 1.27zM166.1 112.22c1.28 0 2.54-.32 3.5-1.27.95-.95 1.26-2.22 1.26-3.5 0-1.25-.3-2.2-1.27-3.16-.96-.96-2.22-1.27-3.5-1.27-1.26 0-2.2.3-3.16 1.26-.95.94-1.6 1.9-1.6 3.16 0 1.27.65 2.54 1.6 3.5.95.94 1.9 1.26 3.17 1.26zM228.24 158.18c1.27 0 2.54-.63 3.17-1.58.96-.64 1.6-1.9 1.6-3.17s-.64-2.54-1.6-3.5c-.62-.62-1.9-1.26-3.16-1.26-1.27 0-2.54.64-3.5 1.27-.62.95-1.26 2.22-1.26 3.5 0 1.26.64 2.52 1.27 3.16.95.95 2.22 1.58 3.5 1.58zM279.28 66.57c1.27 0 2.53-.63 3.48-1.27.96-.95 1.27-2.22 1.27-3.48 0-1.27-.3-2.54-1.27-3.18-.95-.95-2.2-1.58-3.48-1.58-1.27 0-2.22.63-3.17 1.58-.94.64-1.26 1.9-1.26 3.18 0 1.26.32 2.53 1.27 3.48.96.64 1.9 1.27 3.18 1.27zM236.16 142.02c1.27 0 2.54-.64 3.5-1.6.94-.62 1.26-1.9 1.26-3.16 0-1.27-.32-2.53-1.27-3.5-.95-.62-2.22-1.25-3.5-1.25-1.25 0-2.2.64-3.16 1.27-.96.95-1.27 2.22-1.27 3.5 0 1.26.3 2.53 1.27 3.16.95.95 1.9 1.6 3.16 1.6zM193.05 58.33c1.27 0 2.54-.32 3.5-1.27.94-.95 1.26-2.22 1.26-3.17 0-1.28-.3-2.55-1.26-3.5-.95-.95-2.22-1.27-3.5-1.27-1.25 0-2.2.32-3.16 1.27-.95.95-1.58 2.22-1.58 3.5 0 .94.63 2.2 1.58 3.16.95.95 1.9 1.27 3.17 1.27zM282.13 139.16c1.27 0 2.54-.3 3.17-1.26.95-.96 1.58-2.22 1.58-3.5 0-1.26-.63-2.2-1.58-3.16-.63-.95-1.9-1.6-3.17-1.6s-2.54.65-3.5 1.6c-.62.95-1.25 1.9-1.25 3.17 0 1.28.63 2.54 1.26 3.5.95.95 2.22 1.26 3.5 1.26zM185.13 82.74c1.27 0 2.22-.64 3.17-1.6.95-.62 1.58-1.9 1.58-3.16 0-1.27-.63-2.53-1.58-3.5-.95-.62-1.9-1.25-3.17-1.25s-2.54.63-3.5 1.26c-.94.95-1.26 2.2-1.26 3.48 0 1.27.32 2.54 1.27 3.17.95.95 2.22 1.6 3.5 1.6zM225.4 82.74c1.25 0 2.52-.64 3.47-1.6.95-.62 1.27-1.9 1.27-3.16 0-1.27-.3-2.53-1.27-3.5-.95-.62-2.22-1.25-3.48-1.25-1.28 0-2.23.63-3.18 1.26-.95.95-1.6 2.2-1.6 3.48 0 1.27.65 2.54 1.6 3.17.95.95 1.9 1.6 3.17 1.6zM166.1 61.18c1.28 0 2.54-.63 3.5-1.27.95-.94 1.26-2.2 1.26-3.47s-.3-2.54-1.27-3.17c-.96-.95-2.22-1.6-3.5-1.6-1.26 0-2.2.65-3.16 1.6-.95.63-1.6 1.9-1.6 3.17 0 1.26.65 2.53 1.6 3.48.95.65 1.9 1.28 3.17 1.28z" stroke="#f8b156" stroke-width=".13" fill="#f8b156"/><path d="M168.96 112.22c1.27 0 2.22-.32 3.17-1.27.95-.95 1.6-2.22 1.6-3.5 0-1.25-.65-2.2-1.6-3.16-.95-.96-1.9-1.27-3.17-1.27s-2.53.3-3.5 1.26c-.94.94-1.25 1.9-1.25 3.16 0 1.27.32 2.54 1.27 3.5.96.94 2.22 1.26 3.5 1.26zM147.4 88.13c1.27 0 2.22-.64 3.17-1.6.96-.62 1.6-1.9 1.6-3.16 0-1.27-.64-2.53-1.6-3.5-.95-.62-1.9-1.25-3.16-1.25-1.26 0-2.53.63-3.48 1.26-.95.96-1.27 2.22-1.27 3.5 0 1.26.32 2.53 1.27 3.16.95.95 2.22 1.6 3.5 1.6zM273.9 144.55c1.26 0 2.52-.3 3.48-1.27.95-.95 1.26-2.22 1.26-3.48 0-1.27-.3-2.22-1.26-3.17-.96-.95-2.22-1.6-3.5-1.6-1.26 0-2.2.65-3.16 1.6-.95.95-1.27 1.9-1.27 3.17 0 1.26.32 2.53 1.27 3.48.95.96 1.9 1.27 3.17 1.27zM106.83 50.4c1.27 0 2.53-.63 3.5-1.27.62-.95 1.25-2.2 1.25-3.48 0-1.27-.63-2.54-1.26-3.17-.95-.95-2.22-1.6-3.5-1.6-1.26 0-2.53.65-3.16 1.6-.95.63-1.6 1.9-1.6 3.17s.65 2.53 1.6 3.48c.63.64 1.9 1.27 3.17 1.27zM209.22 93.52c1.27 0 2.54-.64 3.5-1.6.94-.62 1.26-1.9 1.26-3.16 0-1.27-.32-2.54-1.27-3.5-.94-.62-2.2-1.25-3.48-1.25-1.27 0-2.22.64-3.17 1.27-.95.95-1.6 2.22-1.6 3.5.02 1.26.65 2.53 1.6 3.16.95.95 1.9 1.58 3.17 1.58zM284.67 152.8c1.26 0 2.53-.64 3.48-1.6.95-.63 1.27-1.9 1.27-3.16 0-1.27-.32-2.54-1.27-3.5-.95-.62-2.22-1.26-3.48-1.26-.95 0-2.22.64-3.17 1.27-.95.95-1.27 2.22-1.27 3.5 0 1.26.3 2.52 1.27 3.16.95.96 2.22 1.6 3.17 1.6zM190.52 52.94c1.26 0 2.22-.32 3.17-1.27.94-.95 1.57-2.22 1.57-3.17 0-1.27-.63-2.54-1.58-3.5-.96-.94-1.9-1.25-3.18-1.25-1.27 0-2.54.3-3.5 1.26-.94.96-1.26 2.23-1.26 3.5 0 .95.32 2.22 1.27 3.17.95.95 2.22 1.27 3.5 1.27zM214.6 61.18c1.28 0 2.55-.63 3.5-1.27.95-.94 1.26-2.2 1.26-3.47s-.3-2.54-1.26-3.17c-.95-.95-2.22-1.6-3.5-1.6-1.26 0-2.2.65-3.16 1.6-.95.63-1.6 1.9-1.6 3.17 0 1.26.65 2.53 1.6 3.48.95.65 1.9 1.28 3.17 1.28zM230.78 128.4c1.26 0 2.53-.33 3.48-1.28.95-.95 1.27-2.22 1.27-3.5 0-1.26-.32-2.2-1.27-3.16-.95-.95-2.22-1.27-3.48-1.27-1.27 0-2.22.3-3.17 1.26-.94.95-1.58 1.9-1.58 3.17s.63 2.54 1.6 3.5c.94.94 1.9 1.26 3.16 1.26zM233.63 104.3c1.27 0 2.53-.64 3.17-1.6.95-.63 1.58-1.9 1.58-3.16 0-1.27-.63-2.54-1.58-3.5-.64-.62-1.9-1.26-3.17-1.26s-2.54.64-3.5 1.27c-.62.95-1.26 2.22-1.26 3.5 0 1.26.64 2.52 1.27 3.16.95.96 2.22 1.6 3.5 1.6zM284.67 61.18c1.26 0 2.53-.63 3.48-1.27.95-.94 1.27-2.2 1.27-3.47s-.32-2.54-1.27-3.17c-.95-.95-2.22-1.6-3.48-1.6-.95 0-2.22.65-3.17 1.6-.95.63-1.27 1.9-1.27 3.17 0 1.26.3 2.53 1.27 3.48.95.65 2.22 1.28 3.17 1.28zM255.2 117.6c1.25 0 2.52-.3 3.15-1.26.96-.95 1.6-2.22 1.6-3.5 0-1.26-.64-2.2-1.6-3.16-.63-.95-1.9-1.27-3.17-1.27-1.26 0-2.53.33-3.48 1.28-.64.95-1.27 1.9-1.27 3.17s.63 2.54 1.27 3.5c.95.94 2.22 1.26 3.5 1.26zM120.46 52.94c1.27 0 2.22-.32 3.17-1.27.95-.95 1.27-2.22 1.27-3.17 0-1.27-.32-2.54-1.27-3.5-.95-.94-1.9-1.25-3.17-1.25s-2.54.3-3.5 1.26c-.94.96-1.25 2.23-1.25 3.5 0 .95.32 2.22 1.27 3.17.95.95 2.22 1.27 3.5 1.27zM214.6 104.3c1.28 0 2.55-.64 3.5-1.6.95-.63 1.26-1.9 1.26-3.16 0-1.27-.3-2.54-1.26-3.5-.95-.62-2.22-1.26-3.5-1.26-1.26 0-2.2.64-3.16 1.27-.95.95-1.6 2.22-1.6 3.5 0 1.26.65 2.52 1.6 3.16.95.96 1.9 1.6 3.17 1.6zM276.74 179.74c1.27 0 2.54-.64 3.17-1.6.96-.94 1.6-1.9 1.6-3.16 0-1.26-.64-2.53-1.6-3.48-.62-.95-1.9-1.27-3.16-1.27-1.27 0-2.54.32-3.5 1.27-.62.95-1.25 2.22-1.25 3.48 0 1.27.62 2.22 1.25 3.17.95.95 2.22 1.6 3.5 1.6zM139.16 79.88c1.27 0 2.54-.3 3.5-1.26.62-.96 1.26-2.22 1.26-3.5 0-.94-.64-2.2-1.27-3.16-.95-.95-2.22-1.27-3.5-1.27-1.25 0-2.52.3-3.16 1.26-.96.95-1.6 2.22-1.6 3.17 0 1.27.64 2.53 1.6 3.5.63.94 1.9 1.25 3.16 1.25z" stroke="#f8b156" stroke-width=".13" fill="#f8b156"/><path d="M282.13 185.13c1.27 0 2.54-.64 3.17-1.6.95-.94 1.58-1.9 1.58-3.16 0-1.27-.63-2.53-1.58-3.48-.63-.97-1.9-1.28-3.17-1.28s-2.54.3-3.5 1.27c-.62.94-1.25 2.2-1.25 3.47s.63 2.22 1.26 3.17c.95.95 2.22 1.6 3.5 1.6zM265.96 158.18c1.27 0 2.54-.63 3.17-1.58.95-.64 1.6-1.9 1.6-3.17s-.65-2.54-1.6-3.5c-.63-.62-1.9-1.26-3.17-1.26-1.26 0-2.53.64-3.48 1.27-.64.95-1.27 2.22-1.27 3.5 0 1.26.64 2.52 1.28 3.16.95.95 2.2 1.58 3.48 1.58zM198.44 55.8c1.27 0 2.54-.64 3.5-1.28.94-.95 1.26-2.22 1.26-3.48 0-1.27-.32-2.54-1.27-3.17-.95-.95-2.22-1.6-3.5-1.6-1.26 0-2.2.65-3.16 1.6-.95.63-1.58 1.9-1.58 3.17s.62 2.53 1.57 3.48c.95.64 1.9 1.27 3.17 1.27z" stroke="#f8b156" stroke-width=".13" fill="#f8b156"/><path d="M144.55 168.96c1.27 0 2.54-.63 3.5-1.58.62-.95 1.26-1.9 1.26-3.17 0-1.26-.63-2.53-1.26-3.48-.95-.95-2.22-1.27-3.5-1.27-1.26 0-2.52.32-3.16 1.27-.95.95-1.58 2.22-1.58 3.5 0 1.25.63 2.2 1.58 3.16.64.95 1.9 1.58 3.17 1.58zM206.68 271.03c1.27 0 2.54-.3 3.17-1.26.96-.95 1.6-2.22 1.6-3.17 0-1.27-.64-2.54-1.6-3.5-.63-.94-1.9-1.26-3.17-1.26-1.26 0-2.53.32-3.48 1.27-.64.96-1.27 2.23-1.27 3.5 0 .95.63 2.22 1.27 3.17.95.95 2.22 1.26 3.48 1.26zM220 271.03c1.27 0 2.53-.3 3.48-1.26.96-.95 1.27-2.22 1.27-3.17 0-1.27-.3-2.54-1.27-3.5-.95-.94-2.2-1.26-3.48-1.26-1.27 0-2.22.32-3.17 1.27-.95.96-1.6 2.23-1.6 3.5 0 .95.65 2.22 1.6 3.17.95.95 1.9 1.26 3.17 1.26zM158.18 217.15c1.27 0 2.22-.32 3.17-1.27.95-.95 1.6-1.9 1.6-3.17 0-1.26-.65-2.53-1.6-3.48-.95-.95-1.9-1.27-3.17-1.27s-2.53.32-3.48 1.27c-.95.95-1.27 2.22-1.27 3.5 0 1.26.3 2.2 1.27 3.16.95.95 2.22 1.27 3.48 1.27zM77.35 244.1c1.27 0 2.22-.33 3.17-1.28.95-.95 1.27-1.9 1.27-3.17s-.33-2.53-1.28-3.5c-.95-.94-1.9-1.25-3.17-1.25s-2.54.3-3.5 1.26c-.94.96-1.26 2.22-1.26 3.5 0 1.26.3 2.2 1.26 3.16.95.95 2.22 1.27 3.5 1.27zM63.72 190.52c1.27 0 2.53-.64 3.48-1.6.64-.94 1.27-1.9 1.27-3.16 0-1.27-.63-2.53-1.27-3.5-.95-.94-2.22-1.25-3.48-1.25-1.27 0-2.54.32-3.17 1.27-.95.96-1.6 2.22-1.6 3.5 0 1.26.65 2.2 1.6 3.16.63.95 1.9 1.6 3.17 1.6zM112.22 120.46c1.27 0 2.53-.63 3.48-1.58.64-.64 1.27-1.9 1.27-3.17 0-1.26-.63-2.53-1.27-3.48-.95-.64-2.2-1.27-3.48-1.27-1.27 0-2.54.63-3.17 1.27-.95.95-1.6 2.22-1.6 3.48 0 1.27.65 2.54 1.6 3.17.63.96 1.9 1.6 3.17 1.6zM50.4 142.02c.95 0 2.22-.64 3.17-1.6.95-.62 1.27-1.9 1.27-3.16 0-1.27-.32-2.53-1.27-3.5-.95-.62-2.22-1.25-3.17-1.25-1.27 0-2.53.64-3.48 1.27-.96.95-1.27 2.22-1.27 3.5 0 1.26.3 2.53 1.27 3.16.95.95 2.2 1.6 3.48 1.6zM112.22 212.07c1.27 0 2.53-.63 3.48-1.58.64-.96 1.27-1.9 1.27-3.18 0-1.27-.63-2.54-1.27-3.5-.95-.94-2.2-1.26-3.48-1.26-1.27 0-2.54.32-3.17 1.27-.95.95-1.6 2.22-1.6 3.5 0 1.26.65 2.2 1.6 3.16.63.94 1.9 1.57 3.17 1.57zM225.4 233.3c1.25 0 2.52-.3 3.47-1.26.95-.95 1.27-1.9 1.27-3.17 0-1.26-.3-2.53-1.27-3.48-.95-.96-2.22-1.28-3.48-1.28-1.28 0-2.23.32-3.18 1.27-.95.94-1.6 2.2-1.6 3.47s.65 2.22 1.6 3.17c.95.96 1.9 1.27 3.17 1.27zM174.35 220c1.27 0 2.22-.64 3.17-1.27.95-.95 1.58-2.22 1.58-3.5 0-1.25-.63-2.52-1.58-3.16-.95-.95-1.9-1.58-3.17-1.58s-2.54.62-3.5 1.57c-.94.64-1.25 1.9-1.25 3.17s.3 2.54 1.26 3.5c.95.62 2.22 1.26 3.5 1.26zM117.6 295.44c1.28 0 2.54-.63 3.5-1.58.63-.63 1.26-1.9 1.26-3.17 0-1.28-.63-2.55-1.27-3.5-.96-.63-2.22-1.27-3.5-1.27-1.26 0-2.53.64-3.16 1.27-.95.95-1.6 2.22-1.6 3.5 0 1.26.65 2.53 1.6 3.16.63.95 1.9 1.58 3.17 1.58zM26 198.44c1.26 0 2.53-.63 3.16-1.27.96-.95 1.6-2.22 1.6-3.48 0-1.28-.64-2.55-1.6-3.18-.63-.95-1.9-1.6-3.17-1.6s-2.54.65-3.5 1.6c-.63.63-1.26 1.9-1.26 3.17 0 1.25.63 2.52 1.27 3.47.96.64 2.23 1.27 3.5 1.27zM168.96 281.8c1.27 0 2.22-.3 3.17-1.25.95-.96 1.6-2.22 1.6-3.5 0-.94-.65-2.2-1.6-3.16-.95-.96-1.9-1.28-3.17-1.28s-2.53.32-3.5 1.27c-.94.94-1.25 2.2-1.25 3.16 0 1.27.32 2.53 1.27 3.5.96.94 2.22 1.25 3.5 1.25zM128.4 249.48c1.25 0 2.52-.32 3.47-1.27.64-.94 1.27-1.9 1.27-3.16 0-1.27-.63-2.53-1.27-3.5-.95-.94-2.22-1.25-3.48-1.25-1.28 0-2.55.3-3.2 1.25-.94.95-1.57 2.22-1.57 3.5 0 1.26.63 2.2 1.6 3.16.62.96 1.9 1.28 3.16 1.28zM239.02 284.67c1.27 0 2.53-.64 3.17-1.6.94-.62 1.57-1.9 1.57-3.16 0-1.26-.63-2.52-1.58-3.48-.65-.63-1.9-1.26-3.18-1.26-1.27 0-2.54.63-3.5 1.26-.62.95-1.26 2.22-1.26 3.5 0 1.26.64 2.53 1.27 3.16.95.95 2.22 1.6 3.5 1.6z" stroke="#699cb1" stroke-width=".13" fill="#699cb1"/><path d="M109.68 292.6c1.27 0 2.22-.33 3.17-1.28.95-.95 1.27-2.22 1.27-3.48 0-.95-.32-2.22-1.27-3.17-.95-.95-1.9-1.27-3.17-1.27s-2.53.32-3.48 1.27c-.96.95-1.27 2.2-1.27 3.17 0 1.26.3 2.53 1.27 3.48.95.95 2.2 1.27 3.48 1.27zM179.74 201.3c1.27 0 2.22-.64 3.17-1.6.96-.94 1.6-1.9 1.6-3.16 0-1.27-.64-2.54-1.6-3.5-.94-.94-1.9-1.25-3.16-1.25-1.27-.02-2.54.3-3.5 1.25-.94.95-1.26 2.22-1.26 3.5 0 1.26.32 2.2 1.27 3.16s2.22 1.6 3.5 1.6zM55.8 171.5c.94 0 2.2-.32 3.16-1.27.95-.95 1.27-2.22 1.27-3.5 0-1.26-.32-2.2-1.27-3.16-.95-.95-2.22-1.58-3.17-1.58-1.28 0-2.54.62-3.5 1.57-.95.95-1.26 1.9-1.26 3.17s.3 2.54 1.27 3.5c.96.94 2.22 1.26 3.5 1.26zM246.94 295.44c1.27 0 2.54-.63 3.5-1.58.94-.63 1.26-1.9 1.26-3.17 0-1.28-.32-2.55-1.27-3.5-.95-.63-2.22-1.27-3.5-1.27-1.25 0-2.2.64-3.16 1.27-.95.95-1.27 2.22-1.27 3.5 0 1.26.32 2.53 1.27 3.16.95.95 1.9 1.58 3.17 1.58zM63.72 152.8c1.27 0 2.53-.64 3.48-1.6.64-.63 1.27-1.9 1.27-3.16 0-1.27-.63-2.54-1.27-3.5-.95-.62-2.22-1.26-3.48-1.26-1.27 0-2.54.64-3.17 1.27-.95.95-1.6 2.22-1.6 3.5 0 1.26.65 2.52 1.6 3.16.63.96 1.9 1.6 3.17 1.6zM58.33 182.27c1.27 0 2.53-.3 3.5-1.26.62-.94 1.25-2.2 1.25-3.48 0-1.27-.63-2.22-1.26-3.17-.96-.95-2.22-1.58-3.5-1.58-1.26 0-2.53.63-3.16 1.58-.95.95-1.6 1.9-1.6 3.17s.65 2.54 1.6 3.5c.63.94 1.9 1.25 3.17 1.25zM209.22 279.28c1.27 0 2.54-.64 3.5-1.6.94-.62 1.26-1.9 1.26-3.16 0-1.27-.32-2.53-1.27-3.5-.94-.62-2.2-1.25-3.48-1.25-1.27 0-2.22.63-3.17 1.26-.95.96-1.6 2.22-1.6 3.5.02 1.26.65 2.53 1.6 3.16.95.94 1.9 1.58 3.17 1.58zM33.92 90.66c1.27 0 2.53-.3 3.5-1.27.94-.96 1.25-2.22 1.25-3.5 0-.94-.3-2.2-1.26-3.16-.95-.95-2.2-1.27-3.48-1.27-.95 0-2.22.32-3.17 1.27-.95.95-1.27 2.22-1.27 3.17 0 1.28.32 2.54 1.27 3.5.95.94 2.22 1.26 3.17 1.26zM66.57 241.55c.95 0 2.22-.63 3.17-1.26.95-.97 1.27-2.23 1.27-3.5s-.3-2.54-1.26-3.17c-.95-.95-2.22-1.6-3.17-1.6-1.27 0-2.54.65-3.5 1.6-.94.63-1.25 1.9-1.25 3.17s.3 2.53 1.26 3.5c.95.62 2.22 1.25 3.5 1.25zM182.27 233.3c1.27 0 2.54-.3 3.5-1.26.94-.95 1.26-1.9 1.26-3.17 0-1.26-.32-2.53-1.27-3.48-.95-.96-2.22-1.28-3.5-1.28-1.25 0-2.2.32-3.16 1.27-.95.94-1.58 2.2-1.58 3.47s.63 2.22 1.58 3.17c.96.96 1.9 1.27 3.17 1.27zM239.02 260.26c1.27 0 2.53-.32 3.17-1.27.94-.96 1.57-2.23 1.57-3.18 0-1.27-.63-2.54-1.58-3.5-.65-.94-1.9-1.26-3.18-1.26-1.27 0-2.54.32-3.5 1.27-.62.95-1.26 2.22-1.26 3.5 0 .94.64 2.2 1.27 3.16.95.94 2.22 1.26 3.5 1.26zM136.63 201.3c1.27 0 2.22-.64 3.17-1.6.95-.94 1.58-1.9 1.58-3.16 0-1.27-.63-2.54-1.58-3.5-.95-.94-1.9-1.25-3.17-1.25-1.27-.02-2.54.3-3.5 1.25-.94.95-1.26 2.22-1.26 3.5 0 1.26.32 2.2 1.27 3.16s2.22 1.6 3.5 1.6zM26 160.72c1.26 0 2.53-.32 3.16-1.27.96-.95 1.6-2.22 1.6-3.5 0-1.25-.64-2.2-1.6-3.16-.63-.96-1.9-1.6-3.17-1.6s-2.54.64-3.5 1.6c-.63.94-1.26 1.9-1.26 3.16 0 1.27.63 2.54 1.27 3.5.96.94 2.23 1.26 3.5 1.26zM123 203.83c1.26 0 2.53-.63 3.48-1.27.64-.95 1.27-2.22 1.27-3.48 0-1.27-.63-2.54-1.27-3.17-.95-.95-2.22-1.58-3.48-1.58-1.27 0-2.54.63-3.17 1.6-.95.62-1.6 1.9-1.6 3.16 0 1.26.64 2.53 1.6 3.48.63.64 1.9 1.27 3.17 1.27zM155.33 287.2c1.27 0 2.54-.3 3.5-1.27.62-.95 1.25-2.2 1.25-3.48 0-.95-.63-2.22-1.26-3.17-.95-.95-2.22-1.27-3.5-1.27-1.26 0-2.53.33-3.16 1.28-.95.95-1.6 2.22-1.6 3.17 0 1.27.65 2.53 1.6 3.48.63.95 1.9 1.27 3.17 1.27zM82.74 98.9c1.27 0 2.22-.63 3.17-1.58.96-.63 1.28-1.9 1.28-3.17s-.32-2.54-1.27-3.5c-.94-.62-1.9-1.26-3.16-1.26-1.27 0-2.54.63-3.5 1.26-.94.95-1.26 2.22-1.26 3.5 0 1.26.32 2.53 1.27 3.16.95.95 2.22 1.58 3.5 1.58zM26 268.5c1.26 0 2.53-.63 3.16-1.27.96-.95 1.6-2.22 1.6-3.5 0-1.25-.64-2.52-1.6-3.16-.63-.95-1.9-1.58-3.17-1.58s-2.54.62-3.5 1.57c-.63.64-1.26 1.9-1.26 3.17s.63 2.54 1.27 3.5c.96.63 2.23 1.26 3.5 1.26zM88.13 136.63c1.26 0 2.22-.64 3.17-1.6.95-.62 1.26-1.9 1.26-3.16 0-1.27-.3-2.53-1.26-3.48-.95-.65-1.9-1.28-3.17-1.28s-2.54.63-3.5 1.27c-.94.94-1.26 2.2-1.26 3.47s.32 2.54 1.27 3.17c.95.95 2.22 1.6 3.5 1.6zM31.38 128.4c1.27 0 2.54-.33 3.17-1.28.95-.95 1.6-2.22 1.6-3.5 0-1.26-.65-2.2-1.6-3.16-.63-.95-1.9-1.27-3.17-1.27-1.26 0-2.53.3-3.48 1.26-.64.95-1.27 1.9-1.27 3.17s.63 2.54 1.27 3.5c.95.94 2.22 1.26 3.48 1.26zM160.72 222.53c1.27 0 2.53-.3 3.5-1.26.94-.96 1.25-1.9 1.25-3.17s-.3-2.54-1.26-3.5c-.94-.94-2.2-1.26-3.48-1.26-1.27 0-2.22.32-3.17 1.27-.95.96-1.6 2.23-1.6 3.5 0 1.26.65 2.22 1.6 3.17.95.95 1.9 1.26 3.17 1.26z" stroke="#699cb1" stroke-width=".13" fill="#699cb1"/><path d="M63.72 185.13c1.27 0 2.53-.64 3.48-1.6.64-.94 1.27-1.9 1.27-3.16 0-1.27-.63-2.53-1.27-3.48-.95-.97-2.22-1.28-3.48-1.28-1.27 0-2.54.3-3.17 1.27-.95.94-1.6 2.2-1.6 3.47s.65 2.22 1.6 3.17c.63.95 1.9 1.6 3.17 1.6zM123 268.5c1.26 0 2.53-.63 3.48-1.27.64-.95 1.27-2.22 1.27-3.5 0-1.25-.63-2.52-1.27-3.16-.95-.95-2.22-1.58-3.48-1.58-1.27 0-2.54.62-3.17 1.57-.95.64-1.6 1.9-1.6 3.17s.64 2.54 1.6 3.5c.63.63 1.9 1.26 3.17 1.26zM55.8 290.06c.94 0 2.2-.64 3.16-1.6.95-.62 1.27-1.9 1.27-3.16 0-1.27-.32-2.54-1.27-3.5-.95-.62-2.22-1.25-3.17-1.25-1.28 0-2.54.63-3.5 1.26-.95.96-1.26 2.23-1.26 3.5s.3 2.54 1.27 3.17c.96.95 2.22 1.58 3.5 1.58zM112.22 149.94c1.27 0 2.53-.32 3.48-1.27.64-.95 1.27-2.22 1.27-3.48 0-1.28-.63-2.23-1.27-3.18-.95-.96-2.2-1.6-3.48-1.6-1.27 0-2.54.65-3.17 1.6-.95.95-1.6 1.9-1.6 3.17 0 1.25.65 2.52 1.6 3.47.63.95 1.9 1.27 3.17 1.27zM26 193.05c1.26 0 2.53-.63 3.16-1.27.96-.95 1.6-2.2 1.6-3.48 0-1.27-.64-2.54-1.6-3.17-.63-.95-1.9-1.6-3.17-1.6s-2.54.65-3.5 1.6c-.63.63-1.26 1.9-1.26 3.17s.63 2.53 1.27 3.48c.96.64 2.23 1.27 3.5 1.27zM77.35 171.5c1.27 0 2.22-.32 3.17-1.27.95-.95 1.27-2.22 1.27-3.5 0-1.26-.33-2.2-1.28-3.16-.95-.95-1.9-1.58-3.17-1.58s-2.54.62-3.5 1.57c-.94.95-1.26 1.9-1.26 3.17s.3 2.54 1.26 3.5c.95.94 2.22 1.26 3.5 1.26zM139.16 144.55c1.27 0 2.54-.3 3.5-1.27.62-.95 1.26-2.22 1.26-3.48 0-1.27-.64-2.22-1.27-3.17-.95-.95-2.22-1.6-3.5-1.6-1.25 0-2.52.65-3.16 1.6-.96.95-1.6 1.9-1.6 3.17 0 1.26.64 2.53 1.6 3.48.63.96 1.9 1.27 3.16 1.27zM106.83 230.78c1.27 0 2.53-.64 3.5-1.27.62-.94 1.25-2.2 1.25-3.48 0-1.27-.63-2.54-1.26-3.17-.95-.95-2.22-1.58-3.5-1.58-1.26 0-2.53.63-3.16 1.58-.95.63-1.6 1.9-1.6 3.17s.65 2.54 1.6 3.5c.63.62 1.9 1.26 3.17 1.26zM31.38 287.2c1.27 0 2.54-.3 3.17-1.27.95-.95 1.6-2.2 1.6-3.48 0-.95-.65-2.22-1.6-3.17-.63-.95-1.9-1.27-3.17-1.27-1.26 0-2.53.33-3.48 1.28-.64.95-1.27 2.22-1.27 3.17 0 1.27.63 2.53 1.27 3.48.95.95 2.22 1.27 3.48 1.27z" stroke="#699cb1" stroke-width=".13" fill="#699cb1"/><path d="M61.18 187.66c.95 0 2.22-.3 3.17-1.26.95-.96 1.27-2.22 1.27-3.5 0-1.26-.32-2.2-1.27-3.16-.95-.95-2.22-1.6-3.17-1.6-1.27 0-2.54.65-3.5 1.6-.94.95-1.25 1.9-1.25 3.17 0 1.28.3 2.54 1.26 3.5.94.95 2.2 1.26 3.48 1.26zM220 244.1c1.27 0 2.53-.33 3.48-1.28.96-.95 1.27-1.9 1.27-3.17s-.3-2.53-1.27-3.5c-.95-.94-2.2-1.25-3.48-1.25-1.27 0-2.22.3-3.17 1.26-.95.96-1.6 2.22-1.6 3.5 0 1.26.65 2.2 1.6 3.16.95.95 1.9 1.27 3.17 1.27zM220 225.4c1.27 0 2.53-.65 3.48-1.28.96-.95 1.27-2.22 1.27-3.5 0-1.26-.3-2.52-1.27-3.16-.95-.95-2.2-1.58-3.48-1.58-1.27 0-2.22.63-3.17 1.58-.95.64-1.6 1.9-1.6 3.17s.65 2.54 1.6 3.5c.95.62 1.9 1.26 3.17 1.26zM63.72 284.67c1.27 0 2.53-.64 3.48-1.6.64-.62 1.27-1.9 1.27-3.16 0-1.26-.63-2.52-1.27-3.48-.95-.63-2.22-1.26-3.48-1.26-1.27 0-2.54.63-3.17 1.26-.95.95-1.6 2.22-1.6 3.5 0 1.26.65 2.53 1.6 3.16.63.95 1.9 1.6 3.17 1.6zM206.68 265.65c1.27 0 2.54-.32 3.17-1.27.96-.95 1.6-2.22 1.6-3.17 0-1.26-.64-2.53-1.6-3.48-.63-.95-1.9-1.27-3.17-1.27-1.26 0-2.53.32-3.48 1.27-.64.95-1.27 2.22-1.27 3.5 0 .94.63 2.2 1.27 3.16.95.95 2.22 1.27 3.48 1.27zM69.1 230.78c1.27 0 2.54-.64 3.5-1.27.63-.94 1.26-2.2 1.26-3.48 0-1.27-.63-2.54-1.27-3.17-.96-.95-2.23-1.58-3.5-1.58-1.26 0-2.53.63-3.16 1.58-.95.63-1.6 1.9-1.6 3.17s.64 2.54 1.6 3.5c.63.62 1.9 1.26 3.17 1.26zM104.3 238.7c1.26 0 2.2-.32 3.16-1.27.95-.95 1.27-1.9 1.27-3.17 0-1.26-.32-2.53-1.27-3.48-.95-.96-1.9-1.27-3.17-1.27s-2.54.32-3.5 1.28c-.94.95-1.26 2.22-1.26 3.48 0 1.27.3 2.22 1.27 3.17.96.95 2.23 1.27 3.5 1.27zM61.18 104.3c.95 0 2.22-.64 3.17-1.6.95-.63 1.27-1.9 1.27-3.16 0-1.27-.32-2.54-1.27-3.5-.95-.62-2.22-1.26-3.17-1.26-1.27 0-2.54.64-3.5 1.27-.94.95-1.25 2.22-1.25 3.5 0 1.26.3 2.52 1.26 3.16.94.96 2.2 1.6 3.48 1.6zM176.9 230.78c1.25 0 2.52-.64 3.47-1.27.95-.94 1.27-2.2 1.27-3.48 0-1.27-.32-2.54-1.27-3.17-.95-.95-2.22-1.58-3.48-1.58-1.28 0-2.23.63-3.18 1.58-.95.63-1.6 1.9-1.6 3.17s.65 2.54 1.6 3.5c.95.62 1.9 1.26 3.17 1.26zM74.5 187.66c1.26 0 2.53-.3 3.48-1.26.64-.96 1.27-2.22 1.27-3.5 0-1.26-.63-2.2-1.27-3.16-.95-.95-2.22-1.6-3.5-1.6-1.25 0-2.52.65-3.16 1.6-.95.95-1.58 1.9-1.58 3.17 0 1.28.63 2.54 1.6 3.5.62.95 1.9 1.26 3.15 1.26z" stroke="#699cb1" stroke-width=".13" fill="#699cb1"/><path d="M55.8 193.05c.94 0 2.2-.63 3.16-1.27.95-.95 1.27-2.2 1.27-3.48 0-1.27-.32-2.54-1.27-3.17-.95-.95-2.22-1.6-3.17-1.6-1.28 0-2.54.65-3.5 1.6-.95.63-1.26 1.9-1.26 3.17s.3 2.53 1.27 3.48c.96.64 2.22 1.27 3.5 1.27zM28.53 176.9c1.27 0 2.54-.33 3.5-1.28.94-.95 1.25-2.22 1.25-3.5 0-1.26-.3-2.2-1.26-3.16-.95-.95-2.22-1.58-3.5-1.58-.94 0-2.2.63-3.16 1.58-.95.95-1.27 1.9-1.27 3.17s.3 2.54 1.26 3.5c.95.94 2.22 1.26 3.17 1.26z" stroke="#699cb1" stroke-width=".13" fill="#699cb1"/><path d="M83.6 94.43l7.42 4.77 7.8 5.5 7.7 5.92 8.07 6.77 9.26 8.46 13.28 13.23 80.1 82.8 7.57 7.14M83.62 94.44l-.86-.55M224.8 229.02l.74.7" stroke="#f8b156" stroke-width="2" fill="none"/><path d="M228.4 228.8c0 1.6-1.3 2.9-2.9 2.9-1.6 0-2.9-1.3-2.9-2.9 0-1.6 1.3-2.92 2.9-2.92 1.6 0 2.9 1.3 2.9 2.92zM142.13 139.9c0 1.6-1.3 2.92-2.9 2.92-1.6 0-2.9-1.3-2.9-2.92 0-1.6 1.3-2.9 2.9-2.9 1.6 0 2.9 1.3 2.9 2.9zM115.18 115.92c0 1.6-1.3 2.92-2.9 2.92-1.6 0-2.88-1.3-2.88-2.92 0-1.6 1.3-2.92 2.9-2.92 1.6 0 2.88 1.3 2.88 2.92zM85.74 94.27c0 1.6-1.3 2.92-2.9 2.92-1.6 0-2.9-1.32-2.9-2.93 0-1.6 1.3-2.9 2.9-2.9 1.6 0 2.9 1.3 2.9 2.9z" stroke="#000" stroke-opacity="0" stroke-width="2" fill="#f8b156"/><path d="M223.3 220.66c0 1.66-1.4 3-3.1 3-1.74 0-3.14-1.34-3.14-3s1.4-3 3.13-3c1.7 0 3.1 1.34 3.1 3zM169.13 107.63c0 1.66-1.4 3-3.13 3s-3.13-1.34-3.13-3 1.4-3 3.13-3c1.72 0 3.13 1.34 3.13 3z" stroke="#000" stroke-opacity="0" stroke-width="2" fill="#c92d39"/><path d="M172.96 107.6c0 3.87-2.97 7-6.64 7-3.67 0-6.64-3.13-6.64-7 0-3.86 2.97-7 6.64-7 3.67 0 6.64 3.14 6.64 7z" fill-opacity="0"/><path d="M169.63 113.5l-1.8.92-1.5.2-2.93-.73-.4-.35m-2.33-2.6l-.82-1.74-.17-1.6.67-3.07.24-.32m2.4-2.5l1.8-.9 1.52-.2 2.92.72.4.35m2.34 2.58l.8 1.75.18 1.6-.67 3.1-.25.3" stroke="#333" fill="none"/><path d="M106.7 48.7l22.5 19.95 32.94 31.84 127.84 130.84M106.72 48.72l-.76-.68M289.96 231.32l.72.73" stroke="#699cb1" stroke-width="2" fill="none"/><path d="M293.3 231.3c0 1.6-1.3 2.92-2.9 2.92-1.6 0-2.9-1.3-2.9-2.92 0-1.6 1.3-2.9 2.9-2.9 1.6 0 2.9 1.3 2.9 2.9zM172.1 107.45c0 1.62-1.3 2.92-2.9 2.92-1.6 0-2.9-1.3-2.9-2.92 0-1.6 1.3-2.9 2.9-2.9 1.6 0 2.9 1.3 2.9 2.9zM109.7 48.64c0 1.6-1.3 2.92-2.9 2.92-1.58 0-2.88-1.3-2.88-2.92 0-1.6 1.3-2.9 2.9-2.9 1.6 0 2.9 1.3 2.9 2.9z" stroke="#000" stroke-opacity="0" stroke-width="2" fill="#699cb1"/><path d="M226.55 220.46c0 3.66-3.05 6.62-6.8 6.62s-6.8-2.96-6.8-6.62c0-3.65 3.05-6.6 6.8-6.6s6.8 2.95 6.8 6.6z" fill-opacity="0"/><path d="M223.05 226.1l-2 .86-1.3.12-3.07-.7-.26-.22m-2.4-2.42l-.94-2.03-.12-1.24.73-3 .25-.3m2.5-2.32l2.02-.88 1.28-.1 3.07.7.26.2m2.42 2.43l.93 2 .12 1.26-.73 3-.27.3" stroke="#333" fill="none"/><path d="M317.05.07h165.7v317.28h-165.7z" stroke="#000" stroke-opacity="0" stroke-width="2" fill="#b2b2b2"/><path d="M174.34 108.08l158.75 86.35" fill="none"/><path d="M175.34 108.08c0 .56-.44 1-1 1-.55 0-1-.44-1-1 0-.55.45-1 1-1 .56 0 1 .45 1 1zm3.53 1.92c0 .56-.45 1-1 1s-1-.44-1-1c0-.55.45-1 1-1s1 .45 1 1zm3.53 1.92c0 .55-.45 1-1 1s-1-.45-1-1 .45-1 1-1 1 .45 1 1zm3.53 1.92c0 .55-.45 1-1 1-.56 0-1-.45-1-1s.44-1 1-1c.55 0 1 .45 1 1zm3.52 1.92c0 .55-.44 1-1 1-.55 0-1-.45-1-1s.45-1 1-1c.56 0 1 .45 1 1zm3.53 1.92c0 .55-.45 1-1 1s-1-.45-1-1 .45-1 1-1 1 .45 1 1zm3.53 1.92c0 .55-.44 1-1 1-.54 0-1-.45-1-1s.46-1 1-1c.56 0 1 .45 1 1zm3.54 1.92c0 .55-.45 1-1 1s-1-.45-1-1c0-.56.45-1 1-1s1 .44 1 1zm3.53 1.92c0 .55-.45 1-1 1-.56 0-1-.45-1-1 0-.56.44-1 1-1 .55 0 1 .44 1 1zm3.52 1.9c0 .57-.45 1-1 1-.56 0-1-.43-1-1 0-.54.44-1 1-1 .55 0 1 .46 1 1zm3.52 1.93c0 .56-.45 1-1 1s-1-.44-1-1c0-.55.45-1 1-1s1 .45 1 1zm3.53 1.92c0 .54-.45 1-1 1s-1-.46-1-1c0-.56.45-1 1-1s1 .44 1 1zm3.53 1.9c0 .56-.45 1-1 1-.56 0-1-.44-1-1 0-.54.44-1 1-1 .55 0 1 .46 1 1zm3.52 1.93c0 .55-.44 1-1 1-.55 0-1-.45-1-1s.45-1 1-1c.56 0 1 .45 1 1zm3.53 1.92c0 .55-.45 1-1 1s-1-.45-1-1 .45-1 1-1 1 .45 1 1zm3.53 1.92c0 .55-.45 1-1 1s-1-.45-1-1c0-.56.45-1 1-1s1 .44 1 1zm3.53 1.92c0 .54-.46 1-1 1-.57 0-1-.46-1-1 0-.57.43-1 1-1 .54 0 1 .43 1 1zm3.5 1.9c0 .56-.43 1-1 1-.54 0-1-.44-1-1 0-.55.46-1 1-1 .57 0 1 .45 1 1zm3.54 1.92c0 .56-.45 1-1 1s-1-.44-1-1c0-.55.45-1 1-1s1 .45 1 1zm3.53 1.92c0 .55-.45 1-1 1s-1-.45-1-1 .45-1 1-1 1 .45 1 1zm3.53 1.92c0 .55-.45 1-1 1-.56 0-1-.45-1-1s.44-1 1-1c.55 0 1 .45 1 1zm3.52 1.92c0 .55-.44 1-1 1-.55 0-1-.45-1-1s.45-1 1-1c.56 0 1 .45 1 1zm3.53 1.92c0 .55-.45 1-1 1s-1-.45-1-1 .45-1 1-1 1 .45 1 1zm3.53 1.92c0 .55-.45 1-1 1s-1-.45-1-1 .45-1 1-1 1 .45 1 1zm3.53 1.92c0 .55-.44 1-1 1-.55 0-1-.45-1-1 0-.56.45-1 1-1 .56 0 1 .44 1 1zm3.53 1.92c0 .55-.44 1-1 1-.55 0-1-.45-1-1 0-.56.45-1 1-1 .56 0 1 .44 1 1zm3.53 1.9c0 .57-.45 1-1 1s-1-.43-1-1c0-.54.45-1 1-1s1 .46 1 1zm3.53 1.93c0 .55-.46 1-1 1-.56 0-1-.45-1-1 0-.56.44-1 1-1 .54 0 1 .44 1 1zm3.52 1.9c0 .56-.45 1-1 1-.56 0-1-.44-1-1 0-.54.44-1 1-1 .55 0 1 .46 1 1zm3.52 1.93c0 .55-.44 1-1 1-.55 0-1-.45-1-1s.45-1 1-1c.56 0 1 .45 1 1zm3.53 1.92c0 .55-.45 1-1 1s-1-.45-1-1 .45-1 1-1 1 .45 1 1zm3.53 1.92c0 .55-.45 1-1 1s-1-.45-1-1 .45-1 1-1 1 .45 1 1zm3.53 1.92c0 .54-.45 1-1 1s-1-.46-1-1c0-.57.45-1 1-1s1 .43 1 1zm3.53 1.9c0 .56-.45 1-1 1-.56 0-1-.44-1-1 0-.55.44-1 1-1 .55 0 1 .45 1 1zm3.52 1.92c0 .56-.44 1-1 1-.55 0-1-.44-1-1 0-.55.45-1 1-1 .56 0 1 .45 1 1zm3.53 1.92c0 .56-.44 1-1 1-.54 0-1-.44-1-1 0-.55.46-1 1-1 .56 0 1 .45 1 1zm3.54 1.92c0 .55-.45 1-1 1s-1-.45-1-1 .45-1 1-1 1 .45 1 1zm3.53 1.92c0 .55-.45 1-1 1-.56 0-1-.45-1-1s.44-1 1-1c.55 0 1 .45 1 1zm3.52 1.92c0 .55-.45 1-1 1-.56 0-1-.45-1-1s.44-1 1-1c.55 0 1 .45 1 1zm3.52 1.92c0 .55-.45 1-1 1s-1-.45-1-1 .45-1 1-1 1 .45 1 1zm3.53 1.92c0 .55-.45 1-1 1s-1-.45-1-1 .45-1 1-1 1 .45 1 1zm3.53 1.92c0 .55-.45 1-1 1-.56 0-1-.45-1-1 0-.56.44-1 1-1 .55 0 1 .44 1 1zm3.52 1.92c0 .55-.44 1-1 1-.55 0-1-.45-1-1 0-.56.45-1 1-1 .56 0 1 .44 1 1zm3.53 1.9c0 .57-.45 1-1 1s-1-.43-1-1c0-.54.45-1 1-1s1 .46 1 1zm3.53 1.93c0 .56-.45 1-1 1s-1-.44-1-1c0-.54.45-1 1-1s1 .46 1 1z" fill="#333"/><path d="M174.84 107.22l-.95 1.76-.65-.35.22-1-.14-1.23zM334.1 193.84l-.14 1.03.07 1.2-1.44-.77.94-1.76z" fill="#333"/><path d="M228.02 220.23L333 195.13" fill="none"/><path d="M229.02 220.23c0 .55-.45 1-1 1s-1-.45-1-1 .45-1 1-1 1 .45 1 1zm3.9-.93c0 .55-.46 1-1 1-.56 0-1-.45-1-1s.44-1 1-1c.54 0 1 .45 1 1zm3.88-.93c0 .55-.45 1-1 1-.56 0-1-.45-1-1s.44-1 1-1c.55 0 1 .45 1 1zm3.88-.93c0 .56-.44 1-1 1-.55 0-1-.44-1-1 0-.55.45-1 1-1 .56 0 1 .45 1 1zm3.9-.93c0 .57-.46 1-1 1-.56 0-1-.43-1-1 0-.54.44-1 1-1 .54 0 1 .46 1 1zm3.88-.92c0 .56-.45 1-1 1s-1-.44-1-1c0-.55.45-1 1-1s1 .45 1 1zm3.9-.92c0 .55-.46 1-1 1-.56 0-1-.45-1-1 0-.56.44-1 1-1 .54 0 1 .44 1 1zm3.88-.93c0 .55-.45 1-1 1-.56 0-1-.45-1-1 0-.56.44-1 1-1 .55 0 1 .44 1 1zm3.88-.93c0 .55-.44 1-1 1-.55 0-1-.45-1-1 0-.56.45-1 1-1 .56 0 1 .44 1 1zm3.9-.93c0 .55-.46 1-1 1-.56 0-1-.45-1-1s.44-1 1-1c.54 0 1 .45 1 1zm3.88-.93c0 .55-.45 1-1 1s-1-.45-1-1 .45-1 1-1 1 .45 1 1zm3.9-.93c0 .56-.46 1-1 1-.57 0-1-.44-1-1 0-.54.43-1 1-1 .54 0 1 .46 1 1zm3.88-.92c0 .55-.45 1-1 1-.56 0-1-.45-1-1s.44-1 1-1c.55 0 1 .45 1 1zm3.88-.93c0 .55-.44 1-1 1-.55 0-1-.45-1-1s.45-1 1-1c.56 0 1 .45 1 1zm3.9-.93c0 .55-.46 1-1 1-.56 0-1-.45-1-1s.44-1 1-1c.54 0 1 .45 1 1zm3.88-.93c0 .54-.45 1-1 1s-1-.46-1-1c0-.56.45-1 1-1s1 .44 1 1zm3.9-.94c0 .56-.46 1-1 1-.57 0-1-.44-1-1 0-.55.43-1 1-1 .54 0 1 .45 1 1zm3.87-.93c0 .56-.43 1-1 1-.54 0-1-.44-1-1 0-.55.46-1 1-1 .57 0 1 .45 1 1zm3.9-.93c0 .56-.45 1-1 1s-1-.44-1-1c0-.55.45-1 1-1s1 .45 1 1zm3.9-.92c0 .55-.46 1-1 1-.56 0-1-.45-1-1 0-.56.44-1 1-1 .54 0 1 .44 1 1zm3.88-.93c0 .55-.45 1-1 1s-1-.45-1-1c0-.56.45-1 1-1s1 .44 1 1zm3.9-.93c0 .55-.46 1-1 1-.57 0-1-.45-1-1 0-.56.43-1 1-1 .54 0 1 .44 1 1zm3.87-.93c0 .54-.44 1-1 1-.55 0-1-.46-1-1 0-.56.45-1 1-1 .56 0 1 .44 1 1zm3.9-.94c0 .55-.46 1-1 1-.56 0-1-.45-1-1s.44-1 1-1c.54 0 1 .45 1 1zm3.88-.93c0 .55-.45 1-1 1s-1-.45-1-1 .45-1 1-1 1 .45 1 1zm3.9-.93c0 .55-.46 1-1 1-.57 0-1-.45-1-1s.43-1 1-1c.54 0 1 .45 1 1zm3.87-.93c0 .55-.44 1-1 1-.55 0-1-.45-1-1s.45-1 1-1c.56 0 1 .45 1 1z" fill="#333"/><path d="M228.28 221.2l-1.5.35.27-1.05-.1-1.04.86-.2zM333.96 194.87l.06 1.05-.82.2-.47-1.94 1.37-.33z" fill="#333"/><path d="M76.4 49.03l214.63 213.13" fill="none"/><path d="M76.4 49.03l2.16 2.13M81.42 54l4.3 4.26m2.85 2.84l4.3 4.27m2.86 2.84l4.3 4.27m2.85 2.84l4.3 4.27m2.85 2.85l4.3 4.26m2.86 2.84l4.28 4.26m2.86 2.85l4.3 4.26m2.86 2.83l4.3 4.26m2.85 2.83l4.3 4.27m2.85 2.84l4.3 4.26m2.86 2.84l4.3 4.27m2.85 2.85l4.3 4.26m2.87 2.85l4.3 4.26m2.85 2.86l4.3 4.26m2.86 2.84l4.3 4.26m2.85 2.84l4.3 4.27m2.85 2.84l4.3 4.26m2.86 2.84l4.3 4.27m2.85 2.84l4.28 4.26m2.87 2.84l4.3 4.26m2.85 2.85l4.3 4.25m2.85 2.84l4.3 4.25m2.86 2.84l4.3 4.26m2.86 2.84l4.3 4.26m2.86 2.84l4.3 4.27m2.85 2.84l4.3 4.27m2.85 2.84l4.3 4.27m2.86 2.85l4.3 4.26m2.85 2.84l4.3 4.26m2.86 2.84l2.13 2.14M76.43 49.04l-.73-.72M291 262.14l.74.72" stroke="#666" stroke-width="2" fill="none"/><path d="M355.56 211.9c-11.38 0-20.6-7.6-20.6-17 0-7.5 5.58-13.82 14.23-16.14-.5-22.06 33.8-26.3 47.53-17.82 6.87-12.74 41.18-8.5 41.18 4.25 20.6-4.26 41.2 12.73 27.47 33.96 13.72 16.98 0 38.2-27.46 29.72-6.85 11.04-34.3 11.04-41.17 0-13.72 8.5-41.17 4.24-41.17-17z" stroke="#333" stroke-width="2" fill="#fff"/><use xlink:href="#a" transform="matrix(1,0,0,1,339.9665061957653,157.45030859149608) translate(11.947057291666662 27.0703125)"/><use xlink:href="#b" transform="matrix(1,0,0,1,339.9665061957653,157.45030859149608) translate(50.18924479166667 27.0703125)"/><use xlink:href="#c" transform="matrix(1,0,0,1,339.9665061957653,157.45030859149608) translate(75.15669270833334 27.0703125)"/><use xlink:href="#d" transform="matrix(1,0,0,1,339.9665061957653,157.45030859149608) translate(7.651692708333329 40.80078125)"/><use xlink:href="#e" transform="matrix(1,0,0,1,339.9665061957653,157.45030859149608) translate(69.14908854166666 40.80078125)"/><use xlink:href="#f" transform="matrix(1,0,0,1,339.9665061957653,157.45030859149608) translate(62.36567708333334 54.53125)"/><path d="M349.25 58.4c0-3.86 3.13-7 7-7h86c3.86 0 7 3.14 7 7v53.2c0 3.87-3.14 7-7 7h-86c-3.87 0-7-3.13-7-7z" stroke="#000" stroke-opacity="0" stroke-width="2" fill="#999"/><path d="M366.25 54.4h83v60.67h-83z" stroke="#000" stroke-opacity="0" stroke-width="2" fill="#fff" fill-opacity="0"/><g><use xlink:href="#g" transform="matrix(1,0,0,1,371.24556199924825,59.401790357841406) translate(0 13.854166666666668)"/><use xlink:href="#h" transform="matrix(1,0,0,1,371.24556199924825,59.401790357841406) translate(36.96296296296297 13.854166666666668)"/><use xlink:href="#g" transform="matrix(1,0,0,1,371.24556199924825,59.401790357841406) translate(0 29.854166666666668)"/><use xlink:href="#i" transform="matrix(1,0,0,1,371.24556199924825,59.401790357841406) translate(36.96296296296297 29.854166666666668)"/><use xlink:href="#j" transform="matrix(1,0,0,1,371.24556199924825,59.401790357841406) translate(0 45.85416666666667)"/></g><path d="M367.95 85.45c0 3.48-2.82 6.3-6.3 6.3-3.47 0-6.3-2.82-6.3-6.3s2.83-6.3 6.3-6.3c3.48 0 6.3 2.82 6.3 6.3z" stroke="#000" stroke-opacity="0" stroke-width="2" fill="#699cb1"/><path d="M367.48 69.7c0 3.48-2.82 6.3-6.3 6.3s-6.3-2.82-6.3-6.3 2.82-6.3 6.3-6.3 6.3 2.82 6.3 6.3z" stroke="#000" stroke-opacity="0" stroke-width="2" fill="#f8b156"/><path d="M368.25 101.26c0 3.48-2.82 6.3-6.3 6.3-3.47 0-6.3-2.82-6.3-6.3s2.83-6.3 6.3-6.3c3.48 0 6.3 2.82 6.3 6.3z" stroke="#000" stroke-opacity="0" stroke-width="2" fill="#c92d39"/><defs><path fill="#333" d="M265-183c24-3 411-24 529-24 43 0 64 21 64 62 0 33-21 57-64 73-29 11-100 18-214 23-160 5-288 29-404 49-45 8-92-38-92-85 0-111 6-482 6-593s-20-482-20-593c0-60 50-99 109-99 91 0 137 74 137 223 0 227-17 549-51 964" id="k"/><path fill="#333" d="M1002-1224c199 221 157 707 13 954C887-50 697 45 430-27 209-87 49-300 48-570c0-188 60-364 179-529 131-180 286-270 466-270 124 0 224 51 309 145zM637-166c206 4 339-230 339-448 0-208-88-441-215-512-56-31-146 28-205 8-197 109-379 436-268 727 46 121 189 222 349 225" id="l"/><path fill="#333" d="M852-1348c89-38 201 51 138 140-21 30-79 83-179 157-112 82-231 190-355 324 140 148 235 252 286 312C880-252 949-141 949-82c0 44-49 80-92 77-97-6-238-231-304-318-9-11-86-97-230-256-16 14-32 19-48 14-11 247-16 380-16 399C259-53 231 3 174 3c-37 0-58-18-66-54-2-9-4-42-4-97 0-182-36-777-36-958 0-175 47-263 142-263 69 0 104 36 104 109 0 95-27 423-31 489 91-96 312-337 480-518 28-30 59-46 89-59" id="m"/><path fill="#333" d="M635-1365c141 0 276 102 276 245 0 97-36 145-109 145-71 0-113-48-126-145-11-5-23-8-36-8-105-7-360 116-360 218 0 51 47 112 142 181 89 65 181 125 266 193 98 79 141 166 141 249C829-122 616 3 445 3 319 3 209-36 114-113c18-107 40-165 101-129 79 45 151 68 218 68 64 0 193-40 193-97 0-27-51-74-152-142-136-92-229-162-279-210C94-720 43-815 43-910c0-246 337-455 592-455" id="n"/><g id="a"><use transform="matrix(0.006510416666666667,0,0,0.006510416666666667,0,0)" xlink:href="#k"/><use transform="matrix(0.006510416666666667,0,0,0.006510416666666667,5.611979166666667,0)" xlink:href="#l"/><use transform="matrix(0.006510416666666667,0,0,0.006510416666666667,13.37890625,0)" xlink:href="#l"/><use transform="matrix(0.006510416666666667,0,0,0.006510416666666667,21.145833333333336,0)" xlink:href="#m"/><use transform="matrix(0.006510416666666667,0,0,0.006510416666666667,28.079427083333336,0)" xlink:href="#n"/></g><path fill="#333" d="M265-183c24-3 411-24 529-24 43 0 64 21 64 62 0 33-21 57-64 73-29 11-100 18-214 23-160 5-288 29-404 49-45 8-92-38-92-85 0-111 6-482 6-593s-20-482-20-593c0-60 50-99 109-99 91 0 137 74 137 223 0 227-17 549-51 964" id="o"/><path fill="#333" d="M145-1377c172 2 153 286 159 488 3 121-40 515-41 614-1 120 5 278-101 278-45 0-68-24-68-71 0-87 24-375 24-461 0-208-11-371-33-488-25-135-37-213-37-232 0-85 32-128 97-128" id="p"/><path fill="#333" d="M106-1167c0-63 50-127 116-118 107-51 277-77 510-77 101 0 152 34 152 102 0 105-122 118-253 118-161 0-142 7-283 39 18 119 10 207-5 340 87-25 321-29 399 0 47 17 70 47 70 89 0 48-39 106-88 104-148-10-240-9-408 5-11 79-25 197-41 355 209-13 372-20 488-20 47 0 70 24 70 73 0 33-16 62-53 75C668-43 385-38 198 0 102 20 69-48 65-186c-5-141 56-608 56-748 0-44-15-189-15-233" id="q"/><g id="b"><use transform="matrix(0.006510416666666667,0,0,0.006510416666666667,0,0)" xlink:href="#o"/><use transform="matrix(0.006510416666666667,0,0,0.006510416666666667,5.611979166666667,0)" xlink:href="#p"/><use transform="matrix(0.006510416666666667,0,0,0.006510416666666667,7.936197916666667,0)" xlink:href="#m"/><use transform="matrix(0.006510416666666667,0,0,0.006510416666666667,14.869791666666668,0)" xlink:href="#q"/></g><path fill="#333" d="M435-695c-1-129-15-310 0-428-76 1-190 6-343 15-45-58-68-106-68-145 0-20 14-37 44-44 198-46 599-77 780-77 111 0 166 42 166 125 0 94-123 136-369 126 1 140-30 347-43 490-12 127-23 318-44 573-37 27-71 40-101 40-21 0-32-13-32-40-1-119 11-516 10-635" id="r"/><path fill="#333" d="M128-113c-3-233 30-804 15-1022-55-19-82-55-82-106 0-136 184-132 345-112 217 27 377 56 480 99 179 75 268 194 268 358 0 174-126 318-377 432 4 13 21 76 52 189 21 77 45 138 72 183-68 132-120 145-184 0-19-45-36-93-58-138-18-36-50-87-89-157-95 27-186 45-273 52-7 67-11 151-14 250-41 27-78 41-112 41-29 0-43-23-43-69zm806-747c0-65-28-113-79-145-96-61-251-100-469-113-3 83-26 296-70 638 129-23 254-63 373-121 163-79 245-165 245-259" id="s"/><path fill="#333" d="M126-15c-39-1-74-34-66-82 43-258 225-1081 319-1209 45-61 131-64 189-20s103 217 140 307c55 134 138 336 243 608 20 23 28 50 25 83 43 127 65 205 65 234 0 38-38 70-77 70-29 0-56-17-73-53-16-35-35-90-62-162-151 21-429-1-582-3-10 42-26 104-59 181-14 32-38 46-62 46zm608-434c-57-118-140-295-251-532-61 140-121 369-171 537 241-7 262-11 422-5" id="t"/><path fill="#333" d="M1063-1007c-1 52 8 225 7 277-6 318 15 735-249 735-95 0-185-56-266-171-89-125-175-340-260-546-7 214-11 328-12 342-9 161-25 267-49 317-15 32-34 48-57 48-39 0-77-43-68-80 66-263-44-798-44-1079 0-132 42-198 126-198 74 0 130 46 171 137 6 14 33 90 70 232 51 194 278 770 401 829 37-50 56-144 56-281 0-157-16-348-48-572-11-80-17-135-17-166-2-78 43-158 116-158 82 0 123 111 123 334" id="u"/><path fill="#333" d="M758-1362c233-1 360 149 360 389 0 162-49 243-147 243-67 0-101-43-101-130-1-24 7-113 6-137 0-90-21-131-105-131-166 0-314 129-445 386-59 116-89 218-89 305 0 244 304 318 553 254-5-48-7-99-2-148-52 2-88 3-107 3-44 2-80-39-80-83 0-65 74-98 222-98 113 0 185 6 216 19 41 16 62 42 62 79 0 53-41 99-97 88-20 115-15 162-9 267 3 50-38 97-89 97s-81-23-89-70C728-4 639 9 548 9 256 9 43-166 43-452c0-193 70-389 210-587 152-215 320-323 505-323" id="v"/><g id="c"><use transform="matrix(0.006510416666666667,0,0,0.006510416666666667,0,0)" xlink:href="#r"/><use transform="matrix(0.006510416666666667,0,0,0.006510416666666667,6.7578125,0)" xlink:href="#s"/><use transform="matrix(0.006510416666666667,0,0,0.006510416666666667,14.654947916666668,0)" xlink:href="#t"/><use transform="matrix(0.006510416666666667,0,0,0.006510416666666667,21.796875,0)" xlink:href="#p"/><use transform="matrix(0.006510416666666667,0,0,0.006510416666666667,24.12109375,0)" xlink:href="#u"/><use transform="matrix(0.006510416666666667,0,0,0.006510416666666667,31.529947916666668,0)" xlink:href="#p"/><use transform="matrix(0.006510416666666667,0,0,0.006510416666666667,33.85416666666667,0)" xlink:href="#u"/><use transform="matrix(0.006510416666666667,0,0,0.006510416666666667,41.263020833333336,0)" xlink:href="#v"/></g><path fill="#333" d="M311-1256c0 83-42 364-38 447 0 7 2 78 5 215 140 37 406-21 569-12-37-226-43-517 17-667 36-88 124-109 196-53 25 21 37 46 37 77 0 187-61 373-61 457 0 119 20 513 20 632 0 109-28 163-83 163-35 0-62-23-67-71-12-110-6-189-34-352-267 38-378 57-594 24 0 200-9 320-25 360-25 64-100 48-118-17-9-35-17-117-17-249 0-246-92-767-34-990 14-55 49-82 97-82 62 0 130 54 130 118" id="w"/><path fill="#333" d="M56-1239c0-84 338-118 465-118 163 0 297 20 401 63 147 60 220 161 220 301 0 108-40 210-125 302-129 138-412 247-671 356L321-85c-45 31-86 46-121 46-27 0-40-15-40-46-3-105 29-453 29-558 0-137-8-293-23-468l-21 5c-59-49-89-93-89-133zm888 246c1-130-259-169-429-166-41 0-80 1-117 4 4 193-9 353-36 665 172-69 262-106 271-111 91-45 166-108 225-187 57-77 86-145 86-205" id="x"/><path fill="#333" d="M285 5c-52 16-97-32-97-78 0-43 22-68 65-75-24-311-48-715-89-984-54 0-109-45-109-100 0-91 69-137 206-137 230 0 430 37 599 111 225 98 338 247 338 446 0 205-105 384-316 539C729-160 529-70 285 5zm695-780c0-117-71-207-212-269-99-43-220-70-365-79 28 274-1 651-4 930 214-71 370-168 468-292 75-95 113-192 113-290" id="y"/><g id="d"><use transform="matrix(0.006510416666666667,0,0,0.006510416666666667,0,0)" xlink:href="#w"/><use transform="matrix(0.006510416666666667,0,0,0.006510416666666667,7.55859375,0)" xlink:href="#t"/><use transform="matrix(0.006510416666666667,0,0,0.006510416666666667,14.700520833333334,0)" xlink:href="#x"/><use transform="matrix(0.006510416666666667,0,0,0.006510416666666667,22.24609375,0)" xlink:href="#x"/><use transform="matrix(0.006510416666666667,0,0,0.006510416666666667,29.791666666666668,0)" xlink:href="#q"/><use transform="matrix(0.006510416666666667,0,0,0.006510416666666667,35.970052083333336,0)" xlink:href="#u"/><use transform="matrix(0.006510416666666667,0,0,0.006510416666666667,43.37890625,0)" xlink:href="#q"/><use transform="matrix(0.006510416666666667,0,0,0.006510416666666667,49.557291666666664,0)" xlink:href="#y"/></g><path fill="#333" d="M1412-1368c78-58 184-11 182 83 0 27-17 77-51 150-92 195-261 818-283 1067-39 26-92 39-159 39-19 0-31-14-43-39-13-28-39-191-41-207-15-115-181-518-198-585-69 264-147 605-242 821-107 22-129 39-161-84-75-284-146-499-288-855-55-139-84-233-84-282-1-57 42-101 99-100 33 0 65 17 95 51s63 136 103 307c26 111 85 353 176 724 64-253 102-649 169-917 21-84 78-167 166-167 33 0 60 17 85 50 35 47 59 231 72 322 18 122 129 508 146 618 33-261 98-602 178-862 22-72 53-114 79-134" id="z"/><path fill="#333" d="M821-1184c-6-90 39-179 121-178 53 0 89 28 106 85 18 22 21 432 22 384 0 219-32 408-97 567C884-107 747 3 561 3 331 4 153-224 96-423c-67-232 1-585-36-854 60-47 110-71 150-71 21 0 40 14 48 44 65 252-50 793 59 1012 41 83 134 121 265 121 218 0 270-151 270-396 0-260-20-446-31-617" id="A"/><g id="e"><use transform="matrix(0.006510416666666667,0,0,0.006510416666666667,0,0)" xlink:href="#z"/><use transform="matrix(0.006510416666666667,0,0,0.006510416666666667,10.690104166666668,0)" xlink:href="#p"/><use transform="matrix(0.006510416666666667,0,0,0.006510416666666667,13.014322916666668,0)" xlink:href="#r"/><use transform="matrix(0.006510416666666667,0,0,0.006510416666666667,19.772135416666668,0)" xlink:href="#w"/><use transform="matrix(0.006510416666666667,0,0,0.006510416666666667,27.330729166666668,0)" xlink:href="#l"/><use transform="matrix(0.006510416666666667,0,0,0.006510416666666667,35.09765625,0)" xlink:href="#A"/><use transform="matrix(0.006510416666666667,0,0,0.006510416666666667,42.44140625,0)" xlink:href="#r"/></g><path fill="#333" d="M213-364c-44 1-85-37-83-81 11-215 77-488 111-697 15-93 47-154 83-187 75-67 197-20 178 102-41 270-110 506-215 805-14 40-43 58-74 58zm-22 128c52 0 103 47 101 99 0 1-10 49-14 67-10 40-40 60-87 60-62 0-112-53-112-115 0-52 60-111 112-111" id="B"/><g id="f"><use transform="matrix(0.006510416666666667,0,0,0.006510416666666667,0,0)" xlink:href="#A"/><use transform="matrix(0.006510416666666667,0,0,0.006510416666666667,7.34375,0)" xlink:href="#n"/><use transform="matrix(0.006510416666666667,0,0,0.006510416666666667,13.587239583333334,0)" xlink:href="#B"/></g><path fill="#fff" d="M212-179c-10-28-35-45-73-45-59 0-87 40-87 99 0 60 29 101 89 101 43 0 62-24 78-52l27 14C228-24 195 4 139 4 59 4 22-46 18-125c-6-104 99-153 187-111 19 9 31 26 39 46" id="C"/><path fill="#fff" d="M24 0v-261h32V0H24" id="D"/><path fill="#fff" d="M141-36C126-15 110 5 73 4 37 3 15-17 15-53c-1-64 63-63 125-63 3-35-9-54-41-54-24 1-41 7-42 31l-33-3c5-37 33-52 76-52 45 0 72 20 72 64v82c-1 20 7 32 28 27v20c-31 9-61-2-59-35zM48-53c0 20 12 33 32 33 41-3 63-29 60-74-43 2-92-5-92 41" id="E"/><path fill="#fff" d="M135-143c-3-34-86-38-87 0 15 53 115 12 119 90S17 21 10-45l28-5c4 36 97 45 98 0-10-56-113-15-118-90-4-57 82-63 122-42 12 7 21 19 24 35" id="F"/><g id="g"><use transform="matrix(0.03703703703703704,0,0,0.03703703703703704,0,0)" xlink:href="#C"/><use transform="matrix(0.03703703703703704,0,0,0.03703703703703704,9.592592592592593,0)" xlink:href="#D"/><use transform="matrix(0.03703703703703704,0,0,0.03703703703703704,12.518518518518517,0)" xlink:href="#E"/><use transform="matrix(0.03703703703703704,0,0,0.03703703703703704,19.925925925925927,0)" xlink:href="#F"/><use transform="matrix(0.03703703703703704,0,0,0.03703703703703704,26.592592592592595,0)" xlink:href="#F"/></g><path fill="#fff" d="M101-251c68 0 85 55 85 127S166 4 100 4C33 4 14-52 14-124c0-73 17-127 87-127zm-1 229c47 0 54-49 54-102s-4-102-53-102c-51 0-55 48-55 102 0 53 5 102 54 102" id="G"/><use transform="matrix(0.03703703703703704,0,0,0.03703703703703704,0,0)" xlink:href="#G" id="h"/><path fill="#fff" d="M27 0v-27h64v-190l-56 39v-29l58-41h29v221h61V0H27" id="H"/><use transform="matrix(0.03703703703703704,0,0,0.03703703703703704,0,0)" xlink:href="#H" id="i"/><path fill="#fff" d="M232-93c-1 65-40 97-104 97C67 4 28-28 28-90v-158h33c8 89-33 224 67 224 102 0 64-133 71-224h33v155" id="I"/><path fill="#fff" d="M117-194c89-4 53 116 60 194h-32v-121c0-31-8-49-39-48C34-167 62-67 57 0H25l-1-190h30c1 10-1 24 2 32 11-22 29-35 61-36" id="J"/><path fill="#fff" d="M210-169c-67 3-38 105-44 169h-31v-121c0-29-5-50-35-48C34-165 62-65 56 0H25l-1-190h30c1 10-1 24 2 32 10-44 99-50 107 0 11-21 27-35 58-36 85-2 47 119 55 194h-31v-121c0-29-5-49-35-48" id="K"/><path fill="#fff" d="M115-194c55 1 70 41 70 98S169 2 115 4C84 4 66-9 55-30l1 105H24l-1-265h31l2 30c10-21 28-34 59-34zm-8 174c40 0 45-34 45-75s-6-73-45-74c-42 0-51 32-51 76 0 43 10 73 51 73" id="L"/><path fill="#fff" d="M100-194c63 0 86 42 84 106H49c0 40 14 67 53 68 26 1 43-12 49-29l28 8c-11 28-37 45-77 45C44 4 14-33 15-96c1-61 26-98 85-98zm52 81c6-60-76-77-97-28-3 7-6 17-6 28h103" id="M"/><path fill="#fff" d="M85-194c31 0 48 13 60 33l-1-100h32l1 261h-30c-2-10 0-23-3-31C134-8 116 4 85 4 32 4 16-35 15-94c0-66 23-100 70-100zm9 24c-40 0-46 34-46 75 0 40 6 74 45 74 42 0 51-32 51-76 0-42-9-74-50-73" id="N"/><g id="j"><use transform="matrix(0.03703703703703704,0,0,0.03703703703703704,0,0)" xlink:href="#I"/><use transform="matrix(0.03703703703703704,0,0,0.03703703703703704,9.592592592592593,0)" xlink:href="#J"/><use transform="matrix(0.03703703703703704,0,0,0.03703703703703704,17,0)" xlink:href="#F"/><use transform="matrix(0.03703703703703704,0,0,0.03703703703703704,23.66666666666667,0)" xlink:href="#E"/><use transform="matrix(0.03703703703703704,0,0,0.03703703703703704,31.07407407407408,0)" xlink:href="#K"/><use transform="matrix(0.03703703703703704,0,0,0.03703703703703704,42.14814814814815,0)" xlink:href="#L"/><use transform="matrix(0.03703703703703704,0,0,0.03703703703703704,49.55555555555556,0)" xlink:href="#D"/><use transform="matrix(0.03703703703703704,0,0,0.03703703703703704,52.48148148148148,0)" xlink:href="#M"/><use transform="matrix(0.03703703703703704,0,0,0.03703703703703704,59.888888888888886,0)" xlink:href="#N"/></g></defs></g></svg>