<svg xmlns="http://www.w3.org/2000/svg" xmlns:xlink="http://www.w3.org/1999/xlink" xmlns:lucid="lucid" width="522.71" height="357.28"><g transform="translate(20 20)" lucid:page-tab-id="0_0"><path d="M0 0h1870.4v1323.2H0z" fill="#fff"/><path d="M317 0h165.7v317.28H317z" stroke="#000" stroke-opacity="0" stroke-width="2" fill="#b2b2b2"/><path d="M0 317h317V0H0z" stroke="#999" stroke-width="1.33" fill="#fff"/><path d="M9.5 307.5h298V9.5H9.5z" stroke="#999" stroke-width="1.33" fill="#fff"/><path d="M197.17 116.97c1.27 0 2.54-.63 3.5-1.27.94-.95 1.26-2.2 1.26-3.48 0-1.27-.32-2.54-1.27-3.17-.95-.95-2.22-1.6-3.5-1.6-1.25 0-2.2.65-3.16 1.6-.95.63-1.58 1.9-1.58 3.17s.63 2.53 1.58 3.48c.95.64 1.9 1.27 3.17 1.27zM247.58 239.34c1.26 0 2.53-.64 3.48-1.6.96-.94 1.27-1.9 1.27-3.16 0-1.27-.3-2.54-1.27-3.5-.95-.94-2.22-1.26-3.48-1.26-.95 0-2.22.32-3.17 1.27-.94.94-1.26 2.2-1.26 3.48 0 1.27.32 2.22 1.27 3.17.96.95 2.23 1.6 3.18 1.6zM123 63.72c.95 0 2.22-.32 3.17-1.27.95-.95 1.26-2.22 1.26-3.5 0-1.26-.3-2.2-1.26-3.16-.95-.96-2.22-1.28-3.17-1.28-1.27 0-2.54.32-3.5 1.27-.94.94-1.26 1.9-1.26 3.16 0 1.27.32 2.54 1.27 3.5.96.94 2.23 1.26 3.5 1.26zM213.34 61.18c.95 0 2.22-.63 3.17-1.27.96-.94 1.28-2.2 1.28-3.47s-.32-2.54-1.27-3.17c-.94-.95-2.2-1.6-3.16-1.6-1.27 0-2.53.65-3.5 1.6-.94.63-1.25 1.9-1.25 3.17 0 1.26.3 2.53 1.25 3.48.96.65 2.22 1.28 3.5 1.28zM260.9 263.1c1.26 0 2.53-.62 3.48-1.26.95-.95 1.27-2.22 1.27-3.5 0-1.25-.32-2.52-1.27-3.15-.95-.97-2.22-1.6-3.5-1.6-1.26 0-2.2.63-3.16 1.6-.95.62-1.27 1.9-1.27 3.15 0 1.27.32 2.54 1.27 3.5.95.63 1.9 1.26 3.17 1.26zM181.32 122.36c1.27 0 2.54-.63 3.17-1.58.94-.64 1.58-1.9 1.58-3.17 0-1.26-.64-2.53-1.6-3.48-.62-.63-1.9-1.27-3.16-1.27-1.26 0-2.53.64-3.48 1.27-.64.95-1.27 2.22-1.27 3.5 0 1.25.63 2.52 1.27 3.16.95.95 2.22 1.58 3.48 1.58z" stroke="#f8b156" stroke-width=".13" fill="#f8b156"/><path d="M130.92 63.72c1.27 0 2.22-.32 3.17-1.27.94-.95 1.58-2.22 1.58-3.5 0-1.26-.64-2.2-1.6-3.16-.94-.96-1.9-1.28-3.16-1.28-1.27 0-2.53.32-3.5 1.27-.94.94-1.25 1.9-1.25 3.16 0 1.27.3 2.54 1.26 3.5.96.94 2.22 1.26 3.5 1.26zM149.3 61.18c1.27 0 2.54-.63 3.5-1.27.94-.94 1.26-2.2 1.26-3.47s-.3-2.54-1.27-3.17c-.96-.95-2.23-1.6-3.5-1.6-1.26 0-2.2.65-3.16 1.6-.95.63-1.6 1.9-1.6 3.17 0 1.26.65 2.53 1.6 3.48.95.65 1.9 1.28 3.17 1.28zM242.5 196.54c1.27 0 2.22-.32 3.18-1.27.95-.95 1.58-2.22 1.58-3.17 0-1.27-.63-2.53-1.58-3.5-.96-.94-1.9-1.25-3.18-1.25-1.26 0-2.53.3-3.48 1.26-.95.97-1.27 2.23-1.27 3.5 0 .95.32 2.22 1.27 3.17.95.95 2.22 1.27 3.48 1.27zM93.52 90.34c1.26 0 2.53-.3 3.48-1.26.95-.95 1.27-2.22 1.27-3.5 0-1.26-.32-2.2-1.27-3.16-.95-.95-2.22-1.58-3.48-1.58-1.27 0-2.22.63-3.17 1.58-.96.95-1.6 1.9-1.6 3.17 0 1.26.64 2.53 1.6 3.48.95.95 1.9 1.27 3.17 1.27zM80.2 82.42c1.27 0 2.54-.63 3.5-1.27.94-.95 1.26-2.22 1.26-3.5 0-1.25-.32-2.52-1.27-3.16-.96-.96-2.23-1.6-3.5-1.6s-2.22.64-3.17 1.6c-.95.63-1.27 1.9-1.27 3.16 0 1.27.32 2.54 1.27 3.5.95.63 1.9 1.26 3.17 1.26zM210.5 84.96c1.26 0 2.52-.32 3.48-1.27.63-.96 1.26-2.23 1.26-3.5 0-.95-.63-2.22-1.26-3.17-.96-.95-2.22-1.27-3.5-1.27-1.26 0-2.53.32-3.16 1.27-.95.95-1.6 2.22-1.6 3.17 0 1.27.65 2.54 1.6 3.5.63.94 1.9 1.26 3.17 1.26zM152.16 124.9c1.27 0 2.22-.32 3.17-1.27.95-.95 1.58-2.22 1.58-3.5 0-1.25-.62-2.52-1.57-3.16-.95-.95-1.9-1.58-3.17-1.58s-2.54.62-3.5 1.57c-.94.64-1.25 1.9-1.25 3.17s.32 2.54 1.27 3.5c.95.94 2.22 1.26 3.5 1.26zM245.04 32.02c1.27 0 2.54-.64 3.5-1.6.62-.62 1.26-1.9 1.26-3.16 0-1.27-.64-2.53-1.27-3.5-.95-.62-2.22-1.25-3.5-1.25-1.26 0-2.53.64-3.16 1.27-.95.96-1.58 2.22-1.58 3.5 0 1.26.62 2.53 1.57 3.16.63.95 1.9 1.6 3.17 1.6zM260.9 164.84c1.26 0 2.53-.63 3.48-1.6.95-.62 1.27-1.9 1.27-3.16 0-1.26-.32-2.53-1.27-3.48-.95-.64-2.22-1.27-3.5-1.27-1.26 0-2.2.63-3.16 1.27-.95.95-1.27 2.22-1.27 3.5 0 1.25.32 2.52 1.27 3.16.95.95 1.9 1.58 3.17 1.58zM109.68 98.27c1.27 0 2.22-.32 3.17-1.27.95-.95 1.27-2.22 1.27-3.48 0-1.27-.32-2.22-1.27-3.17-.95-.96-1.9-1.27-3.17-1.27s-2.53.3-3.48 1.27c-.96.95-1.27 1.9-1.27 3.17 0 1.26.3 2.53 1.27 3.48.95.95 2.2 1.27 3.48 1.27zM226.34 149c1.27 0 2.53-.64 3.48-1.6.96-.95 1.27-1.9 1.27-3.16 0-1.27-.32-2.54-1.28-3.5-.95-.94-2.2-1.26-3.48-1.26-.95 0-2.22.32-3.17 1.27-.95.95-1.27 2.22-1.27 3.5 0 1.25.32 2.2 1.27 3.16s2.22 1.6 3.17 1.6zM149.3 77.03c1.27 0 2.54-.32 3.5-1.27.94-.95 1.26-2.22 1.26-3.48 0-1.27-.3-2.22-1.27-3.17-.96-.94-2.23-1.58-3.5-1.58-1.26 0-2.2.64-3.16 1.6-.95.94-1.6 1.9-1.6 3.16 0 1.26.65 2.53 1.6 3.48.95.95 1.9 1.27 3.17 1.27zM64.35 32.02c1.27 0 2.54-.64 3.5-1.6.62-.62 1.26-1.9 1.26-3.16 0-1.27-.63-2.53-1.26-3.5-.95-.62-2.22-1.25-3.5-1.25-1.26 0-2.52.64-3.16 1.27-.95.96-1.58 2.22-1.58 3.5 0 1.26.63 2.53 1.58 3.16.64.95 1.9 1.6 3.17 1.6zM138.85 71.64c1.26 0 2.53-.3 3.17-1.27.95-.95 1.58-1.9 1.58-3.17 0-1.26-.63-2.53-1.58-3.48-.64-.95-1.9-1.27-3.17-1.27s-2.54.32-3.5 1.27c-.63.95-1.26 2.22-1.26 3.48 0 1.27.63 2.22 1.26 3.17.95.95 2.22 1.27 3.5 1.27zM226.34 114.44c1.27 0 2.53-.64 3.48-1.6.96-.94 1.27-1.9 1.27-3.16 0-1.27-.32-2.53-1.28-3.48-.95-.96-2.2-1.27-3.48-1.27-.95 0-2.22.3-3.17 1.27-.95.95-1.27 2.2-1.27 3.48 0 1.27.32 2.22 1.27 3.17.95.95 2.22 1.6 3.17 1.6z" stroke="#f8b156" stroke-width=".13" fill="#f8b156"/><path d="M229.2 156.9c1.26 0 2.53-.62 3.16-1.57.95-.63 1.6-1.9 1.6-3.17s-.65-2.54-1.6-3.5c-.63-.62-1.9-1.25-3.17-1.25-1.28 0-2.54.64-3.5 1.27-.63.95-1.26 2.22-1.26 3.5 0 1.26.63 2.53 1.26 3.16.96.95 2.22 1.58 3.5 1.58zM80.2 32.02c1.27 0 2.54-.64 3.5-1.6.94-.62 1.26-1.9 1.26-3.16 0-1.27-.32-2.53-1.27-3.5-.96-.62-2.23-1.25-3.5-1.25s-2.22.64-3.17 1.27c-.95.96-1.27 2.22-1.27 3.5 0 1.26.32 2.53 1.27 3.16.95.95 1.9 1.6 3.17 1.6zM252.97 167.38c1.26 0 2.53-.32 3.48-1.27.95-.94 1.27-2.2 1.27-3.48 0-1.27-.32-2.22-1.27-3.17-.95-.95-2.22-1.58-3.48-1.58-1.27 0-2.22.63-3.17 1.58-.96.95-1.6 1.9-1.6 3.17s.65 2.54 1.6 3.5c.95.94 1.9 1.26 3.17 1.26zM157.23 111.58c1.27 0 2.54-.3 3.5-1.26.94-.95 1.26-2.22 1.26-3.5 0-1.26-.33-2.2-1.28-3.16-.95-.95-2.22-1.6-3.5-1.6-.94 0-2.2.65-3.16 1.6-.95.95-1.27 1.9-1.27 3.17s.3 2.53 1.26 3.5c.95.94 2.22 1.25 3.17 1.25zM197.17 42.48c1.27 0 2.54-.32 3.5-1.27.94-.94 1.26-2.2 1.26-3.48 0-1.27-.32-2.22-1.27-3.17-.95-.95-2.22-1.27-3.5-1.27-1.25 0-2.2.32-3.16 1.27-.95.95-1.58 1.9-1.58 3.17s.63 2.54 1.58 3.5c.95.94 1.9 1.26 3.17 1.26zM210.5 45.33c1.26 0 2.52-.63 3.48-1.58.63-.95 1.26-1.9 1.26-3.17s-.63-2.54-1.26-3.5c-.96-.94-2.22-1.26-3.5-1.26-1.26 0-2.53.32-3.16 1.27-.95.94-1.6 2.2-1.6 3.48 0 1.26.65 2.22 1.6 3.17.63.95 1.9 1.58 3.17 1.58zM154.7 47.87c1.26 0 2.53-.64 3.48-1.27.64-.95 1.27-2.22 1.27-3.5 0-1.26-.63-2.52-1.27-3.16-.95-.95-2.22-1.58-3.48-1.58-1.27 0-2.54.63-3.17 1.58-.96.64-1.6 1.9-1.6 3.17 0 1.28.64 2.55 1.6 3.5.63.63 1.9 1.27 3.17 1.27zM35.2 34.55c1.25 0 2.52-.63 3.16-1.27.95-.95 1.58-2.2 1.58-3.48 0-1.27-.63-2.54-1.58-3.17-.64-.95-1.9-1.6-3.17-1.6-1.28 0-2.55.65-3.5 1.6-.63.63-1.27 1.9-1.27 3.17s.64 2.53 1.27 3.48c.95.64 2.22 1.27 3.5 1.27zM138.85 90.34c1.26 0 2.53-.3 3.17-1.26.95-.95 1.58-2.22 1.58-3.5 0-1.26-.63-2.2-1.58-3.16-.64-.95-1.9-1.58-3.17-1.58s-2.54.63-3.5 1.58c-.63.95-1.26 1.9-1.26 3.17 0 1.26.63 2.53 1.26 3.48.95.95 2.22 1.27 3.5 1.27zM141.38 140.75c1.27 0 2.54-.32 3.5-1.27.62-.95 1.26-2.22 1.26-3.17 0-1.26-.64-2.53-1.27-3.48-.95-.95-2.22-1.26-3.5-1.26-1.26 0-2.52.3-3.16 1.26-.94.95-1.57 2.22-1.57 3.5 0 .94.63 2.2 1.58 3.16.65.95 1.9 1.27 3.18 1.27z" stroke="#f8b156" stroke-width=".13" fill="#f8b156"/><path d="M32.65 34.55c.95 0 2.22-.63 3.17-1.27.95-.95 1.27-2.2 1.27-3.48 0-1.27-.33-2.54-1.28-3.17-.95-.95-2.22-1.6-3.17-1.6-1.27 0-2.53.65-3.5 1.6-.94.63-1.25 1.9-1.25 3.17s.3 2.53 1.26 3.48c.96.64 2.22 1.27 3.5 1.27zM277.06 116.97c1.27 0 2.22-.63 3.17-1.27.95-.95 1.58-2.2 1.58-3.48 0-1.27-.62-2.54-1.57-3.17-.95-.95-1.9-1.6-3.17-1.6s-2.54.65-3.5 1.6c-.94.63-1.26 1.9-1.26 3.17s.32 2.53 1.27 3.48c.95.64 2.22 1.27 3.5 1.27zM245.04 172.77c1.27 0 2.54-.64 3.5-1.27.62-.95 1.26-2.22 1.26-3.5 0-1.26-.64-2.53-1.27-3.16-.95-.95-2.22-1.6-3.5-1.6-1.26 0-2.53.65-3.16 1.6-.95.63-1.58 1.9-1.58 3.17 0 1.28.62 2.55 1.57 3.5.63.63 1.9 1.27 3.17 1.27zM290.37 241.87c1.27 0 2.22-.63 3.17-1.27.95-.95 1.27-2.22 1.27-3.48 0-1.27-.3-2.54-1.26-3.17-.95-.95-1.9-1.6-3.17-1.6s-2.53.65-3.5 1.6c-.94.63-1.25 1.9-1.25 3.17 0 1.26.3 2.53 1.26 3.48.96.64 2.22 1.27 3.5 1.27zM242.5 162c1.27 0 2.22-.33 3.18-1.28.95-.95 1.58-1.9 1.58-3.17s-.63-2.54-1.58-3.5c-.96-.94-1.9-1.26-3.18-1.26-1.26 0-2.53.3-3.48 1.26-.95.95-1.27 2.22-1.27 3.5 0 1.26.32 2.2 1.27 3.16.95.95 2.22 1.27 3.48 1.27zM200.03 199.4c1.27 0 2.22-.64 3.17-1.6.95-.63 1.27-1.9 1.27-3.16 0-1.27-.32-2.54-1.27-3.5-.95-.62-1.9-1.26-3.17-1.26s-2.54.64-3.5 1.27c-.94.95-1.26 2.22-1.26 3.5 0 1.26.32 2.52 1.27 3.16.95.96 2.22 1.6 3.5 1.6zM239.65 209.85c1.27 0 2.54-.3 3.5-1.26.94-.96 1.26-2.23 1.26-3.5 0-.95-.3-2.22-1.26-3.17-.95-.95-2.22-1.27-3.5-1.27-1.26 0-2.2.32-3.16 1.27-.95.95-1.58 2.22-1.58 3.17 0 1.27.63 2.54 1.58 3.5.95.94 1.9 1.25 3.17 1.25zM175.94 135.68c1.26 0 2.53-.64 3.48-1.6.64-.94 1.27-1.9 1.27-3.16 0-1.27-.64-2.53-1.28-3.5-.95-.94-2.22-1.25-3.48-1.25-1.27 0-2.54.3-3.17 1.26-.96.96-1.6 2.22-1.6 3.5 0 1.26.64 2.2 1.6 3.16.63.94 1.9 1.58 3.16 1.58zM231.73 215.24c1.27 0 2.53-.3 3.48-1.26.65-.96 1.28-2.22 1.28-3.5 0-1.26-.63-2.53-1.27-3.16-.94-.95-2.2-1.6-3.47-1.6s-2.54.65-3.17 1.6c-.95.63-1.6 1.9-1.6 3.17 0 1.26.65 2.52 1.6 3.48.63.95 1.9 1.26 3.17 1.26zM287.52 260.57c1.27 0 2.54-.63 3.5-1.58.94-.96 1.25-1.9 1.25-3.18 0-1.27-.3-2.54-1.26-3.5-.94-.94-2.2-1.26-3.48-1.26-1.27 0-2.22.32-3.17 1.27-.95.95-1.6 2.22-1.6 3.5 0 1.26.65 2.2 1.6 3.16.95.94 1.9 1.57 3.17 1.57zM133.46 103.66c1.26 0 2.53-.63 3.48-1.27.64-.96 1.27-2.23 1.27-3.5 0-1.26-.62-2.53-1.26-3.17-.95-.95-2.22-1.58-3.48-1.58-1.27 0-2.54.63-3.17 1.58-.96.64-1.6 1.9-1.6 3.17s.64 2.54 1.6 3.5c.62.63 1.9 1.26 3.16 1.26zM77.66 42.48c1.27 0 2.54-.32 3.5-1.27.63-.94 1.26-2.2 1.26-3.48 0-1.27-.63-2.22-1.27-3.17-.95-.95-2.22-1.27-3.5-1.27-1.25 0-2.52.32-3.16 1.27-.96.95-1.6 1.9-1.6 3.17s.64 2.54 1.6 3.5c.63.94 1.9 1.26 3.16 1.26zM202.56 156.9c1.27 0 2.54-.62 3.5-1.57.62-.63 1.26-1.9 1.26-3.17s-.64-2.54-1.27-3.5c-.95-.62-2.22-1.25-3.5-1.25-1.25 0-2.52.64-3.47 1.27-.64.95-1.27 2.22-1.27 3.5 0 1.26.64 2.53 1.28 3.16.95.95 2.22 1.58 3.48 1.58zM205.1 132.82c1.27 0 2.54-.3 3.5-1.26.94-.96 1.25-2.22 1.25-3.5 0-1.26-.3-2.2-1.26-3.16-.96-.95-2.23-1.27-3.5-1.27s-2.22.32-3.17 1.27c-.95.95-1.27 1.9-1.27 3.17s.32 2.53 1.27 3.5c.95.94 1.9 1.25 3.17 1.25zM64.35 39.94c1.27 0 2.54-.63 3.5-1.58.62-.64 1.26-1.9 1.26-3.17 0-1.28-.63-2.55-1.26-3.5-.95-.63-2.22-1.27-3.5-1.27-1.26 0-2.52.64-3.16 1.27-.95.95-1.58 2.22-1.58 3.5 0 1.25.63 2.52 1.58 3.16.64.95 1.9 1.58 3.17 1.58zM231.73 95.73c1.27 0 2.53-.63 3.48-1.26.65-.95 1.28-2.22 1.28-3.5 0-1.26-.63-2.53-1.27-3.16-.94-.94-2.2-1.58-3.47-1.58s-2.54.64-3.17 1.6c-.95.62-1.6 1.9-1.6 3.16 0 1.27.65 2.53 1.6 3.5.63.62 1.9 1.25 3.17 1.25zM239.65 135.68c1.27 0 2.54-.64 3.5-1.6.94-.94 1.26-1.9 1.26-3.16 0-1.27-.3-2.53-1.26-3.5-.95-.94-2.22-1.25-3.5-1.25-1.26 0-2.2.3-3.16 1.26-.95.96-1.58 2.22-1.58 3.5 0 1.26.63 2.2 1.58 3.16.95.94 1.9 1.58 3.17 1.58zM189.25 74.5c1.27 0 2.53-.64 3.5-1.6.62-.62 1.25-1.9 1.25-3.16 0-1.27-.63-2.54-1.26-3.5-.96-.62-2.22-1.25-3.5-1.25-1.26-.02-2.53.62-3.16 1.25-.95.95-1.6 2.22-1.6 3.5 0 1.26.65 2.53 1.6 3.16.63.96 1.9 1.6 3.17 1.6zM213.34 69.1c.95 0 2.22-.63 3.17-1.26.96-.95 1.28-2.22 1.28-3.5 0-1.26-.32-2.52-1.27-3.16-.94-.95-2.2-1.58-3.16-1.58-1.27 0-2.53.63-3.5 1.58-.94.64-1.25 1.9-1.25 3.17s.3 2.54 1.25 3.5c.96.62 2.22 1.26 3.5 1.26z" stroke="#f8b156" stroke-width=".13" fill="#f8b156"/><path d="M144.24 170.23c1.26 0 2.2-.63 3.16-1.6.96-.94 1.27-1.9 1.27-3.16 0-1.26-.3-2.53-1.26-3.48-.95-.96-1.9-1.28-3.16-1.28-1.27 0-2.54.32-3.5 1.27-.94.94-1.26 2.2-1.26 3.47s.32 2.22 1.27 3.17c.95.96 2.22 1.6 3.5 1.6zM205.1 271.03c1.27 0 2.54-.3 3.5-1.26.94-.95 1.25-2.22 1.25-3.5 0-1.26-.3-2.2-1.26-3.16-.96-.94-2.23-1.58-3.5-1.58s-2.22.64-3.17 1.6c-.95.94-1.27 1.9-1.27 3.16 0 1.27.32 2.54 1.27 3.5.95.94 1.9 1.25 3.17 1.25zM218.4 271.03c1.28 0 2.55-.3 3.5-1.26.95-.95 1.27-2.22 1.27-3.5 0-1.26-.32-2.2-1.27-3.16-.95-.94-2.22-1.58-3.5-1.58-1.25 0-2.2.64-3.16 1.6-.95.94-1.58 1.9-1.58 3.16 0 1.27.63 2.54 1.58 3.5.95.94 1.9 1.25 3.17 1.25zM104.3 244.4c1.26 0 2.53-.3 3.16-1.26.95-.95 1.6-2.22 1.6-3.5 0-1.26-.65-2.2-1.6-3.16-.63-.95-1.9-1.27-3.17-1.27s-2.54.33-3.5 1.28c-.63.95-1.26 1.9-1.26 3.17s.63 2.54 1.27 3.5c.96.94 2.23 1.26 3.5 1.26zM77.66 257.72c1.27 0 2.54-.32 3.5-1.27.63-.95 1.26-2.22 1.26-3.48 0-1.27-.63-2.22-1.27-3.17-.95-.96-2.22-1.6-3.5-1.6-1.25 0-2.52.65-3.16 1.6-.96.95-1.6 1.9-1.6 3.17 0 1.26.64 2.53 1.6 3.48.63.95 1.9 1.27 3.16 1.27zM130.92 209.85c1.27 0 2.22-.3 3.17-1.26.94-.96 1.58-2.23 1.58-3.5 0-.95-.64-2.22-1.6-3.17-.94-.95-1.9-1.27-3.16-1.27-1.27 0-2.53.32-3.5 1.27-.94.95-1.25 2.22-1.25 3.17 0 1.27.3 2.54 1.26 3.5.96.94 2.22 1.25 3.5 1.25z" stroke="#699cb1" stroke-width=".13" fill="#699cb1"/><path d="M200.03 271.03c1.27 0 2.22-.3 3.17-1.26.95-.95 1.27-2.22 1.27-3.5 0-1.26-.32-2.2-1.27-3.16-.95-.94-1.9-1.58-3.17-1.58s-2.54.64-3.5 1.6c-.94.94-1.26 1.9-1.26 3.16 0 1.27.32 2.54 1.27 3.5.95.94 2.22 1.25 3.5 1.25zM178.8 209.85c.94 0 2.2-.3 3.16-1.26.95-.96 1.27-2.23 1.27-3.5 0-.95-.32-2.22-1.27-3.17-.95-.95-2.22-1.27-3.17-1.27-1.28 0-2.55.32-3.5 1.27-.95.95-1.27 2.22-1.27 3.17 0 1.27.32 2.54 1.27 3.5.95.94 2.22 1.25 3.5 1.25zM88.44 201.93c.95 0 2.22-.32 3.17-1.27.96-.95 1.28-2.22 1.28-3.5 0-1.25-.32-2.2-1.27-3.16-.94-.95-2.2-1.58-3.16-1.58-1.26 0-2.53.63-3.48 1.58-.95.95-1.27 1.9-1.27 3.17s.3 2.54 1.26 3.5c.95.94 2.22 1.26 3.48 1.26zM101.44 204.78c1.27 0 2.54-.63 3.5-1.58.94-.95 1.26-1.9 1.26-3.17s-.32-2.54-1.27-3.5c-.95-.94-2.22-1.26-3.5-1.26-.94 0-2.2.32-3.16 1.27-.95.95-1.27 2.22-1.27 3.5 0 1.26.32 2.2 1.27 3.16.95.95 2.22 1.58 3.17 1.58zM27.26 295.13c1.27 0 2.22-.64 3.17-1.6.95-.94 1.6-1.9 1.6-3.16 0-1.27-.65-2.53-1.6-3.5-.95-.94-1.9-1.25-3.17-1.25s-2.53.3-3.5 1.26c-.94.96-1.25 2.22-1.25 3.5 0 1.26.32 2.2 1.27 3.16.96.95 2.22 1.6 3.5 1.6zM123 154.06c.95 0 2.22-.3 3.17-1.27.95-.96 1.26-2.23 1.26-3.5 0-1.26-.3-2.2-1.26-3.16-.95-.95-2.22-1.27-3.17-1.27-1.27 0-2.54.32-3.5 1.27-.94.95-1.26 1.9-1.26 3.17s.32 2.54 1.27 3.5c.96.94 2.23 1.26 3.5 1.26zM40.58 194c1.26 0 2.22-.63 3.17-1.26.95-.96 1.58-2.22 1.58-3.5 0-1.26-.63-2.53-1.58-3.16-.95-.95-1.9-1.6-3.17-1.6s-2.54.65-3.5 1.6c-.94.63-1.26 1.9-1.26 3.17s.32 2.53 1.27 3.5c.94.62 2.2 1.25 3.48 1.25zM72.28 84.96c1.26 0 2.53-.32 3.48-1.27.95-.96 1.27-2.23 1.27-3.5 0-.95-.32-2.22-1.27-3.17-.95-.95-2.22-1.27-3.48-1.27-1.27 0-2.22.32-3.17 1.27-.94.95-1.58 2.22-1.58 3.17 0 1.27.64 2.54 1.6 3.5.94.94 1.9 1.26 3.16 1.26zM37.72 183.23c1.27 0 2.54-.32 3.5-1.27.94-.95 1.26-1.9 1.26-3.17 0-1.28-.32-2.55-1.27-3.5-.94-.95-2.2-1.27-3.48-1.27-1.27 0-2.22.32-3.17 1.27-.95.95-1.58 2.22-1.58 3.5 0 1.26.63 2.2 1.58 3.16.95.95 1.9 1.27 3.17 1.27z" stroke="#699cb1" stroke-width=".13" fill="#699cb1"/><path d="M181.32 212.7c1.27 0 2.54-.63 3.17-1.58.94-.63 1.58-1.9 1.58-3.17s-.64-2.53-1.6-3.48c-.62-.64-1.9-1.27-3.16-1.27-1.26 0-2.53.63-3.48 1.27-.64.95-1.27 2.2-1.27 3.48 0 1.27.63 2.54 1.27 3.17.95.95 2.22 1.6 3.48 1.6zM29.8 122.36c1.27 0 2.53-.63 3.48-1.58.64-.64 1.27-1.9 1.27-3.17 0-1.26-.63-2.53-1.27-3.48-.95-.63-2.2-1.27-3.48-1.27-1.27 0-2.54.64-3.17 1.27-.95.95-1.6 2.22-1.6 3.5 0 1.25.65 2.52 1.6 3.16.63.95 1.9 1.58 3.17 1.58zM136 143.6c1.26 0 2.53-.63 3.48-1.58.95-.64 1.27-1.9 1.27-3.17s-.32-2.54-1.27-3.5c-.95-.63-2.22-1.26-3.5-1.26-1.25 0-2.2.63-3.16 1.26-.95.95-1.26 2.22-1.26 3.5 0 1.25.3 2.52 1.26 3.16.95.95 1.9 1.58 3.17 1.58zM120.14 265.65c1.27 0 2.54-.32 3.5-1.27.62-.95 1.26-2.22 1.26-3.5 0-.94-.64-2.2-1.27-3.16-.95-.95-2.22-1.27-3.5-1.27-1.25 0-2.52.32-3.16 1.27-.95.95-1.58 2.22-1.58 3.17 0 1.26.62 2.53 1.57 3.48.64.95 1.9 1.27 3.17 1.27zM269.13 295.13c.95 0 2.22-.64 3.17-1.6.95-.94 1.27-1.9 1.27-3.16 0-1.27-.32-2.53-1.27-3.5-.95-.94-2.22-1.25-3.17-1.25-1.26 0-2.53.3-3.48 1.26-.95.96-1.27 2.22-1.27 3.5 0 1.26.3 2.2 1.27 3.16.95.95 2.22 1.6 3.48 1.6zM168 263.1c1.28 0 2.55-.62 3.5-1.26.63-.95 1.27-2.22 1.27-3.5 0-1.25-.64-2.52-1.27-3.15-.95-.97-2.22-1.6-3.5-1.6-1.26 0-2.53.63-3.16 1.6-.95.62-1.6 1.9-1.6 3.15 0 1.27.65 2.54 1.6 3.5.63.63 1.9 1.26 3.17 1.26zM43.1 114.44c1.28 0 2.55-.64 3.5-1.6.63-.94 1.27-1.9 1.27-3.16 0-1.27-.64-2.53-1.27-3.48-.95-.96-2.22-1.27-3.5-1.27-1.26 0-2.52.3-3.16 1.27-.95.95-1.58 2.2-1.58 3.48 0 1.27.63 2.22 1.58 3.17.64.95 1.9 1.6 3.17 1.6zM152.16 286.9c1.27 0 2.22-.33 3.17-1.28.95-.95 1.58-2.22 1.58-3.17 0-1.27-.62-2.54-1.57-3.5-.95-.94-1.9-1.26-3.17-1.26s-2.54.3-3.5 1.26c-.94.95-1.25 2.22-1.25 3.5 0 .94.32 2.2 1.27 3.16.95.95 2.22 1.26 3.5 1.26zM234.58 255.2c1.27 0 2.22-.65 3.17-1.6.95-.63 1.27-1.9 1.27-3.17s-.32-2.54-1.27-3.5c-.95-.62-1.9-1.25-3.17-1.25s-2.54.63-3.5 1.26c-.94.95-1.26 2.22-1.26 3.5 0 1.26.32 2.53 1.27 3.16.94.95 2.2 1.6 3.48 1.6zM181.32 233.95c1.27 0 2.54-.64 3.17-1.6.94-.62 1.58-1.9 1.58-3.16 0-1.28-.64-2.54-1.6-3.5-.62-.63-1.9-1.26-3.16-1.26-1.26 0-2.53.63-3.48 1.26-.64.96-1.27 2.22-1.27 3.5 0 1.26.63 2.53 1.27 3.16.95.95 2.22 1.6 3.48 1.6z" stroke="#699cb1" stroke-width=".13" fill="#699cb1"/><path d="M237.12 260.57c1.26 0 2.53-.63 3.17-1.58.94-.96 1.57-1.9 1.57-3.18 0-1.27-.63-2.54-1.58-3.5-.65-.94-1.92-1.26-3.18-1.26-1.27 0-2.54.32-3.5 1.27-.63.95-1.26 2.22-1.26 3.5 0 1.26.63 2.2 1.27 3.16.95.94 2.22 1.57 3.5 1.57zM136 201.93c1.26 0 2.53-.32 3.48-1.27.95-.95 1.27-2.22 1.27-3.5 0-1.25-.32-2.2-1.27-3.16-.95-.95-2.22-1.58-3.5-1.58-1.25 0-2.2.63-3.16 1.58-.95.95-1.26 1.9-1.26 3.17s.3 2.54 1.26 3.5c.95.94 1.9 1.26 3.17 1.26zM27.26 162c1.27 0 2.22-.33 3.17-1.28.95-.95 1.6-1.9 1.6-3.17s-.65-2.54-1.6-3.5c-.95-.94-1.9-1.26-3.17-1.26s-2.53.3-3.5 1.26c-.94.95-1.25 2.22-1.25 3.5 0 1.26.32 2.2 1.27 3.16.96.95 2.22 1.27 3.5 1.27zM123 204.78c.95 0 2.22-.63 3.17-1.58.95-.95 1.26-1.9 1.26-3.17s-.3-2.54-1.26-3.5c-.95-.94-2.22-1.26-3.17-1.26-1.27 0-2.54.32-3.5 1.27-.94.95-1.26 2.22-1.26 3.5 0 1.26.32 2.2 1.27 3.16.96.95 2.23 1.58 3.5 1.58zM83.05 101.12c1.27 0 2.54-.63 3.17-1.58.96-.95 1.6-1.9 1.6-3.17s-.64-2.54-1.6-3.5c-.63-.94-1.9-1.26-3.17-1.26-1.26 0-2.53.33-3.48 1.28-.64.95-1.27 2.22-1.27 3.5 0 1.26.63 2.2 1.27 3.16.95.95 2.22 1.58 3.48 1.58zM27.26 268.5c1.27 0 2.22-.63 3.17-1.6.95-.62 1.6-1.9 1.6-3.16 0-1.26-.65-2.53-1.6-3.48-.95-.64-1.9-1.27-3.17-1.27s-2.53.62-3.5 1.26c-.94.95-1.25 2.22-1.25 3.48 0 1.27.32 2.54 1.27 3.17.96.97 2.22 1.6 3.5 1.6zM88.44 138.2c.95 0 2.22-.62 3.17-1.26.96-.95 1.28-2.22 1.28-3.48 0-1.27-.32-2.54-1.27-3.17-.94-.96-2.2-1.6-3.16-1.6-1.26 0-2.53.64-3.48 1.6-.95.62-1.27 1.9-1.27 3.16 0 1.26.3 2.53 1.26 3.48.95.64 2.22 1.27 3.48 1.27zM191.78 201.93c1.27 0 2.54-.32 3.5-1.27.94-.95 1.26-2.22 1.26-3.5 0-1.25-.32-2.2-1.27-3.16-.95-.95-2.22-1.58-3.5-1.58-.94 0-2.2.63-3.16 1.58-.94.95-1.25 1.9-1.25 3.17s.3 2.54 1.26 3.5c.97.94 2.23 1.26 3.2 1.26zM98.9 257.72c1.27 0 2.54-.32 3.5-1.27.63-.95 1.26-2.22 1.26-3.48 0-1.27-.63-2.22-1.27-3.17-.96-.96-2.23-1.6-3.5-1.6-1.26 0-2.53.65-3.17 1.6-.95.95-1.58 1.9-1.58 3.17 0 1.26.63 2.53 1.58 3.48.64.95 1.9 1.27 3.17 1.27zM136 140.75c1.26 0 2.53-.32 3.48-1.27.95-.95 1.27-2.22 1.27-3.17 0-1.26-.32-2.53-1.27-3.48-.95-.95-2.22-1.26-3.5-1.26-1.25 0-2.2.3-3.16 1.26-.95.95-1.26 2.22-1.26 3.5 0 .94.3 2.2 1.26 3.16.95.95 1.9 1.27 3.17 1.27zM53.9 66.57c1.26 0 2.2-.63 3.16-1.58.95-.65 1.27-1.92 1.27-3.18 0-1.27-.32-2.54-1.27-3.5-.95-.63-1.9-1.26-3.17-1.26-1.28 0-2.55.63-3.5 1.27-.95.95-1.27 2.22-1.27 3.5 0 1.25.32 2.52 1.27 3.16.95.94 2.22 1.57 3.5 1.57zM141.38 265.65c1.27 0 2.54-.32 3.5-1.27.62-.95 1.26-2.22 1.26-3.5 0-.94-.64-2.2-1.27-3.16-.95-.95-2.22-1.27-3.5-1.27-1.26 0-2.52.32-3.16 1.27-.94.95-1.57 2.22-1.57 3.17 0 1.26.63 2.53 1.58 3.48.65.95 1.9 1.27 3.18 1.27z" stroke="#699cb1" stroke-width=".13" fill="#699cb1"/><path d="M32.65 159.45c.95 0 2.22-.63 3.17-1.27.95-.95 1.27-2.22 1.27-3.48 0-1.27-.33-2.54-1.28-3.17-.95-.96-2.22-1.6-3.17-1.6-1.27 0-2.53.64-3.5 1.6-.94.63-1.25 1.9-1.25 3.17 0 1.26.3 2.53 1.26 3.48.96.64 2.22 1.27 3.5 1.27zM170.55 295.13c1.26 0 2.53-.64 3.48-1.6.95-.94 1.27-1.9 1.27-3.16 0-1.27-.32-2.53-1.27-3.5-.95-.94-2.22-1.25-3.48-1.25-1.27 0-2.22.3-3.17 1.26-.95.96-1.27 2.22-1.27 3.5 0 1.26.33 2.2 1.28 3.16.95.95 1.9 1.6 3.17 1.6zM128.07 244.4c1.27 0 2.53-.3 3.5-1.26.94-.95 1.25-2.22 1.25-3.5 0-1.26-.3-2.2-1.26-3.16-.96-.95-2.22-1.27-3.5-1.27-1.26 0-2.2.33-3.16 1.28-.95.95-1.6 1.9-1.6 3.17s.65 2.54 1.6 3.5c.95.94 1.9 1.26 3.17 1.26zM149.3 183.23c1.27 0 2.54-.32 3.5-1.27.94-.95 1.26-1.9 1.26-3.17 0-1.28-.3-2.55-1.27-3.5-.96-.95-2.23-1.27-3.5-1.27-1.26 0-2.2.32-3.16 1.27-.95.95-1.6 2.22-1.6 3.5 0 1.26.65 2.2 1.6 3.16.95.95 1.9 1.27 3.17 1.27zM90.98 289.74c1.27 0 2.53-.64 3.17-1.6.95-.62 1.58-1.9 1.58-3.16 0-1.26-.63-2.53-1.58-3.48-.64-.64-1.9-1.27-3.17-1.27s-2.54.63-3.5 1.27c-.62.95-1.26 2.22-1.26 3.48 0 1.27.64 2.54 1.27 3.17.94.95 2.2 1.6 3.48 1.6zM35.2 45.33c1.25 0 2.52-.63 3.16-1.58.95-.95 1.58-1.9 1.58-3.17s-.63-2.54-1.58-3.5c-.64-.94-1.9-1.26-3.17-1.26-1.28 0-2.55.32-3.5 1.27-.63.94-1.27 2.2-1.27 3.48 0 1.26.64 2.22 1.27 3.17.95.95 2.22 1.58 3.5 1.58zM218.4 226.02c1.28 0 2.55-.63 3.5-1.58.95-.96 1.27-1.9 1.27-3.17s-.32-2.54-1.27-3.5c-.95-.94-2.22-1.26-3.5-1.26-1.25 0-2.2.33-3.16 1.28-.95.95-1.58 2.22-1.58 3.5 0 1.25.63 2.2 1.58 3.16.95.95 1.9 1.58 3.17 1.58zM37.72 116.97c1.27 0 2.54-.63 3.5-1.27.94-.95 1.26-2.2 1.26-3.48 0-1.27-.32-2.54-1.27-3.17-.94-.95-2.2-1.6-3.48-1.6-1.27 0-2.22.65-3.17 1.6-.95.63-1.58 1.9-1.58 3.17s.63 2.53 1.58 3.48c.95.64 1.9 1.27 3.17 1.27zM56.43 66.57c1.26 0 2.53-.63 3.17-1.58.95-.65 1.58-1.92 1.58-3.18 0-1.27-.63-2.54-1.58-3.5-.64-.63-1.9-1.26-3.17-1.26s-2.54.63-3.5 1.27c-.63.95-1.26 2.22-1.26 3.5 0 1.25.63 2.52 1.27 3.16.95.94 2.22 1.57 3.5 1.57zM175.94 252.33c1.26 0 2.53-.3 3.48-1.27.64-.95 1.27-1.9 1.27-3.17s-.64-2.54-1.28-3.5c-.95-.94-2.22-1.26-3.48-1.26-1.27 0-2.54.32-3.17 1.27-.96.96-1.6 2.23-1.6 3.5 0 1.26.64 2.2 1.6 3.16.63.96 1.9 1.27 3.16 1.27zM90.98 217.78c1.27 0 2.53-.32 3.17-1.27.95-.94 1.58-1.9 1.58-3.16 0-1.27-.63-2.53-1.58-3.5-.64-.94-1.9-1.25-3.17-1.25s-2.54.3-3.5 1.25c-.62.96-1.26 2.22-1.26 3.5 0 1.26.64 2.2 1.27 3.16.94.96 2.2 1.28 3.48 1.28zM83.05 228.56c1.27 0 2.54-.64 3.17-1.27.96-.96 1.6-2.23 1.6-3.5s-.64-2.53-1.6-3.17c-.63-.95-1.9-1.58-3.17-1.58-1.26 0-2.53.63-3.48 1.58-.64.64-1.27 1.9-1.27 3.17s.63 2.54 1.27 3.5c.95.62 2.22 1.26 3.48 1.26zM114.75 209.85c1.27 0 2.54-.3 3.5-1.26.94-.96 1.26-2.23 1.26-3.5 0-.95-.3-2.22-1.26-3.17-.95-.95-2.22-1.27-3.5-1.27-1.25 0-2.2.32-3.16 1.27-.95.95-1.26 2.22-1.26 3.17 0 1.27.3 2.54 1.26 3.5.95.94 1.9 1.25 3.17 1.25zM109.68 260.57c1.27 0 2.22-.63 3.17-1.58.95-.96 1.27-1.9 1.27-3.18 0-1.27-.32-2.54-1.27-3.5-.95-.94-1.9-1.26-3.17-1.26s-2.53.32-3.48 1.27c-.96.95-1.27 2.22-1.27 3.5 0 1.26.3 2.2 1.27 3.16.95.94 2.2 1.57 3.48 1.57zM45.65 231.1c1.27 0 2.53-.32 3.48-1.28.96-.95 1.27-2.2 1.27-3.16 0-1.27-.3-2.54-1.27-3.5-.95-.94-2.2-1.26-3.48-1.26-1.27 0-2.22.32-3.17 1.27-.95.95-1.27 2.22-1.27 3.5 0 .94.33 2.2 1.28 3.16.95.95 1.9 1.26 3.17 1.26zM66.9 186.08c1.25 0 2.52-.64 3.47-1.27.95-.94 1.27-2.2 1.27-3.48 0-1.26-.3-2.53-1.27-3.17-.95-.95-2.22-1.58-3.48-1.58-.96 0-2.23.63-3.18 1.58-.95.64-1.27 1.9-1.27 3.17s.32 2.54 1.27 3.5c.95.63 2.22 1.26 3.17 1.26z" stroke="#699cb1" stroke-width=".13" fill="#699cb1"/><path d="M75.13 188.6c1.27 0 2.22-.3 3.17-1.25.95-.95 1.27-2.22 1.27-3.5 0-1.26-.32-2.2-1.27-3.16s-1.9-1.28-3.17-1.28-2.54.32-3.5 1.27c-.94.94-1.26 1.9-1.26 3.16 0 1.27.32 2.54 1.27 3.5.95.94 2.22 1.25 3.5 1.25zM66.9 265.65c1.25 0 2.52-.32 3.47-1.27.95-.95 1.27-2.22 1.27-3.5 0-.94-.3-2.2-1.27-3.16-.95-.95-2.22-1.27-3.48-1.27-.96 0-2.23.32-3.18 1.27-.95.95-1.27 2.22-1.27 3.17 0 1.26.32 2.53 1.27 3.48.95.95 2.22 1.27 3.17 1.27zM128.07 170.23c1.27 0 2.53-.63 3.5-1.6.94-.94 1.25-1.9 1.25-3.16 0-1.26-.3-2.53-1.26-3.48-.96-.96-2.22-1.28-3.5-1.28-1.26 0-2.2.32-3.16 1.27-.95.94-1.6 2.2-1.6 3.47s.65 2.22 1.6 3.17c.95.96 1.9 1.6 3.17 1.6zM104.3 292.27c1.26 0 2.53-.3 3.16-1.26.95-.94 1.6-2.2 1.6-3.48 0-1.27-.65-2.22-1.6-3.17-.63-.95-1.9-1.6-3.17-1.6s-2.54.65-3.5 1.6c-.63.95-1.26 1.9-1.26 3.17s.63 2.54 1.27 3.5c.96.94 2.23 1.25 3.5 1.25zM109.68 178.15c1.27 0 2.22-.63 3.17-1.58.95-.63 1.27-1.9 1.27-3.17s-.32-2.54-1.27-3.5c-.95-.62-1.9-1.26-3.17-1.26s-2.53.64-3.48 1.27c-.96.96-1.27 2.23-1.27 3.5s.3 2.53 1.27 3.17c.95.95 2.2 1.58 3.48 1.58zM90.98 231.1c1.27 0 2.53-.32 3.17-1.28.95-.95 1.58-2.2 1.58-3.16 0-1.27-.63-2.54-1.58-3.5-.64-.94-1.9-1.26-3.17-1.26s-2.54.32-3.5 1.27c-.62.95-1.26 2.22-1.26 3.5 0 .94.64 2.2 1.27 3.16.94.95 2.2 1.26 3.48 1.26zM35.2 247.26c1.25 0 2.52-.63 3.16-1.58.95-.64 1.58-1.9 1.58-3.18 0-1.26-.63-2.53-1.58-3.48-.64-.64-1.9-1.27-3.17-1.27-1.28 0-2.55.63-3.5 1.27-.63.95-1.27 2.22-1.27 3.48 0 1.27.64 2.54 1.27 3.18.95.95 2.22 1.58 3.5 1.58zM152.16 286.9c1.27 0 2.22-.33 3.17-1.28.95-.95 1.58-2.22 1.58-3.17 0-1.27-.62-2.54-1.57-3.5-.95-.94-1.9-1.26-3.17-1.26s-2.54.3-3.5 1.26c-.94.95-1.25 2.22-1.25 3.5 0 .94.32 2.2 1.27 3.16.95.95 2.22 1.26 3.5 1.26zM138.85 263.1c1.26 0 2.53-.62 3.17-1.26.95-.95 1.58-2.22 1.58-3.5 0-1.25-.63-2.52-1.58-3.15-.64-.97-1.9-1.6-3.17-1.6s-2.54.63-3.5 1.6c-.63.62-1.26 1.9-1.26 3.15 0 1.27.63 2.54 1.26 3.5.95.63 2.22 1.26 3.5 1.26zM128.07 201.93c1.27 0 2.53-.32 3.5-1.27.94-.95 1.25-2.22 1.25-3.5 0-1.25-.3-2.2-1.26-3.16-.96-.95-2.22-1.58-3.5-1.58-1.26 0-2.2.63-3.16 1.58-.95.95-1.6 1.9-1.6 3.17s.65 2.54 1.6 3.5c.95.94 1.9 1.26 3.17 1.26zM85.6 281.8c1.26 0 2.53-.62 3.48-1.57.63-.95 1.27-1.9 1.27-3.17s-.64-2.54-1.27-3.5c-.95-.94-2.22-1.26-3.5-1.26-1.26 0-2.53.32-3.16 1.27-.95.95-1.58 2.22-1.58 3.5 0 1.26.63 2.2 1.58 3.16.63.95 1.9 1.58 3.17 1.58zM88.44 180.7c.95 0 2.22-.33 3.17-1.28.96-.95 1.28-2.22 1.28-3.48 0-1.27-.32-2.22-1.27-3.17-.94-.96-2.2-1.6-3.16-1.6-1.26 0-2.53.64-3.48 1.6-.95.95-1.27 1.9-1.27 3.16 0 1.27.3 2.54 1.26 3.5.95.94 2.22 1.26 3.48 1.26zM112.22 265.65c1.27 0 2.53-.32 3.17-1.27.94-.95 1.57-2.22 1.57-3.5 0-.94-.63-2.2-1.58-3.16-.65-.95-1.9-1.27-3.18-1.27-1.27 0-2.54.32-3.5 1.27-.62.95-1.26 2.22-1.26 3.17 0 1.26.64 2.53 1.27 3.48.95.95 2.22 1.27 3.5 1.27zM133.46 241.87c1.26 0 2.53-.63 3.48-1.27.64-.95 1.27-2.22 1.27-3.48 0-1.27-.62-2.54-1.26-3.17-.95-.95-2.22-1.6-3.48-1.6-1.27 0-2.54.65-3.17 1.6-.96.63-1.6 1.9-1.6 3.17 0 1.26.64 2.53 1.6 3.48.62.64 1.9 1.27 3.16 1.27zM53.9 180.7c1.26 0 2.2-.33 3.16-1.28.95-.95 1.27-2.22 1.27-3.48 0-1.27-.32-2.22-1.27-3.17-.95-.96-1.9-1.6-3.17-1.6-1.28 0-2.55.64-3.5 1.6-.95.95-1.27 1.9-1.27 3.16 0 1.27.32 2.54 1.27 3.5.95.94 2.22 1.26 3.5 1.26zM125.53 220.63c1.27 0 2.54-.63 3.17-1.58.95-.64 1.6-1.9 1.6-3.17s-.65-2.54-1.6-3.5c-.63-.62-1.9-1.26-3.17-1.26s-2.53.64-3.48 1.27c-.64.94-1.27 2.2-1.27 3.48 0 1.27.63 2.53 1.27 3.17.95.95 2.2 1.58 3.48 1.58zM152.16 188.6c1.27 0 2.22-.3 3.17-1.25.95-.95 1.58-2.22 1.58-3.5 0-1.26-.62-2.2-1.57-3.16-.95-.96-1.9-1.28-3.17-1.28s-2.54.32-3.5 1.27c-.94.94-1.25 1.9-1.25 3.16 0 1.27.32 2.54 1.27 3.5.95.94 2.22 1.25 3.5 1.25zM32.65 223.17c.95 0 2.22-.32 3.17-1.27.95-.95 1.27-2.22 1.27-3.5 0-1.25-.33-2.2-1.28-3.16-.95-.95-2.22-1.26-3.17-1.26-1.27 0-2.53.3-3.5 1.26-.94.95-1.25 1.9-1.25 3.17 0 1.28.3 2.55 1.26 3.5.96.95 2.22 1.27 3.5 1.27zM77.66 228.56c1.27 0 2.54-.64 3.5-1.27.63-.96 1.26-2.23 1.26-3.5s-.63-2.53-1.27-3.17c-.95-.95-2.22-1.58-3.5-1.58-1.25 0-2.52.63-3.16 1.58-.96.64-1.6 1.9-1.6 3.17s.64 2.54 1.6 3.5c.63.62 1.9 1.26 3.16 1.26z" stroke="#699cb1" stroke-width=".13" fill="#699cb1"/><path d="M88.44 172.77c.95 0 2.22-.64 3.17-1.27.96-.95 1.28-2.22 1.28-3.5 0-1.26-.32-2.53-1.27-3.16-.94-.95-2.2-1.6-3.16-1.6-1.26 0-2.53.65-3.48 1.6-.95.63-1.27 1.9-1.27 3.17 0 1.28.3 2.55 1.26 3.5.95.63 2.22 1.27 3.48 1.27zM80.2 217.78c1.27 0 2.54-.32 3.5-1.27.94-.94 1.26-1.9 1.26-3.16 0-1.27-.32-2.53-1.27-3.5-.96-.94-2.23-1.25-3.5-1.25s-2.22.3-3.17 1.25c-.95.96-1.27 2.22-1.27 3.5 0 1.26.32 2.2 1.27 3.16s1.9 1.28 3.17 1.28zM35.2 201.93c1.25 0 2.52-.32 3.16-1.27.95-.95 1.58-2.22 1.58-3.5 0-1.25-.63-2.2-1.58-3.16-.64-.95-1.9-1.58-3.17-1.58-1.28 0-2.55.63-3.5 1.58-.63.95-1.27 1.9-1.27 3.17s.64 2.54 1.27 3.5c.95.94 2.22 1.26 3.5 1.26zM130.92 271.03c1.27 0 2.22-.3 3.17-1.26.94-.95 1.58-2.22 1.58-3.5 0-1.26-.64-2.2-1.6-3.16-.94-.94-1.9-1.58-3.16-1.58-1.27 0-2.53.64-3.5 1.6-.94.94-1.25 1.9-1.25 3.16 0 1.27.3 2.54 1.26 3.5.96.94 2.22 1.25 3.5 1.25zM51.04 186.08c1.27 0 2.53-.64 3.48-1.27.64-.94 1.27-2.2 1.27-3.48 0-1.26-.64-2.53-1.28-3.17-.95-.95-2.22-1.58-3.48-1.58-1.27 0-2.54.63-3.17 1.58-.95.64-1.6 1.9-1.6 3.17s.65 2.54 1.6 3.5c.63.63 1.9 1.26 3.17 1.26zM88.44 286.9c.95 0 2.22-.33 3.17-1.28.96-.95 1.28-2.22 1.28-3.17 0-1.27-.32-2.54-1.27-3.5-.94-.94-2.2-1.26-3.16-1.26-1.26 0-2.53.3-3.48 1.26-.95.95-1.27 2.22-1.27 3.5 0 .94.3 2.2 1.26 3.16.95.95 2.22 1.26 3.48 1.26zM149.3 226.02c1.27 0 2.54-.63 3.5-1.58.94-.96 1.26-1.9 1.26-3.17s-.3-2.54-1.27-3.5c-.96-.94-2.23-1.26-3.5-1.26-1.26 0-2.2.33-3.16 1.28-.95.95-1.6 2.22-1.6 3.5 0 1.25.65 2.2 1.6 3.16.95.95 1.9 1.58 3.17 1.58zM144.24 286.9c1.26 0 2.2-.33 3.16-1.28s1.27-2.22 1.27-3.17c0-1.27-.3-2.54-1.26-3.5-.95-.94-1.9-1.26-3.16-1.26-1.27 0-2.54.3-3.5 1.26-.94.95-1.26 2.22-1.26 3.5 0 .94.32 2.2 1.27 3.16.95.95 2.22 1.26 3.5 1.26zM109.68 271.03c1.27 0 2.22-.3 3.17-1.26.95-.95 1.27-2.22 1.27-3.5 0-1.26-.32-2.2-1.27-3.16-.95-.94-1.9-1.58-3.17-1.58s-2.53.64-3.48 1.6c-.96.94-1.27 1.9-1.27 3.16 0 1.27.3 2.54 1.27 3.5.95.94 2.2 1.25 3.48 1.25zM53.9 223.17c1.26 0 2.2-.32 3.16-1.27.95-.95 1.27-2.22 1.27-3.5 0-1.25-.32-2.2-1.27-3.16-.95-.95-1.9-1.26-3.17-1.26-1.28 0-2.55.3-3.5 1.26-.95.95-1.27 1.9-1.27 3.17 0 1.28.32 2.55 1.27 3.5.95.95 2.22 1.27 3.5 1.27zM146.77 276.42c1.27 0 2.54-.63 3.17-1.26.95-.96 1.6-2.22 1.6-3.5 0-1.26-.65-2.53-1.6-3.16-.63-.95-1.9-1.6-3.17-1.6s-2.53.65-3.5 1.6c-.62.63-1.25 1.9-1.25 3.17s.63 2.53 1.26 3.5c.96.62 2.22 1.25 3.5 1.25zM130.92 239.34c1.27 0 2.22-.64 3.17-1.6.94-.94 1.58-1.9 1.58-3.16 0-1.27-.64-2.54-1.6-3.5-.94-.94-1.9-1.26-3.16-1.26-1.27 0-2.53.32-3.5 1.27-.94.94-1.25 2.2-1.25 3.48 0 1.27.3 2.22 1.26 3.17.96.95 2.22 1.6 3.5 1.6zM114.75 178.15c1.27 0 2.54-.63 3.5-1.58.94-.63 1.26-1.9 1.26-3.17s-.3-2.54-1.26-3.5c-.95-.62-2.22-1.26-3.5-1.26-1.25 0-2.2.64-3.16 1.27-.95.96-1.26 2.23-1.26 3.5s.3 2.53 1.26 3.17c.95.95 1.9 1.58 3.17 1.58zM117.6 204.78c1.28 0 2.23-.63 3.18-1.58.95-.95 1.58-1.9 1.58-3.17s-.63-2.54-1.58-3.5c-.95-.94-1.9-1.26-3.17-1.26-1.26 0-2.53.32-3.48 1.27-.95.95-1.27 2.22-1.27 3.5 0 1.26.32 2.2 1.27 3.16.95.95 2.22 1.58 3.5 1.58zM90.98 207.32c1.27 0 2.53-.64 3.17-1.27.95-.95 1.58-2.22 1.58-3.5 0-1.25-.63-2.52-1.58-3.16-.64-.96-1.9-1.6-3.17-1.6s-2.54.64-3.5 1.6c-.62.63-1.26 1.9-1.26 3.16 0 1.27.64 2.54 1.27 3.5.94.62 2.2 1.26 3.48 1.26zM40.58 188.6c1.26 0 2.22-.3 3.17-1.25.95-.95 1.58-2.22 1.58-3.5 0-1.26-.63-2.2-1.58-3.16-.95-.96-1.9-1.28-3.17-1.28s-2.54.32-3.5 1.27c-.94.94-1.26 1.9-1.26 3.16 0 1.27.32 2.54 1.27 3.5.94.94 2.2 1.25 3.48 1.25zM123 295.13c.95 0 2.22-.64 3.17-1.6.95-.94 1.26-1.9 1.26-3.16 0-1.27-.3-2.53-1.26-3.5-.95-.94-2.22-1.25-3.17-1.25-1.27 0-2.54.3-3.5 1.26-.94.96-1.26 2.22-1.26 3.5 0 1.26.32 2.2 1.27 3.16.96.95 2.23 1.6 3.5 1.6zM56.43 204.78c1.26 0 2.53-.63 3.17-1.58.95-.95 1.58-1.9 1.58-3.17s-.63-2.54-1.58-3.5c-.64-.94-1.9-1.26-3.17-1.26s-2.54.32-3.5 1.27c-.63.95-1.26 2.22-1.26 3.5 0 1.26.63 2.2 1.27 3.16.95.95 2.22 1.58 3.5 1.58zM40.58 252.33c1.26 0 2.22-.3 3.17-1.27.95-.95 1.58-1.9 1.58-3.17s-.63-2.54-1.58-3.5c-.95-.94-1.9-1.26-3.17-1.26s-2.54.32-3.5 1.27c-.94.96-1.26 2.23-1.26 3.5 0 1.26.32 2.2 1.27 3.16.94.96 2.2 1.27 3.48 1.27zM48.5 292.27c1.27 0 2.54-.3 3.17-1.26.95-.94 1.6-2.2 1.6-3.48 0-1.27-.65-2.22-1.6-3.17-.63-.95-1.9-1.6-3.17-1.6s-2.54.65-3.5 1.6c-.62.95-1.25 1.9-1.25 3.17s.63 2.54 1.26 3.5c.96.94 2.23 1.25 3.5 1.25zM72.28 167.38c1.26 0 2.53-.32 3.48-1.27.95-.94 1.27-2.2 1.27-3.48 0-1.27-.32-2.22-1.27-3.17-.95-.95-2.22-1.58-3.48-1.58-1.27 0-2.22.63-3.17 1.58-.94.95-1.58 1.9-1.58 3.17s.64 2.54 1.6 3.5c.94.94 1.9 1.26 3.16 1.26zM120.14 223.17c1.27 0 2.54-.32 3.5-1.27.62-.95 1.26-2.22 1.26-3.5 0-1.25-.64-2.2-1.27-3.16-.95-.95-2.22-1.26-3.5-1.26-1.25 0-2.52.3-3.16 1.26-.95.95-1.58 1.9-1.58 3.17 0 1.28.62 2.55 1.57 3.5.64.95 1.9 1.27 3.17 1.27zM133.46 199.4c1.26 0 2.53-.64 3.48-1.6.64-.63 1.27-1.9 1.27-3.16 0-1.27-.62-2.54-1.26-3.5-.95-.62-2.22-1.26-3.48-1.26-1.27 0-2.54.64-3.17 1.27-.96.95-1.6 2.22-1.6 3.5 0 1.26.64 2.52 1.6 3.16.62.96 1.9 1.6 3.16 1.6z" stroke="#699cb1" stroke-width=".13" fill="#699cb1"/><path d="M154.7 228.56c1.26 0 2.53-.64 3.48-1.27.64-.96 1.27-2.23 1.27-3.5s-.63-2.53-1.27-3.17c-.95-.95-2.22-1.58-3.48-1.58-1.27 0-2.54.63-3.17 1.58-.96.64-1.6 1.9-1.6 3.17s.64 2.54 1.6 3.5c.63.62 1.9 1.26 3.17 1.26zM35.2 191.47c1.25 0 2.52-.64 3.16-1.6.95-.94 1.58-1.9 1.58-3.16 0-1.25-.63-2.52-1.58-3.47-.64-.96-1.9-1.27-3.17-1.27-1.28 0-2.55.3-3.5 1.27-.63.95-1.27 2.22-1.27 3.48 0 1.28.64 2.23 1.27 3.18.95.95 2.22 1.6 3.5 1.6zM120.14 215.24c1.27 0 2.54-.3 3.5-1.26.62-.96 1.26-2.22 1.26-3.5 0-1.26-.64-2.53-1.27-3.16-.95-.95-2.22-1.6-3.5-1.6-1.25 0-2.52.65-3.16 1.6-.95.63-1.58 1.9-1.58 3.17 0 1.26.62 2.52 1.57 3.48.64.95 1.9 1.26 3.17 1.26zM104.3 164.84c1.26 0 2.53-.63 3.16-1.6.95-.62 1.6-1.9 1.6-3.16 0-1.26-.65-2.53-1.6-3.48-.63-.64-1.9-1.27-3.17-1.27s-2.54.63-3.5 1.27c-.63.95-1.26 2.22-1.26 3.5 0 1.25.63 2.52 1.27 3.16.96.95 2.23 1.58 3.5 1.58zM114.75 247.26c1.27 0 2.54-.63 3.5-1.58.94-.64 1.26-1.9 1.26-3.18 0-1.26-.3-2.53-1.26-3.48-.95-.64-2.22-1.27-3.5-1.27-1.25 0-2.2.63-3.16 1.27-.95.95-1.26 2.22-1.26 3.48 0 1.27.3 2.54 1.26 3.18.95.95 1.9 1.58 3.17 1.58zM72.28 217.78c1.26 0 2.53-.32 3.48-1.27.95-.94 1.27-1.9 1.27-3.16 0-1.27-.32-2.53-1.27-3.5-.95-.94-2.22-1.25-3.48-1.25-1.27 0-2.22.3-3.17 1.25-.94.96-1.58 2.22-1.58 3.5 0 1.26.64 2.2 1.6 3.16.94.96 1.9 1.28 3.16 1.28zM80.2 289.74c1.27 0 2.54-.64 3.5-1.6.94-.62 1.26-1.9 1.26-3.16 0-1.26-.32-2.53-1.27-3.48-.96-.64-2.23-1.27-3.5-1.27s-2.22.63-3.17 1.27c-.95.95-1.27 2.22-1.27 3.48 0 1.27.32 2.54 1.27 3.17.95.95 1.9 1.6 3.17 1.6z" stroke="#699cb1" stroke-width=".13" fill="#699cb1"/><path d="M40.58 196.54c1.26 0 2.22-.32 3.17-1.27.95-.95 1.58-2.22 1.58-3.17 0-1.27-.63-2.53-1.58-3.5-.95-.94-1.9-1.25-3.17-1.25s-2.54.3-3.5 1.26c-.94.97-1.26 2.23-1.26 3.5 0 .95.32 2.22 1.27 3.17.94.95 2.2 1.27 3.48 1.27zM58.96 178.15c1.27 0 2.54-.63 3.5-1.58.94-.63 1.26-1.9 1.26-3.17s-.32-2.54-1.27-3.5c-.95-.62-2.22-1.26-3.5-1.26-1.26 0-2.2.64-3.16 1.27-.96.96-1.6 2.23-1.6 3.5s.64 2.53 1.6 3.17c.94.95 1.9 1.58 3.16 1.58zM32.65 170.23c.95 0 2.22-.63 3.17-1.6.95-.94 1.27-1.9 1.27-3.16 0-1.26-.33-2.53-1.28-3.48-.95-.96-2.22-1.28-3.17-1.28-1.27 0-2.53.32-3.5 1.27-.94.94-1.25 2.2-1.25 3.47s.3 2.22 1.26 3.17c.96.96 2.22 1.6 3.5 1.6zM98.9 239.34c1.27 0 2.54-.64 3.5-1.6.63-.94 1.26-1.9 1.26-3.16 0-1.27-.63-2.54-1.27-3.5-.96-.94-2.23-1.26-3.5-1.26-1.26 0-2.53.32-3.17 1.27-.95.94-1.58 2.2-1.58 3.48 0 1.27.63 2.22 1.58 3.17.64.95 1.9 1.6 3.17 1.6zM130.92 191.47c1.27 0 2.22-.64 3.17-1.6.94-.94 1.58-1.9 1.58-3.16 0-1.25-.64-2.52-1.6-3.47-.94-.96-1.9-1.27-3.16-1.27-1.27 0-2.53.3-3.5 1.27-.94.95-1.25 2.22-1.25 3.48 0 1.28.3 2.23 1.26 3.18.96.95 2.22 1.6 3.5 1.6zM56.43 236.48c1.26 0 2.53-.3 3.17-1.27.95-.94 1.58-2.2 1.58-3.47s-.63-2.22-1.58-3.17c-.64-.95-1.9-1.6-3.17-1.6s-2.54.65-3.5 1.6c-.63.95-1.26 1.9-1.26 3.17s.63 2.53 1.27 3.48c.95.97 2.22 1.28 3.5 1.28zM106.83 249.8c1.27 0 2.53-.64 3.5-1.27.94-.95 1.25-2.22 1.25-3.5 0-1.26-.3-2.53-1.26-3.16-.95-.95-2.22-1.58-3.5-1.58-1.26 0-2.2.62-3.16 1.57-.95.63-1.6 1.9-1.6 3.17s.65 2.54 1.6 3.5c.95.62 1.9 1.26 3.17 1.26zM43.1 276.42c1.28 0 2.55-.63 3.5-1.26.63-.96 1.27-2.22 1.27-3.5 0-1.26-.64-2.53-1.27-3.16-.95-.95-2.22-1.6-3.5-1.6-1.26 0-2.52.65-3.16 1.6-.95.63-1.58 1.9-1.58 3.17s.63 2.53 1.58 3.5c.64.62 1.9 1.25 3.17 1.25zM75.13 220.63c1.27 0 2.22-.63 3.17-1.58.95-.64 1.27-1.9 1.27-3.17s-.32-2.54-1.27-3.5c-.95-.62-1.9-1.26-3.17-1.26s-2.54.64-3.5 1.27c-.94.94-1.26 2.2-1.26 3.48 0 1.27.32 2.53 1.27 3.17.95.95 2.22 1.58 3.5 1.58zM141.38 244.4c1.27 0 2.54-.3 3.5-1.26.62-.95 1.26-2.22 1.26-3.5 0-1.26-.64-2.2-1.27-3.16-.95-.95-2.22-1.27-3.5-1.27-1.26 0-2.52.33-3.16 1.28-.94.95-1.57 1.9-1.57 3.17s.63 2.54 1.58 3.5c.65.94 1.9 1.26 3.18 1.26zM157.23 186.08c1.27 0 2.54-.64 3.5-1.27.94-.94 1.26-2.2 1.26-3.48 0-1.26-.33-2.53-1.28-3.17-.95-.95-2.22-1.58-3.5-1.58-.94 0-2.2.63-3.16 1.58-.95.64-1.27 1.9-1.27 3.17s.3 2.54 1.26 3.5c.95.63 2.22 1.26 3.17 1.26zM104.3 172.77c1.26 0 2.53-.64 3.16-1.27.95-.95 1.6-2.22 1.6-3.5 0-1.26-.65-2.53-1.6-3.16-.63-.95-1.9-1.6-3.17-1.6s-2.54.65-3.5 1.6c-.63.63-1.26 1.9-1.26 3.17 0 1.28.63 2.55 1.27 3.5.96.63 2.23 1.27 3.5 1.27zM83.05 271.03c1.27 0 2.54-.3 3.17-1.26.96-.95 1.6-2.22 1.6-3.5 0-1.26-.64-2.2-1.6-3.16-.63-.94-1.9-1.58-3.17-1.58-1.26 0-2.53.64-3.48 1.6-.64.94-1.27 1.9-1.27 3.16 0 1.27.63 2.54 1.27 3.5.95.94 2.22 1.25 3.48 1.25zM93.52 209.85c1.26 0 2.53-.3 3.48-1.26.95-.96 1.27-2.23 1.27-3.5 0-.95-.32-2.22-1.27-3.17-.95-.95-2.22-1.27-3.48-1.27-1.27 0-2.22.32-3.17 1.27-.96.95-1.6 2.22-1.6 3.17 0 1.27.64 2.54 1.6 3.5.95.94 1.9 1.25 3.17 1.25zM98.9 271.03c1.27 0 2.54-.3 3.5-1.26.63-.95 1.26-2.22 1.26-3.5 0-1.26-.63-2.2-1.27-3.16-.96-.94-2.23-1.58-3.5-1.58-1.26 0-2.53.64-3.17 1.6-.95.94-1.58 1.9-1.58 3.16 0 1.27.63 2.54 1.58 3.5.64.94 1.9 1.25 3.17 1.25z" stroke="#699cb1" stroke-width=".13" fill="#699cb1"/><path d="M101.44 180.7c1.27 0 2.54-.33 3.5-1.28.94-.95 1.26-2.22 1.26-3.48 0-1.27-.32-2.22-1.27-3.17-.95-.96-2.22-1.6-3.5-1.6-.94 0-2.2.64-3.16 1.6-.95.95-1.27 1.9-1.27 3.16 0 1.27.32 2.54 1.27 3.5.95.94 2.22 1.26 3.17 1.26zM72.28 186.08c1.26 0 2.53-.64 3.48-1.27.95-.94 1.27-2.2 1.27-3.48 0-1.26-.32-2.53-1.27-3.17-.95-.95-2.22-1.58-3.48-1.58-1.27 0-2.22.63-3.17 1.58-.94.64-1.58 1.9-1.58 3.17s.64 2.54 1.6 3.5c.94.63 1.9 1.26 3.16 1.26zM27.26 236.48c1.27 0 2.22-.3 3.17-1.27.95-.94 1.6-2.2 1.6-3.47s-.65-2.22-1.6-3.17c-.95-.95-1.9-1.6-3.17-1.6s-2.53.65-3.5 1.6c-.94.95-1.25 1.9-1.25 3.17s.32 2.53 1.27 3.48c.96.97 2.22 1.28 3.5 1.28z" stroke="#699cb1" stroke-width=".13" fill="#699cb1"/><path d="M69.74 183.23c1.27 0 2.54-.32 3.17-1.27.96-.95 1.6-1.9 1.6-3.17 0-1.28-.64-2.55-1.6-3.5-.62-.95-1.9-1.27-3.16-1.27-1.27 0-2.54.32-3.5 1.27-.62.95-1.25 2.22-1.25 3.5-.02 1.26.62 2.2 1.25 3.16.95.95 2.22 1.27 3.5 1.27zM123 215.24c.95 0 2.22-.3 3.17-1.26.95-.96 1.26-2.22 1.26-3.5 0-1.26-.3-2.53-1.26-3.16-.95-.95-2.22-1.6-3.17-1.6-1.27 0-2.54.65-3.5 1.6-.94.63-1.26 1.9-1.26 3.17 0 1.26.32 2.52 1.27 3.48.96.95 2.23 1.26 3.5 1.26zM90.98 286.9c1.27 0 2.53-.33 3.17-1.28.95-.95 1.58-2.22 1.58-3.17 0-1.27-.63-2.54-1.58-3.5-.64-.94-1.9-1.26-3.17-1.26s-2.54.3-3.5 1.26c-.62.95-1.26 2.22-1.26 3.5 0 .94.64 2.2 1.27 3.16.94.95 2.2 1.26 3.48 1.26zM48.5 223.17c1.27 0 2.54-.32 3.17-1.27.95-.95 1.6-2.22 1.6-3.5 0-1.25-.65-2.2-1.6-3.16-.63-.95-1.9-1.26-3.17-1.26s-2.54.3-3.5 1.26c-.62.95-1.25 1.9-1.25 3.17 0 1.28.63 2.55 1.26 3.5.96.95 2.23 1.27 3.5 1.27zM104.3 172.77c1.26 0 2.53-.64 3.16-1.27.95-.95 1.6-2.22 1.6-3.5 0-1.26-.65-2.53-1.6-3.16-.63-.95-1.9-1.6-3.17-1.6s-2.54.65-3.5 1.6c-.63.63-1.26 1.9-1.26 3.17 0 1.28.63 2.55 1.27 3.5.96.63 2.23 1.27 3.5 1.27zM88.44 209.85c.95 0 2.22-.3 3.17-1.26.96-.96 1.28-2.23 1.28-3.5 0-.95-.32-2.22-1.27-3.17-.94-.95-2.2-1.27-3.16-1.27-1.26 0-2.53.32-3.48 1.27-.95.95-1.27 2.22-1.27 3.17 0 1.27.3 2.54 1.26 3.5.95.94 2.22 1.25 3.48 1.25zM77.66 273.57c1.27 0 2.54-.32 3.5-1.27.63-.95 1.26-1.9 1.26-3.17 0-1.26-.63-2.53-1.27-3.48-.95-.95-2.22-1.27-3.5-1.27-1.25 0-2.52.3-3.16 1.27-.96.95-1.6 2.22-1.6 3.48 0 1.27.64 2.22 1.6 3.17.63.95 1.9 1.27 3.16 1.27zM45.65 233.95c1.27 0 2.53-.64 3.48-1.6.96-.62 1.27-1.9 1.27-3.16 0-1.28-.3-2.54-1.27-3.5-.95-.63-2.2-1.26-3.48-1.26-1.27 0-2.22.63-3.17 1.26-.95.96-1.27 2.22-1.27 3.5 0 1.26.33 2.53 1.28 3.16.95.95 1.9 1.6 3.17 1.6zM61.82 249.8c1.26 0 2.2-.64 3.16-1.27.96-.95 1.6-2.22 1.6-3.5 0-1.26-.64-2.53-1.6-3.16-.95-.95-1.9-1.58-3.16-1.58-1.27 0-2.54.62-3.5 1.57-.94.63-1.26 1.9-1.26 3.17s.32 2.54 1.27 3.5c.95.62 2.22 1.26 3.5 1.26zM27.26 265.65c1.27 0 2.22-.32 3.17-1.27.95-.95 1.6-2.22 1.6-3.5 0-.94-.65-2.2-1.6-3.16-.95-.95-1.9-1.27-3.17-1.27s-2.53.32-3.5 1.27c-.94.95-1.25 2.22-1.25 3.17 0 1.26.32 2.53 1.27 3.48.96.95 2.22 1.27 3.5 1.27zM101.44 199.4c1.27 0 2.54-.64 3.5-1.6.94-.63 1.26-1.9 1.26-3.16 0-1.27-.32-2.54-1.27-3.5-.95-.62-2.22-1.26-3.5-1.26-.94 0-2.2.64-3.16 1.27-.95.95-1.27 2.22-1.27 3.5 0 1.26.32 2.52 1.27 3.16.95.96 2.22 1.6 3.17 1.6z" stroke="#699cb1" stroke-width=".13" fill="#699cb1"/><path d="M93.52 209.85c1.26 0 2.53-.3 3.48-1.26.95-.96 1.27-2.23 1.27-3.5 0-.95-.32-2.22-1.27-3.17-.95-.95-2.22-1.27-3.48-1.27-1.27 0-2.22.32-3.17 1.27-.96.95-1.6 2.22-1.6 3.17 0 1.27.64 2.54 1.6 3.5.95.94 1.9 1.25 3.17 1.25zM138.85 257.72c1.26 0 2.53-.32 3.17-1.27.95-.95 1.58-2.22 1.58-3.48 0-1.27-.63-2.22-1.58-3.17-.64-.96-1.9-1.6-3.17-1.6s-2.54.65-3.5 1.6c-.63.95-1.26 1.9-1.26 3.17 0 1.26.63 2.53 1.26 3.48.95.95 2.22 1.27 3.5 1.27zM85.6 220.63c1.26 0 2.53-.63 3.48-1.58.63-.64 1.27-1.9 1.27-3.17s-.64-2.54-1.27-3.5c-.95-.62-2.22-1.26-3.5-1.26-1.26 0-2.53.64-3.16 1.27-.95.94-1.58 2.2-1.58 3.48 0 1.27.63 2.53 1.58 3.17.63.95 1.9 1.58 3.17 1.58zM80.2 247.26c1.27 0 2.54-.63 3.5-1.58.94-.64 1.26-1.9 1.26-3.18 0-1.26-.32-2.53-1.27-3.48-.96-.64-2.23-1.27-3.5-1.27s-2.22.63-3.17 1.27c-.95.95-1.27 2.22-1.27 3.48 0 1.27.32 2.54 1.27 3.18.95.95 1.9 1.58 3.17 1.58zM37.72 236.48c1.27 0 2.54-.3 3.5-1.27.94-.94 1.26-2.2 1.26-3.47s-.32-2.22-1.27-3.17c-.94-.95-2.2-1.6-3.48-1.6-1.27 0-2.22.65-3.17 1.6-.95.95-1.58 1.9-1.58 3.17s.63 2.53 1.58 3.48c.95.97 1.9 1.28 3.17 1.28zM120.14 244.4c1.27 0 2.54-.3 3.5-1.26.62-.95 1.26-2.22 1.26-3.5 0-1.26-.64-2.2-1.27-3.16-.95-.95-2.22-1.27-3.5-1.27-1.25 0-2.52.33-3.16 1.28-.95.95-1.58 1.9-1.58 3.17s.62 2.54 1.57 3.5c.64.94 1.9 1.26 3.17 1.26zM45.65 273.57c1.27 0 2.53-.32 3.48-1.27.96-.95 1.27-1.9 1.27-3.17 0-1.26-.3-2.53-1.27-3.48-.95-.95-2.2-1.27-3.48-1.27-1.27 0-2.22.3-3.17 1.27-.95.95-1.27 2.22-1.27 3.48 0 1.27.33 2.22 1.28 3.17.95.95 1.9 1.27 3.17 1.27zM61.82 281.8c1.26 0 2.2-.62 3.16-1.57.96-.95 1.6-1.9 1.6-3.17s-.64-2.54-1.6-3.5c-.95-.94-1.9-1.26-3.16-1.26-1.27 0-2.54.32-3.5 1.27-.94.95-1.26 2.22-1.26 3.5 0 1.26.32 2.2 1.27 3.16.95.95 2.22 1.58 3.5 1.58zM27.26 273.57c1.27 0 2.22-.32 3.17-1.27.95-.95 1.6-1.9 1.6-3.17 0-1.26-.65-2.53-1.6-3.48-.95-.95-1.9-1.27-3.17-1.27s-2.53.3-3.5 1.27c-.94.95-1.25 2.22-1.25 3.48 0 1.27.32 2.22 1.27 3.17.96.95 2.22 1.27 3.5 1.27zM66.9 255.2c1.25 0 2.52-.65 3.47-1.6.95-.63 1.27-1.9 1.27-3.17s-.3-2.54-1.27-3.5c-.95-.62-2.22-1.25-3.48-1.25-.96 0-2.23.63-3.18 1.26-.95.95-1.27 2.22-1.27 3.5 0 1.26.32 2.53 1.27 3.16.95.95 2.22 1.6 3.17 1.6z" stroke="#699cb1" stroke-width=".13" fill="#699cb1"/><path d="M56.43 284.35c1.26 0 2.53-.63 3.17-1.27.95-.95 1.58-2.22 1.58-3.5 0-1.25-.63-2.52-1.58-3.16-.64-.95-1.9-1.58-3.17-1.58s-2.54.63-3.5 1.58c-.63.64-1.26 1.9-1.26 3.17 0 1.26.63 2.53 1.27 3.48.95.64 2.22 1.27 3.5 1.27zM130.92 220.63c1.27 0 2.22-.63 3.17-1.58.94-.64 1.58-1.9 1.58-3.17s-.64-2.54-1.6-3.5c-.94-.62-1.9-1.26-3.16-1.26-1.27 0-2.53.64-3.5 1.27-.94.94-1.25 2.2-1.25 3.48 0 1.27.3 2.53 1.26 3.17.96.95 2.22 1.58 3.5 1.58zM146.77 226.02c1.27 0 2.54-.63 3.17-1.58.95-.96 1.6-1.9 1.6-3.17s-.65-2.54-1.6-3.5c-.63-.94-1.9-1.26-3.17-1.26s-2.53.33-3.5 1.28c-.62.95-1.25 2.22-1.25 3.5 0 1.25.63 2.2 1.26 3.16.96.95 2.22 1.58 3.5 1.58zM53.9 172.77c1.26 0 2.2-.64 3.16-1.27.95-.95 1.27-2.22 1.27-3.5 0-1.26-.32-2.53-1.27-3.16-.95-.95-1.9-1.6-3.17-1.6-1.28 0-2.55.65-3.5 1.6-.95.63-1.27 1.9-1.27 3.17 0 1.28.32 2.55 1.27 3.5.95.63 2.22 1.27 3.5 1.27zM157.23 223.17c1.27 0 2.54-.32 3.5-1.27.94-.95 1.26-2.22 1.26-3.5 0-1.25-.33-2.2-1.28-3.16-.95-.95-2.22-1.26-3.5-1.26-.94 0-2.2.3-3.16 1.26-.95.95-1.27 1.9-1.27 3.17 0 1.28.3 2.55 1.26 3.5.95.95 2.22 1.27 3.17 1.27zM120.14 186.08c1.27 0 2.54-.64 3.5-1.27.62-.94 1.26-2.2 1.26-3.48 0-1.26-.64-2.53-1.27-3.17-.95-.95-2.22-1.58-3.5-1.58-1.25 0-2.52.63-3.16 1.58-.95.64-1.58 1.9-1.58 3.17s.62 2.54 1.57 3.5c.64.63 1.9 1.26 3.17 1.26zM75.13 204.78c1.27 0 2.22-.63 3.17-1.58.95-.95 1.27-1.9 1.27-3.17s-.32-2.54-1.27-3.5c-.95-.94-1.9-1.26-3.17-1.26s-2.54.32-3.5 1.27c-.94.95-1.26 2.22-1.26 3.5 0 1.26.32 2.2 1.27 3.16.95.95 2.22 1.58 3.5 1.58zM106.83 180.7c1.27 0 2.53-.33 3.5-1.28.94-.95 1.25-2.22 1.25-3.48 0-1.27-.3-2.22-1.26-3.17-.95-.96-2.22-1.6-3.5-1.6-1.26 0-2.2.64-3.16 1.6-.95.95-1.6 1.9-1.6 3.16 0 1.27.65 2.54 1.6 3.5.95.94 1.9 1.26 3.17 1.26zM75.13 175.3c1.27 0 2.22-.32 3.17-1.27.95-.95 1.27-2.22 1.27-3.48 0-.96-.32-2.22-1.27-3.17-.95-.95-1.9-1.27-3.17-1.27s-2.54.33-3.5 1.28c-.94.95-1.26 2.22-1.26 3.17 0 1.26.32 2.53 1.27 3.48.95.95 2.22 1.27 3.5 1.27z" stroke="#699cb1" stroke-width=".13" fill="#699cb1"/><path d="M202.56 156.9c1.27 0 2.54-.62 3.5-1.57.62-.63 1.26-1.9 1.26-3.17s-.64-2.54-1.27-3.5c-.95-.62-2.22-1.25-3.5-1.25-1.25 0-2.52.64-3.47 1.27-.64.95-1.27 2.22-1.27 3.5 0 1.26.64 2.53 1.28 3.16.95.95 2.22 1.58 3.48 1.58zM210.5 45.33c1.26 0 2.52-.63 3.48-1.58.63-.95 1.26-1.9 1.26-3.17s-.63-2.54-1.26-3.5c-.96-.94-2.22-1.26-3.5-1.26-1.26 0-2.53.32-3.16 1.27-.95.94-1.6 2.2-1.6 3.48 0 1.26.65 2.22 1.6 3.17.63.95 1.9 1.58 3.17 1.58zM231.73 215.24c1.27 0 2.53-.3 3.48-1.26.65-.96 1.28-2.22 1.28-3.5 0-1.26-.63-2.53-1.27-3.16-.94-.95-2.2-1.6-3.47-1.6s-2.54.65-3.17 1.6c-.95.63-1.6 1.9-1.6 3.17 0 1.26.65 2.52 1.6 3.48.63.95 1.9 1.26 3.17 1.26zM138.85 90.34c1.26 0 2.53-.3 3.17-1.26.95-.95 1.58-2.22 1.58-3.5 0-1.26-.63-2.2-1.58-3.16-.64-.95-1.9-1.58-3.17-1.58s-2.54.63-3.5 1.58c-.63.95-1.26 1.9-1.26 3.17 0 1.26.63 2.53 1.26 3.48.95.95 2.22 1.27 3.5 1.27zM229.2 156.9c1.26 0 2.53-.62 3.16-1.57.95-.63 1.6-1.9 1.6-3.17s-.65-2.54-1.6-3.5c-.63-.62-1.9-1.25-3.17-1.25-1.28 0-2.54.64-3.5 1.27-.63.95-1.26 2.22-1.26 3.5 0 1.26.63 2.53 1.26 3.16.96.95 2.22 1.58 3.5 1.58zM80.2 82.42c1.27 0 2.54-.63 3.5-1.27.94-.95 1.26-2.22 1.26-3.5 0-1.25-.32-2.52-1.27-3.16-.96-.96-2.23-1.6-3.5-1.6s-2.22.64-3.17 1.6c-.95.63-1.27 1.9-1.27 3.16 0 1.27.32 2.54 1.27 3.5.95.63 1.9 1.26 3.17 1.26zM64.35 32.02c1.27 0 2.54-.64 3.5-1.6.62-.62 1.26-1.9 1.26-3.16 0-1.27-.63-2.53-1.26-3.5-.95-.62-2.22-1.25-3.5-1.25-1.26 0-2.52.64-3.16 1.27-.95.96-1.58 2.22-1.58 3.5 0 1.26.63 2.53 1.58 3.16.64.95 1.9 1.6 3.17 1.6z" stroke="#ac7a3a" stroke-width=".13" fill="#ac7a3a"/><path d="M80.2 82.42c1.27 0 2.54-.63 3.5-1.27.94-.95 1.26-2.22 1.26-3.5 0-1.25-.32-2.52-1.27-3.16-.96-.96-2.23-1.6-3.5-1.6s-2.22.64-3.17 1.6c-.95.63-1.27 1.9-1.27 3.16 0 1.27.32 2.54 1.27 3.5.95.63 1.9 1.26 3.17 1.26zM175.94 135.68c1.26 0 2.53-.64 3.48-1.6.64-.94 1.27-1.9 1.27-3.16 0-1.27-.64-2.53-1.28-3.5-.95-.94-2.22-1.25-3.48-1.25-1.27 0-2.54.3-3.17 1.26-.96.96-1.6 2.22-1.6 3.5 0 1.26.64 2.2 1.6 3.16.63.94 1.9 1.58 3.16 1.58zM130.92 63.72c1.27 0 2.22-.32 3.17-1.27.94-.95 1.58-2.22 1.58-3.5 0-1.26-.64-2.2-1.6-3.16-.94-.96-1.9-1.28-3.16-1.28-1.27 0-2.53.32-3.5 1.27-.94.94-1.25 1.9-1.25 3.16 0 1.27.3 2.54 1.26 3.5.96.94 2.22 1.26 3.5 1.26zM260.9 263.1c1.26 0 2.53-.62 3.48-1.26.95-.95 1.27-2.22 1.27-3.5 0-1.25-.32-2.52-1.27-3.15-.95-.97-2.22-1.6-3.5-1.6-1.26 0-2.2.63-3.16 1.6-.95.62-1.27 1.9-1.27 3.15 0 1.27.32 2.54 1.27 3.5.95.63 1.9 1.26 3.17 1.26zM154.7 47.87c1.26 0 2.53-.64 3.48-1.27.64-.95 1.27-2.22 1.27-3.5 0-1.26-.63-2.52-1.27-3.16-.95-.95-2.22-1.58-3.48-1.58-1.27 0-2.54.63-3.17 1.58-.96.64-1.6 1.9-1.6 3.17 0 1.28.64 2.55 1.6 3.5.63.63 1.9 1.27 3.17 1.27z" stroke="#ac7a3a" stroke-width=".13" fill="#ac7a3a"/><path d="M123 63.72c.95 0 2.22-.32 3.17-1.27.95-.95 1.26-2.22 1.26-3.5 0-1.26-.3-2.2-1.26-3.16-.95-.96-2.22-1.28-3.17-1.28-1.27 0-2.54.32-3.5 1.27-.94.94-1.26 1.9-1.26 3.16 0 1.27.32 2.54 1.27 3.5.96.94 2.23 1.26 3.5 1.26zM252.97 167.38c1.26 0 2.53-.32 3.48-1.27.95-.94 1.27-2.2 1.27-3.48 0-1.27-.32-2.22-1.27-3.17-.95-.95-2.22-1.58-3.48-1.58-1.27 0-2.22.63-3.17 1.58-.96.95-1.6 1.9-1.6 3.17s.65 2.54 1.6 3.5c.95.94 1.9 1.26 3.17 1.26zM202.56 156.9c1.27 0 2.54-.62 3.5-1.57.62-.63 1.26-1.9 1.26-3.17s-.64-2.54-1.27-3.5c-.95-.62-2.22-1.25-3.5-1.25-1.25 0-2.52.64-3.47 1.27-.64.95-1.27 2.22-1.27 3.5 0 1.26.64 2.53 1.28 3.16.95.95 2.22 1.58 3.48 1.58zM189.25 74.5c1.27 0 2.53-.64 3.5-1.6.62-.62 1.25-1.9 1.25-3.16 0-1.27-.63-2.54-1.26-3.5-.96-.62-2.22-1.25-3.5-1.25-1.26-.02-2.53.62-3.16 1.25-.95.95-1.6 2.22-1.6 3.5 0 1.26.65 2.53 1.6 3.16.63.96 1.9 1.6 3.17 1.6z" stroke="#ac7a3a" stroke-width=".13" fill="#ac7a3a"/><path d="M146.77 226.02c1.27 0 2.54-.63 3.17-1.58.95-.96 1.6-1.9 1.6-3.17s-.65-2.54-1.6-3.5c-.63-.94-1.9-1.26-3.17-1.26s-2.53.33-3.5 1.28c-.62.95-1.25 2.22-1.25 3.5 0 1.25.63 2.2 1.26 3.16.96.95 2.22 1.58 3.5 1.58zM136 140.75c1.26 0 2.53-.32 3.48-1.27.95-.95 1.27-2.22 1.27-3.17 0-1.26-.32-2.53-1.27-3.48-.95-.95-2.22-1.26-3.5-1.26-1.25 0-2.2.3-3.16 1.26-.95.95-1.26 2.22-1.26 3.5 0 .94.3 2.2 1.26 3.16.95.95 1.9 1.27 3.17 1.27zM237.12 260.57c1.26 0 2.53-.63 3.17-1.58.94-.96 1.57-1.9 1.57-3.18 0-1.27-.63-2.54-1.58-3.5-.65-.94-1.92-1.26-3.18-1.26-1.27 0-2.54.32-3.5 1.27-.63.95-1.26 2.22-1.26 3.5 0 1.26.63 2.2 1.27 3.16.95.94 2.22 1.57 3.5 1.57zM90.98 217.78c1.27 0 2.53-.32 3.17-1.27.95-.94 1.58-1.9 1.58-3.16 0-1.27-.63-2.53-1.58-3.5-.64-.94-1.9-1.25-3.17-1.25s-2.54.3-3.5 1.25c-.62.96-1.26 2.22-1.26 3.5 0 1.26.64 2.2 1.27 3.16.94.96 2.2 1.28 3.48 1.28zM83.05 101.12c1.27 0 2.54-.63 3.17-1.58.96-.95 1.6-1.9 1.6-3.17s-.64-2.54-1.6-3.5c-.63-.94-1.9-1.26-3.17-1.26-1.26 0-2.53.33-3.48 1.28-.64.95-1.27 2.22-1.27 3.5 0 1.26.63 2.2 1.27 3.16.95.95 2.22 1.58 3.48 1.58zM32.65 170.23c.95 0 2.22-.63 3.17-1.6.95-.94 1.27-1.9 1.27-3.16 0-1.26-.33-2.53-1.28-3.48-.95-.96-2.22-1.28-3.17-1.28-1.27 0-2.53.32-3.5 1.27-.94.94-1.25 2.2-1.25 3.47s.3 2.22 1.26 3.17c.96.96 2.22 1.6 3.5 1.6zM35.2 201.93c1.25 0 2.52-.32 3.16-1.27.95-.95 1.58-2.22 1.58-3.5 0-1.25-.63-2.2-1.58-3.16-.64-.95-1.9-1.58-3.17-1.58-1.28 0-2.55.63-3.5 1.58-.63.95-1.27 1.9-1.27 3.17s.64 2.54 1.27 3.5c.95.94 2.22 1.26 3.5 1.26zM104.3 172.77c1.26 0 2.53-.64 3.16-1.27.95-.95 1.6-2.22 1.6-3.5 0-1.26-.65-2.53-1.6-3.16-.63-.95-1.9-1.6-3.17-1.6s-2.54.65-3.5 1.6c-.63.63-1.26 1.9-1.26 3.17 0 1.28.63 2.55 1.27 3.5.96.63 2.23 1.27 3.5 1.27zM45.65 233.95c1.27 0 2.53-.64 3.48-1.6.96-.62 1.27-1.9 1.27-3.16 0-1.28-.3-2.54-1.27-3.5-.95-.63-2.2-1.26-3.48-1.26-1.27 0-2.22.63-3.17 1.26-.95.96-1.27 2.22-1.27 3.5 0 1.26.33 2.53 1.28 3.16.95.95 1.9 1.6 3.17 1.6zM104.3 292.27c1.26 0 2.53-.3 3.16-1.26.95-.94 1.6-2.2 1.6-3.48 0-1.27-.65-2.22-1.6-3.17-.63-.95-1.9-1.6-3.17-1.6s-2.54.65-3.5 1.6c-.63.95-1.26 1.9-1.26 3.17s.63 2.54 1.27 3.5c.96.94 2.23 1.25 3.5 1.25zM77.66 228.56c1.27 0 2.54-.64 3.5-1.27.63-.96 1.26-2.23 1.26-3.5s-.63-2.53-1.27-3.17c-.95-.95-2.22-1.58-3.5-1.58-1.25 0-2.52.63-3.16 1.58-.96.64-1.6 1.9-1.6 3.17s.64 2.54 1.6 3.5c.63.62 1.9 1.26 3.16 1.26z" stroke="#3c5a67" stroke-width=".13" fill="#3c5a67"/><path d="M136 140.75c1.26 0 2.53-.32 3.48-1.27.95-.95 1.27-2.22 1.27-3.17 0-1.26-.32-2.53-1.27-3.48-.95-.95-2.22-1.26-3.5-1.26-1.25 0-2.2.3-3.16 1.26-.95.95-1.26 2.22-1.26 3.5 0 .94.3 2.2 1.26 3.16.95.95 1.9 1.27 3.17 1.27zM101.44 180.7c1.27 0 2.54-.33 3.5-1.28.94-.95 1.26-2.22 1.26-3.48 0-1.27-.32-2.22-1.27-3.17-.95-.96-2.22-1.6-3.5-1.6-.94 0-2.2.64-3.16 1.6-.95.95-1.27 1.9-1.27 3.16 0 1.27.32 2.54 1.27 3.5.95.94 2.22 1.26 3.17 1.26zM90.98 207.32c1.27 0 2.53-.64 3.17-1.27.95-.95 1.58-2.22 1.58-3.5 0-1.25-.63-2.52-1.58-3.16-.64-.96-1.9-1.6-3.17-1.6s-2.54.64-3.5 1.6c-.62.63-1.26 1.9-1.26 3.16 0 1.27.64 2.54 1.27 3.5.94.62 2.2 1.26 3.48 1.26zM117.6 204.78c1.28 0 2.23-.63 3.18-1.58.95-.95 1.58-1.9 1.58-3.17s-.63-2.54-1.58-3.5c-.95-.94-1.9-1.26-3.17-1.26-1.26 0-2.53.32-3.48 1.27-.95.95-1.27 2.22-1.27 3.5 0 1.26.32 2.2 1.27 3.16.95.95 2.22 1.58 3.5 1.58zM178.8 209.85c.94 0 2.2-.3 3.16-1.26.95-.96 1.27-2.23 1.27-3.5 0-.95-.32-2.22-1.27-3.17-.95-.95-2.22-1.27-3.17-1.27-1.28 0-2.55.32-3.5 1.27-.95.95-1.27 2.22-1.27 3.17 0 1.27.32 2.54 1.27 3.5.95.94 2.22 1.25 3.5 1.25zM75.13 175.3c1.27 0 2.22-.32 3.17-1.27.95-.95 1.27-2.22 1.27-3.48 0-.96-.32-2.22-1.27-3.17-.95-.95-1.9-1.27-3.17-1.27s-2.54.33-3.5 1.28c-.94.95-1.26 2.22-1.26 3.17 0 1.26.32 2.53 1.27 3.48.95.95 2.22 1.27 3.5 1.27zM53.9 172.77c1.26 0 2.2-.64 3.16-1.27.95-.95 1.27-2.22 1.27-3.5 0-1.26-.32-2.53-1.27-3.16-.95-.95-1.9-1.6-3.17-1.6-1.28 0-2.55.65-3.5 1.6-.95.63-1.27 1.9-1.27 3.17 0 1.28.32 2.55 1.27 3.5.95.63 2.22 1.27 3.5 1.27zM27.26 268.5c1.27 0 2.22-.63 3.17-1.6.95-.62 1.6-1.9 1.6-3.16 0-1.26-.65-2.53-1.6-3.48-.95-.64-1.9-1.27-3.17-1.27s-2.53.62-3.5 1.26c-.94.95-1.25 2.22-1.25 3.48 0 1.27.32 2.54 1.27 3.17.96.97 2.22 1.6 3.5 1.6zM133.46 199.4c1.26 0 2.53-.64 3.48-1.6.64-.63 1.27-1.9 1.27-3.16 0-1.27-.62-2.54-1.26-3.5-.95-.62-2.22-1.26-3.48-1.26-1.27 0-2.54.64-3.17 1.27-.96.95-1.6 2.22-1.6 3.5 0 1.26.64 2.52 1.6 3.16.62.96 1.9 1.6 3.16 1.6zM88.44 180.7c.95 0 2.22-.33 3.17-1.28.96-.95 1.28-2.22 1.28-3.48 0-1.27-.32-2.22-1.27-3.17-.94-.96-2.2-1.6-3.16-1.6-1.26 0-2.53.64-3.48 1.6-.95.95-1.27 1.9-1.27 3.16 0 1.27.3 2.54 1.26 3.5.95.94 2.22 1.26 3.48 1.26zM80.2 289.74c1.27 0 2.54-.64 3.5-1.6.94-.62 1.26-1.9 1.26-3.16 0-1.26-.32-2.53-1.27-3.48-.96-.64-2.23-1.27-3.5-1.27s-2.22.63-3.17 1.27c-.95.95-1.27 2.22-1.27 3.48 0 1.27.32 2.54 1.27 3.17.95.95 1.9 1.6 3.17 1.6z" stroke="#3c5a67" stroke-width=".13" fill="#3c5a67"/><path d="M88.44 201.93c.95 0 2.22-.32 3.17-1.27.96-.95 1.28-2.22 1.28-3.5 0-1.25-.32-2.2-1.27-3.16-.94-.95-2.2-1.58-3.16-1.58-1.26 0-2.53.63-3.48 1.58-.95.95-1.27 1.9-1.27 3.17s.3 2.54 1.26 3.5c.95.94 2.22 1.26 3.48 1.26zM109.68 260.57c1.27 0 2.22-.63 3.17-1.58.95-.96 1.27-1.9 1.27-3.18 0-1.27-.32-2.54-1.27-3.5-.95-.94-1.9-1.26-3.17-1.26s-2.53.32-3.48 1.27c-.96.95-1.27 2.22-1.27 3.5 0 1.26.3 2.2 1.27 3.16.95.94 2.2 1.57 3.48 1.57zM72.28 84.96c1.26 0 2.53-.32 3.48-1.27.95-.96 1.27-2.23 1.27-3.5 0-.95-.32-2.22-1.27-3.17-.95-.95-2.22-1.27-3.48-1.27-1.27 0-2.22.32-3.17 1.27-.94.95-1.58 2.22-1.58 3.17 0 1.27.64 2.54 1.6 3.5.94.94 1.9 1.26 3.16 1.26zM27.26 162c1.27 0 2.22-.33 3.17-1.28.95-.95 1.6-1.9 1.6-3.17s-.65-2.54-1.6-3.5c-.95-.94-1.9-1.26-3.17-1.26s-2.53.3-3.5 1.26c-.94.95-1.25 2.22-1.25 3.5 0 1.26.32 2.2 1.27 3.16.96.95 2.22 1.27 3.5 1.27zM58.96 178.15c1.27 0 2.54-.63 3.5-1.58.94-.63 1.26-1.9 1.26-3.17s-.32-2.54-1.27-3.5c-.95-.62-2.22-1.26-3.5-1.26-1.26 0-2.2.64-3.16 1.27-.96.96-1.6 2.23-1.6 3.5s.64 2.53 1.6 3.17c.94.95 1.9 1.58 3.16 1.58zM130.92 209.85c1.27 0 2.22-.3 3.17-1.26.94-.96 1.58-2.23 1.58-3.5 0-.95-.64-2.22-1.6-3.17-.94-.95-1.9-1.27-3.16-1.27-1.27 0-2.53.32-3.5 1.27-.94.95-1.25 2.22-1.25 3.17 0 1.27.3 2.54 1.26 3.5.96.94 2.22 1.25 3.5 1.25zM45.65 231.1c1.27 0 2.53-.32 3.48-1.28.96-.95 1.27-2.2 1.27-3.16 0-1.27-.3-2.54-1.27-3.5-.95-.94-2.2-1.26-3.48-1.26-1.27 0-2.22.32-3.17 1.27-.95.95-1.27 2.22-1.27 3.5 0 .94.33 2.2 1.28 3.16.95.95 1.9 1.26 3.17 1.26zM37.72 236.48c1.27 0 2.54-.3 3.5-1.27.94-.94 1.26-2.2 1.26-3.47s-.32-2.22-1.27-3.17c-.94-.95-2.2-1.6-3.48-1.6-1.27 0-2.22.65-3.17 1.6-.95.95-1.58 1.9-1.58 3.17s.63 2.53 1.58 3.48c.95.97 1.9 1.28 3.17 1.28zM80.2 289.74c1.27 0 2.54-.64 3.5-1.6.94-.62 1.26-1.9 1.26-3.16 0-1.26-.32-2.53-1.27-3.48-.96-.64-2.23-1.27-3.5-1.27s-2.22.63-3.17 1.27c-.95.95-1.27 2.22-1.27 3.48 0 1.27.32 2.54 1.27 3.17.95.95 1.9 1.6 3.17 1.6zM98.9 239.34c1.27 0 2.54-.64 3.5-1.6.63-.94 1.26-1.9 1.26-3.16 0-1.27-.63-2.54-1.27-3.5-.96-.94-2.23-1.26-3.5-1.26-1.26 0-2.53.32-3.17 1.27-.95.94-1.58 2.2-1.58 3.48 0 1.27.63 2.22 1.58 3.17.64.95 1.9 1.6 3.17 1.6zM40.58 194c1.26 0 2.22-.63 3.17-1.26.95-.96 1.58-2.22 1.58-3.5 0-1.26-.63-2.53-1.58-3.16-.95-.95-1.9-1.6-3.17-1.6s-2.54.65-3.5 1.6c-.94.63-1.26 1.9-1.26 3.17s.32 2.53 1.27 3.5c.94.62 2.2 1.25 3.48 1.25zM141.38 244.4c1.27 0 2.54-.3 3.5-1.26.62-.95 1.26-2.22 1.26-3.5 0-1.26-.64-2.2-1.27-3.16-.95-.95-2.22-1.27-3.5-1.27-1.26 0-2.52.33-3.16 1.28-.94.95-1.57 1.9-1.57 3.17s.63 2.54 1.58 3.5c.65.94 1.9 1.26 3.18 1.26z" stroke="#3c5a67" stroke-width=".13" fill="#3c5a67"/><path d="M213.3 152.05l148.26 17.62" fill="none"/><path d="M214.3 152.05c0 .55-.44 1-1 1-.55 0-1-.45-1-1s.45-1 1-1c.56 0 1 .45 1 1zm4 .48c0 .55-.44 1-1 1-.54 0-1-.45-1-1 0-.56.46-1 1-1 .56 0 1 .44 1 1zm4.02.47c0 .56-.45 1-1 1s-1-.44-1-1c0-.55.45-1 1-1s1 .45 1 1zm4 .48c0 .55-.44 1-1 1-.55 0-1-.45-1-1s.45-1 1-1c.56 0 1 .45 1 1zm4 .48c0 .55-.44 1-1 1-.54 0-1-.45-1-1 0-.56.46-1 1-1 .56 0 1 .44 1 1zm4.02.47c0 .55-.45 1-1 1s-1-.45-1-1 .45-1 1-1 1 .45 1 1zm4 .48c0 .56-.44 1-1 1-.55 0-1-.44-1-1 0-.54.45-1 1-1 .56 0 1 .46 1 1zm4 .48c0 .56-.44 1-1 1-.54 0-1-.44-1-1 0-.55.46-1 1-1 .56 0 1 .45 1 1zm4.02.48c0 .55-.45 1-1 1s-1-.45-1-1 .45-1 1-1 1 .45 1 1zm4 .48c0 .55-.44 1-1 1-.55 0-1-.45-1-1 0-.56.45-1 1-1 .56 0 1 .44 1 1zm4 .47c0 .56-.44 1-1 1-.54 0-1-.44-1-1 0-.54.46-1 1-1 .56 0 1 .46 1 1zm4.02.5c0 .54-.45 1-1 1s-1-.46-1-1c0-.56.45-1 1-1s1 .44 1 1zm4 .46c0 .56-.44 1-1 1-.55 0-1-.44-1-1 0-.55.45-1 1-1 .56 0 1 .45 1 1zm4 .48c0 .55-.44 1-1 1-.54 0-1-.45-1-1s.46-1 1-1c.56 0 1 .45 1 1zm4.02.48c0 .55-.45 1-1 1s-1-.45-1-1c0-.56.45-1 1-1s1 .44 1 1zm4 .47c0 .54-.44 1-1 1-.55 0-1-.46-1-1 0-.56.45-1 1-1 .56 0 1 .44 1 1zm4 .47c0 .55-.43 1-1 1-.54 0-1-.45-1-1s.46-1 1-1c.57 0 1 .45 1 1zm4.02.47c0 .56-.45 1-1 1s-1-.44-1-1c0-.55.45-1 1-1s1 .45 1 1zm4 .48c0 .55-.44 1-1 1-.55 0-1-.45-1-1s.45-1 1-1c.56 0 1 .45 1 1zm4 .48c0 .55-.43 1-1 1-.54 0-1-.45-1-1 0-.56.46-1 1-1 .57 0 1 .44 1 1zm4.02.47c0 .56-.45 1-1 1s-1-.44-1-1c0-.55.45-1 1-1s1 .45 1 1zm4 .48c0 .55-.44 1-1 1-.55 0-1-.45-1-1s.45-1 1-1c.56 0 1 .45 1 1zm4 .47c0 .56-.43 1-1 1-.54 0-1-.44-1-1 0-.55.46-1 1-1 .57 0 1 .45 1 1zm4.02.48c0 .55-.45 1-1 1s-1-.45-1-1 .45-1 1-1 1 .45 1 1zm4 .48c0 .55-.44 1-1 1-.55 0-1-.45-1-1 0-.56.45-1 1-1 .56 0 1 .44 1 1zm4 .47c0 .56-.43 1-1 1-.54 0-1-.44-1-1 0-.55.46-1 1-1 .57 0 1 .45 1 1zm4.02.48c0 .55-.45 1-1 1s-1-.45-1-1 .45-1 1-1 1 .45 1 1zm4 .48c0 .56-.44 1-1 1-.54 0-1-.44-1-1 0-.55.46-1 1-1 .56 0 1 .45 1 1zm4 .48c0 .55-.43 1-1 1-.54 0-1-.45-1-1s.46-1 1-1c.57 0 1 .45 1 1zm4.02.48c0 .55-.45 1-1 1s-1-.45-1-1 .45-1 1-1 1 .45 1 1zm4 .47c0 .56-.44 1-1 1-.54 0-1-.44-1-1 0-.55.46-1 1-1 .56 0 1 .45 1 1zm4 .48c0 .56-.43 1-1 1-.54 0-1-.44-1-1 0-.54.46-1 1-1 .57 0 1 .46 1 1zm4.02.5c0 .54-.45 1-1 1s-1-.46-1-1c0-.57.45-1 1-1s1 .43 1 1zm4 .46c0 .55-.44 1-1 1-.54 0-1-.45-1-1s.46-1 1-1c.56 0 1 .45 1 1zm4 .48c0 .55-.43 1-1 1-.54 0-1-.45-1-1s.46-1 1-1c.57 0 1 .45 1 1zm4.02.47c0 .57-.45 1-1 1s-1-.43-1-1c0-.54.45-1 1-1s1 .46 1 1zm4 .5c0 .54-.44 1-1 1-.54 0-1-.46-1-1 0-.56.46-1 1-1 .56 0 1 .44 1 1zm4.02.47c0 .55-.45 1-1 1-.56 0-1-.45-1-1 0-.56.44-1 1-1 .55 0 1 .44 1 1z" fill="#333"/><path d="M213.45 151.06l-.24 2-1.05-.14.16-.98-.1-1.03zM365.63 169.14l-2.98.6-1.17.38.17-1.45z" fill="#333"/><path d="M211.8 151.93c0 5.23-4.07 9.47-9.1 9.47-5.03 0-9.1-4.24-9.1-9.47 0-5.22 4.07-9.46 9.1-9.46 5.03 0 9.1 4.24 9.1 9.46z" fill-opacity="0"/><path d="M207.3 160.04l-2.34 1.07-2.26.3-3.03-.54-1.53-.87m-3.3-3.44l-.97-2.28-.28-2.35.5-3.15.78-1.46m3.23-3.5l2.34-1.06 2.26-.3 3.03.54 1.53.88m3.3 3.42l.97 2.3.28 2.33-.5 3.15-.78 1.46" stroke="#333" fill="none"/><path d="M186.73 205.66c0 4.33-3.7 7.85-8.3 7.85-4.58 0-8.3-3.5-8.3-7.84s3.72-7.85 8.3-7.85c4.6 0 8.3 3.52 8.3 7.86z" fill-opacity="0"/><path d="M182.45 212.43l-.46.32-3.07.74h-.5l-3.12-.57-.87-.53m-3.05-2.8l-.45-.58-.78-2.9-.02-.46.6-2.96.68-.98m3-2.84l.48-.32 3.06-.74h.5l3.12.56.88.54m3.05 2.8l.44.58.78 2.9v.46l-.6 2.95-.66 1" stroke="#333" fill="none"/><path d="M188.24 205.66h139.6" fill="none"/><path d="M189.24 205.66c0 .55-.45 1-1 1-.56 0-1-.45-1-1 0-.56.44-1 1-1 .55 0 1 .44 1 1zm3.98 0c0 .55-.44 1-1 1-.55 0-1-.45-1-1 0-.56.45-1 1-1 .56 0 1 .44 1 1zm4 0c0 .55-.45 1-1 1-.56 0-1-.45-1-1 0-.56.44-1 1-1 .55 0 1 .44 1 1zm3.98 0c0 .55-.45 1-1 1s-1-.45-1-1c0-.56.45-1 1-1s1 .44 1 1zm4 0c0 .55-.46 1-1 1-.56 0-1-.45-1-1 0-.56.44-1 1-1 .54 0 1 .44 1 1zm3.98 0c0 .55-.45 1-1 1s-1-.45-1-1c0-.56.45-1 1-1s1 .44 1 1zm4 0c0 .55-.46 1-1 1-.56 0-1-.45-1-1 0-.56.44-1 1-1 .54 0 1 .44 1 1zm3.98 0c0 .55-.45 1-1 1s-1-.45-1-1c0-.56.45-1 1-1s1 .44 1 1zm4 0c0 .55-.46 1-1 1-.56 0-1-.45-1-1 0-.56.44-1 1-1 .54 0 1 .44 1 1zm3.98 0c0 .55-.45 1-1 1-.56 0-1-.45-1-1 0-.56.44-1 1-1 .55 0 1 .44 1 1zm4 0c0 .55-.46 1-1 1-.57 0-1-.45-1-1 0-.56.43-1 1-1 .54 0 1 .44 1 1zm3.97 0c0 .55-.43 1-1 1-.54 0-1-.45-1-1 0-.56.46-1 1-1 .57 0 1 .44 1 1zm4 0c0 .55-.44 1-1 1-.55 0-1-.45-1-1 0-.56.45-1 1-1 .56 0 1 .44 1 1zm4 0c0 .55-.46 1-1 1-.56 0-1-.45-1-1 0-.56.44-1 1-1 .54 0 1 .44 1 1zm3.98 0c0 .55-.45 1-1 1s-1-.45-1-1c0-.56.45-1 1-1s1 .44 1 1zm4 0c0 .55-.46 1-1 1-.56 0-1-.45-1-1 0-.56.44-1 1-1 .54 0 1 .44 1 1zm3.98 0c0 .55-.45 1-1 1s-1-.45-1-1c0-.56.45-1 1-1s1 .44 1 1zm4 0c0 .55-.46 1-1 1-.56 0-1-.45-1-1 0-.56.44-1 1-1 .54 0 1 .44 1 1zm3.98 0c0 .55-.45 1-1 1s-1-.45-1-1c0-.56.45-1 1-1s1 .44 1 1zm4 0c0 .55-.46 1-1 1-.57 0-1-.45-1-1 0-.56.43-1 1-1 .54 0 1 .44 1 1zm3.98 0c0 .55-.45 1-1 1-.56 0-1-.45-1-1 0-.56.44-1 1-1 .55 0 1 .44 1 1zm3.98 0c0 .55-.44 1-1 1-.55 0-1-.45-1-1 0-.56.45-1 1-1 .56 0 1 .44 1 1zm4 0c0 .55-.45 1-1 1-.56 0-1-.45-1-1 0-.56.44-1 1-1 .55 0 1 .44 1 1zm3.98 0c0 .55-.44 1-1 1-.55 0-1-.45-1-1 0-.56.45-1 1-1 .56 0 1 .44 1 1zm4 0c0 .55-.46 1-1 1-.56 0-1-.45-1-1 0-.56.44-1 1-1 .54 0 1 .44 1 1zm3.98 0c0 .55-.45 1-1 1s-1-.45-1-1c0-.56.45-1 1-1s1 .44 1 1zm4 0c0 .55-.46 1-1 1-.56 0-1-.45-1-1 0-.56.44-1 1-1 .54 0 1 .44 1 1zm3.98 0c0 .55-.45 1-1 1s-1-.45-1-1c0-.56.45-1 1-1s1 .44 1 1zm4 0c0 .55-.46 1-1 1-.56 0-1-.45-1-1 0-.56.44-1 1-1 .54 0 1 .44 1 1zm3.98 0c0 .55-.45 1-1 1-.56 0-1-.45-1-1 0-.56.44-1 1-1 .55 0 1 .44 1 1zm4 0c0 .55-.46 1-1 1-.57 0-1-.45-1-1 0-.56.43-1 1-1 .54 0 1 .44 1 1zm3.98 0c0 .55-.45 1-1 1-.56 0-1-.45-1-1 0-.56.44-1 1-1 .55 0 1 .44 1 1zm3.98 0c0 .55-.44 1-1 1-.55 0-1-.45-1-1 0-.56.45-1 1-1 .56 0 1 .44 1 1zm4 0c0 .55-.45 1-1 1-.56 0-1-.45-1-1 0-.56.44-1 1-1 .55 0 1 .44 1 1zm3.98 0c0 .55-.45 1-1 1s-1-.45-1-1c0-.56.45-1 1-1s1 .44 1 1z" fill="#333"/><path d="M188.26 206.66h-1.22l.2-.96-.02-.6-.13-.44h1.16zM328.85 205.63l.07 1.03h-1.1v-2H329z" fill="#333"/><path d="M350.85 221.94c-11.6 0-21-7.3-21-16.28 0-7.2 5.7-13.26 14.5-15.5-.5-21.13 34.5-25.2 48.5-17.06 7-12.2 42-8.14 42 4.07 21-4.07 42 12.2 28 32.56 14 16.28 0 36.63-28 28.5-7 10.57-35 10.57-42 0-14 8.13-42 4.06-42-16.3z" stroke="#333" stroke-width="2" fill="#fff"/><use xlink:href="#a" transform="matrix(1,0,0,1,334.8539356506616,169.95728019654553) translate(18.456171874999995 19.6640625)"/><use xlink:href="#b" transform="matrix(1,0,0,1,334.8539356506616,169.95728019654553) translate(43.48221354166666 19.6640625)"/><use xlink:href="#c" transform="matrix(1,0,0,1,334.8539356506616,169.95728019654553) translate(64.26997395833334 19.6640625)"/><use xlink:href="#d" transform="matrix(1,0,0,1,334.8539356506616,169.95728019654553) translate(16.32921874999999 33.39453125)"/><use xlink:href="#e" transform="matrix(1,0,0,1,334.8539356506616,169.95728019654553) translate(48.588333333333324 33.39453125)"/><use xlink:href="#f" transform="matrix(1,0,0,1,334.8539356506616,169.95728019654553) translate(84.79276041666667 33.39453125)"/><use xlink:href="#g" transform="matrix(1,0,0,1,334.8539356506616,169.95728019654553) translate(35.88130208333333 47.125)"/><use xlink:href="#h" transform="matrix(1,0,0,1,334.8539356506616,169.95728019654553) translate(66.9425 47.125)"/><use xlink:href="#i" transform="matrix(1,0,0,1,334.8539356506616,169.95728019654553) translate(46.811640624999995 60.85546875)"/><path d="M329.85 56.65c0-3.87 3.14-7 7-7h126c3.87 0 7 3.13 7 7v66c0 3.86-3.13 7-7 7h-126c-3.86 0-7-3.14-7-7z" stroke="#000" stroke-opacity="0" stroke-width="2" fill="#999"/><path d="M346.85 52.65h123v74h-123z" stroke="#000" stroke-opacity="0" stroke-width="2" fill="#fff" fill-opacity="0"/><g><use xlink:href="#j" transform="matrix(1,0,0,1,351.8539356506616,57.64859405692749) translate(0 14.666666666666668)"/><use xlink:href="#k" transform="matrix(1,0,0,1,351.8539356506616,57.64859405692749) translate(36.96296296296297 14.666666666666668)"/><use xlink:href="#j" transform="matrix(1,0,0,1,351.8539356506616,57.64859405692749) translate(0 30.666666666666668)"/><use xlink:href="#l" transform="matrix(1,0,0,1,351.8539356506616,57.64859405692749) translate(36.96296296296297 30.666666666666668)"/><use xlink:href="#m" transform="matrix(1,0,0,1,351.8539356506616,57.64859405692749) translate(0 46.66666666666667)"/><use xlink:href="#n" transform="matrix(1,0,0,1,351.8539356506616,57.64859405692749) translate(56.22222222222222 46.66666666666667)"/><use xlink:href="#k" transform="matrix(1,0,0,1,351.8539356506616,57.64859405692749) translate(93.18518518518519 46.66666666666667)"/><use xlink:href="#m" transform="matrix(1,0,0,1,351.8539356506616,57.64859405692749) translate(0 62.66666666666667)"/><use xlink:href="#n" transform="matrix(1,0,0,1,351.8539356506616,57.64859405692749) translate(56.22222222222222 62.66666666666667)"/><use xlink:href="#o" transform="matrix(1,0,0,1,351.8539356506616,57.64859405692749) translate(93.18518518518519 62.66666666666667)"/></g><path d="M347.86 83.8c0 3.46-2.82 6.28-6.3 6.28s-6.3-2.82-6.3-6.3c0-3.47 2.82-6.3 6.3-6.3s6.3 2.83 6.3 6.3z" stroke="#000" stroke-opacity="0" stroke-width="2" fill="#699cb1"/><path d="M348.1 67.95c0 3.48-2.83 6.3-6.3 6.3-3.5 0-6.3-2.82-6.3-6.3s2.8-6.3 6.3-6.3c3.47 0 6.3 2.82 6.3 6.3z" stroke="#000" stroke-opacity="0" stroke-width="2" fill="#f8b156"/><path d="M348.1 101c0 3.48-2.83 6.3-6.3 6.3-3.5 0-6.3-2.82-6.3-6.3s2.8-6.3 6.3-6.3c3.47 0 6.3 2.82 6.3 6.3z" stroke="#000" stroke-opacity="0" stroke-width="2" fill="#ac7a3a"/><path d="M348.1 117.47c0 3.47-2.83 6.3-6.3 6.3-3.5 0-6.3-2.83-6.3-6.3 0-3.48 2.8-6.3 6.3-6.3 3.47 0 6.3 2.82 6.3 6.3z" stroke="#000" stroke-opacity="0" stroke-width="2" fill="#3c5a67"/><defs><path fill="#333" d="M311-1256c0 83-42 364-38 447 0 8 2 80 5 215 140 37 406-21 569-12-37-226-43-517 17-667 36-88 124-109 196-53 25 21 37 46 37 77 0 187-61 373-61 457 0 119 20 513 20 632 0 109-28 163-83 163-35 0-62-23-67-71-12-110-6-189-34-352-267 38-378 57-594 24 0 200-9 320-25 360-25 64-100 48-118-17-9-35-17-117-17-249 0-246-92-767-34-990 14-55 49-82 97-82 62 0 130 54 130 118" id="p"/><path fill="#333" d="M106-1167c0-63 50-127 116-118 107-51 277-77 510-77 101 0 152 34 152 102 0 105-122 118-253 118-161 0-142 7-283 39 18 119 10 207-5 340 87-25 321-29 399 0 47 17 70 47 70 89 0 48-39 106-88 104-148-10-240-9-408 5-11 79-25 197-41 355 209-13 372-20 488-20 47 0 70 24 70 73 0 33-16 62-53 75C668-43 385-38 198 0 102 20 69-48 65-186c-5-141 56-608 56-748 0-44-15-189-15-233" id="q"/><path fill="#333" d="M36-1260c0-86 107-134 172-69 20 20 57 74 106 167 44 84 127 205 246 362 41-141 92-258 153-350 91-138 181-207 268-207 121 0 131 135 55 193-73 55-136 106-186 189-64 107-134 261-203 465-77 229-138 387-183 474-69 2-122-12-118-44 57-156 112-311 149-473-90-96-306-368-396-514-44-70-63-136-63-193" id="r"/><path fill="#333" d="M212-148c80-75 207 28 145 128-44 46-55 191-145 192-46 1-91-41-89-87-5 10 47-140 59-185 5-21 17-36 30-48" id="s"/><g id="a"><use transform="matrix(0.006510416666666667,0,0,0.006510416666666667,0,0)" xlink:href="#p"/><use transform="matrix(0.006510416666666667,0,0,0.006510416666666667,7.55859375,0)" xlink:href="#q"/><use transform="matrix(0.006510416666666667,0,0,0.006510416666666667,13.736979166666668,0)" xlink:href="#r"/><use transform="matrix(0.006510416666666667,0,0,0.006510416666666667,17.94921875,0)" xlink:href="#s"/></g><path fill="#333" d="M1412-1368c78-58 184-11 182 83 0 27-17 77-51 150-92 195-261 818-283 1067-39 26-92 39-159 39-19 0-31-14-43-39-13-28-39-191-41-207-15-115-181-518-198-585-69 264-147 605-242 821-107 22-129 39-161-84-75-284-146-499-288-855-55-139-84-233-84-282-1-57 42-101 99-100 33 0 65 17 95 51s63 136 103 307c26 111 85 353 176 724 64-253 102-649 169-917 21-84 78-167 166-167 33 0 60 17 85 50 35 47 59 231 72 322 18 122 129 508 146 618 33-261 98-602 178-862 22-72 53-114 79-134" id="t"/><g id="b"><use transform="matrix(0.006510416666666667,0,0,0.006510416666666667,0,0)" xlink:href="#t"/><use transform="matrix(0.006510416666666667,0,0,0.006510416666666667,10.690104166666668,0)" xlink:href="#q"/></g><path fill="#333" d="M99-1271c0-56 61-100 116-99 24 0 51 10 80 29 61 39 119 137 166 295 48 163 120 407 223 730 25-100 65-250 118-449-2-1 123-372 155-445 41-95 68-155 156-155 113 0 169 68 169 203 0 197-19 419-51 667-21 157-9 255-9 410 0 49-24 73-73 73-46 0-80-28-84-87-12-151-13-528-17-701-66 142-184 478-290 706 19 35-2 74-46 74-73 0-207-260-400-780-38 218-88 487-88 728 0 50-25 75-74 75-70 0-81-44-80-129 5-250 49-519 49-760 0-73-20-313-20-385" id="u"/><path fill="#333" d="M126-15c-39-1-74-34-66-82 43-258 225-1081 319-1209 45-61 131-64 189-20s103 217 140 307c55 134 138 336 243 608 20 23 28 50 25 83 43 127 65 205 65 234 0 38-38 70-77 70-29 0-56-17-73-53-16-35-35-90-62-162-151 21-429-1-582-3-10 42-26 104-59 181-14 32-38 46-62 46zm608-434c-57-118-140-295-251-532-61 140-121 369-171 537 241-7 262-11 422-5" id="v"/><path fill="#333" d="M145-1377c172 2 153 286 159 488 3 121-40 515-41 614-1 120 5 278-101 278-45 0-68-24-68-71 0-87 24-375 24-461 0-208-11-371-33-488-25-135-37-213-37-232 0-85 32-128 97-128" id="w"/><path fill="#333" d="M1063-1007c-1 52 8 225 7 277-6 318 15 735-249 735-95 0-185-56-266-171-89-125-175-340-260-546-7 214-11 328-12 342-9 161-25 267-49 317-15 32-34 48-57 48-39 0-77-43-68-80 66-263-44-798-44-1079 0-132 42-198 126-198 74 0 130 46 171 137 6 14 33 90 70 232 51 194 278 770 401 829 37-50 56-144 56-281 0-157-16-348-48-572-11-80-17-135-17-166-2-78 43-158 116-158 82 0 123 111 123 334" id="x"/><path fill="#333" d="M435-695c-1-129-15-310 0-428-76 1-190 6-343 15-45-58-68-106-68-145 0-20 14-37 44-44 198-46 599-77 780-77 111 0 166 42 166 125 0 94-123 136-369 126 1 140-30 347-43 490-12 127-23 318-44 573-37 27-71 40-101 40-21 0-32-13-32-40-1-119 11-516 10-635" id="y"/><g id="c"><use transform="matrix(0.006510416666666667,0,0,0.006510416666666667,0,0)" xlink:href="#u"/><use transform="matrix(0.006510416666666667,0,0,0.006510416666666667,8.776041666666668,0)" xlink:href="#v"/><use transform="matrix(0.006510416666666667,0,0,0.006510416666666667,15.91796875,0)" xlink:href="#w"/><use transform="matrix(0.006510416666666667,0,0,0.006510416666666667,18.2421875,0)" xlink:href="#x"/><use transform="matrix(0.006510416666666667,0,0,0.006510416666666667,25.651041666666668,0)" xlink:href="#y"/><use transform="matrix(0.006510416666666667,0,0,0.006510416666666667,32.40885416666667,0)" xlink:href="#v"/><use transform="matrix(0.006510416666666667,0,0,0.006510416666666667,39.55078125000001,0)" xlink:href="#w"/><use transform="matrix(0.006510416666666667,0,0,0.006510416666666667,41.87500000000001,0)" xlink:href="#x"/></g><path fill="#333" d="M635-1365c141 0 276 102 276 245 0 97-36 145-109 145-71 0-113-48-126-145-11-5-23-8-36-8-105-7-360 116-360 218 0 51 47 112 142 181 89 65 181 125 266 193 98 79 141 166 141 249C829-122 616 3 445 3 319 3 209-36 114-113c18-107 40-165 101-129 79 45 151 68 218 68 64 0 193-40 193-97 0-27-51-74-152-142-136-92-229-162-279-210C94-720 43-815 43-910c0-246 337-455 592-455" id="z"/><g id="d"><use transform="matrix(0.006510416666666667,0,0,0.006510416666666667,0,0)" xlink:href="#z"/><use transform="matrix(0.006510416666666667,0,0,0.006510416666666667,6.243489583333334,0)" xlink:href="#v"/><use transform="matrix(0.006510416666666667,0,0,0.006510416666666667,13.385416666666668,0)" xlink:href="#u"/><use transform="matrix(0.006510416666666667,0,0,0.006510416666666667,22.161458333333336,0)" xlink:href="#q"/></g><path fill="#333" d="M667-1365c214 0 367 136 367 346 0 106-53 244-150 244-57 0-109-58-109-114 0-27 24-115 24-142 0-67-40-101-121-101-227 0-412 288-412 523 0 194 160 436 348 426 43 10 174-68 210-68 42 0 81 44 81 85C905-83 689-9 597-9 299-9 44-338 44-643c0-345 286-722 623-722" id="A"/><path fill="#333" d="M265-183c24-3 411-24 529-24 43 0 64 21 64 62 0 33-21 57-64 73-29 11-100 18-214 23-160 5-288 29-404 49-45 8-92-38-92-85 0-111 6-482 6-593s-20-482-20-593c0-60 50-99 109-99 91 0 137 74 137 223 0 227-17 549-51 964" id="B"/><g id="e"><use transform="matrix(0.006510416666666667,0,0,0.006510416666666667,0,0)" xlink:href="#A"/><use transform="matrix(0.006510416666666667,0,0,0.006510416666666667,7.044270833333334,0)" xlink:href="#B"/><use transform="matrix(0.006510416666666667,0,0,0.006510416666666667,12.65625,0)" xlink:href="#v"/><use transform="matrix(0.006510416666666667,0,0,0.006510416666666667,19.798177083333336,0)" xlink:href="#z"/><use transform="matrix(0.006510416666666667,0,0,0.006510416666666667,26.04166666666667,0)" xlink:href="#z"/></g><path fill="#333" d="M128-113c-3-233 30-804 15-1022-55-19-82-55-82-106 0-136 184-132 345-112 217 27 377 56 480 99 179 75 268 194 268 358 0 174-126 318-377 432 4 13 21 76 52 189 21 77 45 138 72 183-68 132-120 145-184 0-19-45-36-93-58-138-18-36-50-87-89-157-95 27-186 45-273 52-7 67-11 151-14 250-41 27-78 41-112 41-29 0-43-23-43-69zm806-747c0-65-28-113-79-145-96-61-251-100-469-113-3 83-26 296-70 638 129-23 254-63 373-121 163-79 245-165 245-259" id="C"/><path fill="#333" d="M1002-1224c199 221 157 707 13 954C887-50 697 45 430-27 209-87 49-300 48-570c0-188 60-364 179-529 131-180 286-270 466-270 124 0 224 51 309 145zM637-166c206 4 339-230 339-448 0-208-88-441-215-512-56-31-146 28-205 8-197 109-379 436-268 727 46 121 189 222 349 225" id="D"/><g id="f"><use transform="matrix(0.006510416666666667,0,0,0.006510416666666667,0,0)" xlink:href="#C"/><use transform="matrix(0.006510416666666667,0,0,0.006510416666666667,7.897135416666667,0)" xlink:href="#v"/><use transform="matrix(0.006510416666666667,0,0,0.006510416666666667,15.0390625,0)" xlink:href="#y"/><use transform="matrix(0.006510416666666667,0,0,0.006510416666666667,21.796875,0)" xlink:href="#w"/><use transform="matrix(0.006510416666666667,0,0,0.006510416666666667,24.12109375,0)" xlink:href="#D"/></g><path fill="#333" d="M975-1393c59 0 126 50 126 110 0 81-159 499-476 1254-22 0-41 0-62-3-29 23-58 23-73-16-86-227-208-597-352-921-37-85-111-187-109-299 2-81 115-125 179-65 34 32 82 134 137 314l218 717c114-323 174-810 319-1034 25-39 58-57 93-57" id="E"/><g id="g"><use transform="matrix(0.006510416666666667,0,0,0.006510416666666667,0,0)" xlink:href="#q"/><use transform="matrix(0.006510416666666667,0,0,0.006510416666666667,6.178385416666667,0)" xlink:href="#E"/><use transform="matrix(0.006510416666666667,0,0,0.006510416666666667,13.5546875,0)" xlink:href="#q"/><use transform="matrix(0.006510416666666667,0,0,0.006510416666666667,19.733072916666668,0)" xlink:href="#x"/></g><path fill="#333" d="M553-1345c27 0 115-3 142-3 168 0 252 41 252 124 0 81-81 121-242 121-67 0-202-5-403-15-3 76-7 190-12 343 64-13 156-20 277-20 106 0 163 14 163 104 0 53-33 89-100 106-74 19-189 26-345 24-6 166-9 251-9 254-7 113-21 193-42 239-16 34-39 51-68 51-49 0-74-23-74-68 0-63 16-277 16-340 0-290-40-534-40-747 0-26 7-54 0-77-1-67 49-113 116-113 69 0 300 17 369 17" id="F"/><g id="h"><use transform="matrix(0.006510416666666667,0,0,0.006510416666666667,0,0)" xlink:href="#v"/><use transform="matrix(0.006510416666666667,0,0,0.006510416666666667,7.141927083333334,0)" xlink:href="#F"/><use transform="matrix(0.006510416666666667,0,0,0.006510416666666667,13.352864583333334,0)" xlink:href="#y"/><use transform="matrix(0.006510416666666667,0,0,0.006510416666666667,20.110677083333336,0)" xlink:href="#q"/><use transform="matrix(0.006510416666666667,0,0,0.006510416666666667,26.289062500000004,0)" xlink:href="#C"/></g><path fill="#333" d="M56-1239c0-84 338-118 465-118 163 0 297 20 401 63 147 60 220 161 220 301 0 108-40 210-125 302-129 138-412 247-671 356L321-85c-45 31-86 46-121 46-27 0-40-15-40-46-3-105 29-453 29-558 0-137-8-293-23-468l-21 5c-59-49-89-93-89-133zm888 246c1-130-259-169-429-166-41 0-80 1-117 4 4 193-9 353-36 665 172-69 262-106 271-111 91-45 166-108 225-187 57-77 86-145 86-205" id="G"/><path fill="#333" d="M758-1362c233-1 360 149 360 389 0 162-49 243-147 243-67 0-101-43-101-130-1-24 7-113 6-137 0-90-21-131-105-131-166 0-314 129-445 386-59 116-89 218-89 305 0 244 304 318 553 254-5-48-7-99-2-148-52 2-88 3-107 3-44 2-80-39-80-83 0-65 74-98 222-98 113 0 185 6 216 19 41 16 62 42 62 79 0 53-41 99-97 88-20 115-15 162-9 267 3 50-38 97-89 97s-81-23-89-70C728-4 639 9 548 9 256 9 43-166 43-452c0-193 70-389 210-587 152-215 320-323 505-323" id="H"/><path fill="#333" d="M213-364c-44 1-85-37-83-81 11-215 77-488 111-697 15-93 47-154 83-187 75-67 197-20 178 102-41 270-110 506-215 805-14 40-43 58-74 58zm-22 128c52 0 103 47 101 99 0 1-10 49-14 67-10 40-40 60-87 60-62 0-112-53-112-115 0-52 60-111 112-111" id="I"/><g id="i"><use transform="matrix(0.006510416666666667,0,0,0.006510416666666667,0,0)" xlink:href="#z"/><use transform="matrix(0.006510416666666667,0,0,0.006510416666666667,6.243489583333334,0)" xlink:href="#v"/><use transform="matrix(0.006510416666666667,0,0,0.006510416666666667,13.385416666666668,0)" xlink:href="#u"/><use transform="matrix(0.006510416666666667,0,0,0.006510416666666667,22.161458333333336,0)" xlink:href="#G"/><use transform="matrix(0.006510416666666667,0,0,0.006510416666666667,29.70703125,0)" xlink:href="#B"/><use transform="matrix(0.006510416666666667,0,0,0.006510416666666667,35.31901041666667,0)" xlink:href="#w"/><use transform="matrix(0.006510416666666667,0,0,0.006510416666666667,37.64322916666667,0)" xlink:href="#x"/><use transform="matrix(0.006510416666666667,0,0,0.006510416666666667,45.052083333333336,0)" xlink:href="#H"/><use transform="matrix(0.006510416666666667,0,0,0.006510416666666667,52.6953125,0)" xlink:href="#I"/></g><path fill="#fff" d="M212-179c-10-28-35-45-73-45-59 0-87 40-87 99 0 60 29 101 89 101 43 0 62-24 78-52l27 14C228-24 195 4 139 4 59 4 22-46 18-125c-6-104 99-153 187-111 19 9 31 26 39 46" id="J"/><path fill="#fff" d="M24 0v-261h32V0H24" id="K"/><path fill="#fff" d="M141-36C126-15 110 5 73 4 37 3 15-17 15-53c-1-64 63-63 125-63 3-35-9-54-41-54-24 1-41 7-42 31l-33-3c5-37 33-52 76-52 45 0 72 20 72 64v82c-1 20 7 32 28 27v20c-31 9-61-2-59-35zM48-53c0 20 12 33 32 33 41-3 63-29 60-74-43 2-92-5-92 41" id="L"/><path fill="#fff" d="M135-143c-3-34-86-38-87 0 15 53 115 12 119 90S17 21 10-45l28-5c4 36 97 45 98 0-10-56-113-15-118-90-4-57 82-63 122-42 12 7 21 19 24 35" id="M"/><g id="j"><use transform="matrix(0.03703703703703704,0,0,0.03703703703703704,0,0)" xlink:href="#J"/><use transform="matrix(0.03703703703703704,0,0,0.03703703703703704,9.592592592592593,0)" xlink:href="#K"/><use transform="matrix(0.03703703703703704,0,0,0.03703703703703704,12.518518518518517,0)" xlink:href="#L"/><use transform="matrix(0.03703703703703704,0,0,0.03703703703703704,19.925925925925927,0)" xlink:href="#M"/><use transform="matrix(0.03703703703703704,0,0,0.03703703703703704,26.592592592592595,0)" xlink:href="#M"/></g><path fill="#fff" d="M101-251c68 0 85 55 85 127S166 4 100 4C33 4 14-52 14-124c0-73 17-127 87-127zm-1 229c47 0 54-49 54-102s-4-102-53-102c-51 0-55 48-55 102 0 53 5 102 54 102" id="N"/><use transform="matrix(0.03703703703703704,0,0,0.03703703703703704,0,0)" xlink:href="#N" id="k"/><path fill="#fff" d="M27 0v-27h64v-190l-56 39v-29l58-41h29v221h61V0H27" id="O"/><use transform="matrix(0.03703703703703704,0,0,0.03703703703703704,0,0)" xlink:href="#O" id="l"/><path fill="#fff" d="M185-189c-5-48-123-54-124 2 14 75 158 14 163 119 3 78-121 87-175 55-17-10-28-26-33-46l33-7c5 56 141 63 141-1 0-78-155-14-162-118-5-82 145-84 179-34 5 7 8 16 11 25" id="P"/><path fill="#fff" d="M210-169c-67 3-38 105-44 169h-31v-121c0-29-5-50-35-48C34-165 62-65 56 0H25l-1-190h30c1 10-1 24 2 32 10-44 99-50 107 0 11-21 27-35 58-36 85-2 47 119 55 194h-31v-121c0-29-5-49-35-48" id="Q"/><path fill="#fff" d="M115-194c55 1 70 41 70 98S169 2 115 4C84 4 66-9 55-30l1 105H24l-1-265h31l2 30c10-21 28-34 59-34zm-8 174c40 0 45-34 45-75s-6-73-45-74c-42 0-51 32-51 76 0 43 10 73 51 73" id="R"/><path fill="#fff" d="M100-194c63 0 86 42 84 106H49c0 40 14 67 53 68 26 1 43-12 49-29l28 8c-11 28-37 45-77 45C44 4 14-33 15-96c1-61 26-98 85-98zm52 81c6-60-76-77-97-28-3 7-6 17-6 28h103" id="S"/><path fill="#fff" d="M85-194c31 0 48 13 60 33l-1-100h32l1 261h-30c-2-10 0-23-3-31C134-8 116 4 85 4 32 4 16-35 15-94c0-66 23-100 70-100zm9 24c-40 0-46 34-46 75 0 40 6 74 45 74 42 0 51-32 51-76 0-42-9-74-50-73" id="T"/><g id="m"><use transform="matrix(0.03703703703703704,0,0,0.03703703703703704,0,0)" xlink:href="#P"/><use transform="matrix(0.03703703703703704,0,0,0.03703703703703704,8.88888888888889,0)" xlink:href="#L"/><use transform="matrix(0.03703703703703704,0,0,0.03703703703703704,16.296296296296298,0)" xlink:href="#Q"/><use transform="matrix(0.03703703703703704,0,0,0.03703703703703704,27.370370370370374,0)" xlink:href="#R"/><use transform="matrix(0.03703703703703704,0,0,0.03703703703703704,34.777777777777786,0)" xlink:href="#K"/><use transform="matrix(0.03703703703703704,0,0,0.03703703703703704,37.70370370370371,0)" xlink:href="#S"/><use transform="matrix(0.03703703703703704,0,0,0.03703703703703704,45.111111111111114,0)" xlink:href="#T"/></g><g id="n"><use transform="matrix(0.03703703703703704,0,0,0.03703703703703704,0,0)" xlink:href="#J"/><use transform="matrix(0.03703703703703704,0,0,0.03703703703703704,9.592592592592593,0)" xlink:href="#K"/><use transform="matrix(0.03703703703703704,0,0,0.03703703703703704,12.518518518518517,0)" xlink:href="#L"/><use transform="matrix(0.03703703703703704,0,0,0.03703703703703704,19.925925925925927,0)" xlink:href="#M"/><use transform="matrix(0.03703703703703704,0,0,0.03703703703703704,26.592592592592595,0)" xlink:href="#M"/></g><use transform="matrix(0.03703703703703704,0,0,0.03703703703703704,0,0)" xlink:href="#O" id="o"/></defs></g></svg>