<?xml version="1.0" encoding="utf-8" standalone="no"?>
<!DOCTYPE svg PUBLIC "-//W3C//DTD SVG 1.1//EN"
  "http://www.w3.org/Graphics/SVG/1.1/DTD/svg11.dtd">
<!-- Created with matplotlib (https://matplotlib.org/) -->
<svg height="624.600491pt" version="1.1" viewBox="0 0 798.339095 624.600491" width="798.339095pt" xmlns="http://www.w3.org/2000/svg" xmlns:xlink="http://www.w3.org/1999/xlink">
 <defs>
  <style type="text/css">
*{stroke-linecap:butt;stroke-linejoin:round;}
  </style>
 </defs>
 <g id="figure_1">
  <g id="patch_1">
   <path d="M 0 624.600491 
L 798.339095 624.600491 
L 798.339095 0 
L 0 0 
z
" style="fill:#ffffff;"/>
  </g>
  <g id="axes_1">
   <g id="patch_2">
    <path d="M 124.842534 578.517748 
L 787.639095 578.517748 
L 787.639095 17.577748 
L 124.842534 17.577748 
z
" style="fill:#ffffff;"/>
   </g>
   <g id="LineCollection_1">
    <path clip-path="url(#pbac5ed86b8)" d="M 149.430149 390.291214 
L 799.339095 390.291214 
" style="fill:none;stroke:#699cb1;stroke-width:3;"/>
   </g>
   <g id="patch_3">
    <path clip-path="url(#pbac5ed86b8)" d="M 178.29387 640.844414 
L 253.12574 640.844414 
L 253.12574 152.203348 
L 178.29387 152.203348 
z
" style="fill:#699cb1;"/>
   </g>
   <g id="patch_4">
    <path clip-path="url(#pbac5ed86b8)" d="M 392.099212 640.844414 
L 466.931082 640.844414 
L 466.931082 261.898281 
L 392.099212 261.898281 
z
" style="fill:#699cb1;"/>
   </g>
   <g id="patch_5">
    <path clip-path="url(#pbac5ed86b8)" d="M 605.904554 640.844414 
L 680.736424 640.844414 
L 680.736424 266.884414 
L 605.904554 266.884414 
z
" style="fill:#699cb1;"/>
   </g>
   <g id="matplotlib.axis_1">
    <g id="xtick_1">
     <g id="line2d_1">
      <defs>
       <path d="M 0 0 
L 0 3.5 
" id="m1ab214892e" style="stroke:#000000;stroke-width:0.8;"/>
      </defs>
      <g>
       <use style="stroke:#000000;stroke-width:0.8;" x="253.12574" xlink:href="#m1ab214892e" y="578.517748"/>
      </g>
     </g>
     <g id="text_1">
      <!-- L2 -->
      <defs>
       <path d="M 26.09375 6.5 
C 24.90625 6.5 23.703125 6.390625 22.5 6.390625 
L 17.203125 6.390625 
L 17.203125 69 
L 8.796875 69 
L 8.796875 0 
L 46.90625 0 
L 46.90625 6.5 
z
" id="CMSS17-76"/>
       <path d="M 25.796875 21.140625 
C 28.59375 24.03125 32.796875 27.515625 35.703125 31 
C 38.5 34.390625 42.203125 39.171875 42.203125 46.140625 
C 42.203125 57.109375 34.796875 67 22.203125 67 
C 12.296875 67 6.59375 60.796875 3.90625 51.125 
L 7.796875 45.75 
C 10 54.8125 13.09375 60.59375 20.90625 60.59375 
C 29.5 60.59375 34.296875 53.609375 34.296875 45.9375 
C 34.296875 36.78125 27.296875 29.703125 22 24.421875 
C 16.09375 18.546875 10.296875 12.578125 4.703125 6.390625 
L 4.703125 0 
L 42.203125 0 
L 42.203125 6.796875 
L 25.203125 6.796875 
C 24 6.796875 22.796875 6.6875 21.59375 6.6875 
L 11.59375 6.6875 
L 11.59375 6.796875 
z
" id="CMSS17-50"/>
      </defs>
      <g transform="translate(235.570212 610.424348)scale(0.36 -0.36)">
       <use transform="scale(0.996264)" xlink:href="#CMSS17-76"/>
       <use transform="translate(50.687105 0)scale(0.996264)" xlink:href="#CMSS17-50"/>
      </g>
     </g>
    </g>
    <g id="xtick_2">
     <g id="line2d_2">
      <g>
       <use style="stroke:#000000;stroke-width:0.8;" x="466.931082" xlink:href="#m1ab214892e" y="578.517748"/>
      </g>
     </g>
     <g id="text_2">
      <!-- CS -->
      <defs>
       <path d="M 54.703125 11.015625 
C 48 6.5 44.90625 5.1875 36.796875 5.1875 
C 22.796875 5.1875 14.59375 20.375 14.59375 34.234375 
C 14.59375 49.015625 23 63.59375 37.203125 63.59375 
C 43.59375 63.59375 47.796875 61.78125 52.90625 58.5625 
L 54.296875 66.484375 
C 49.5 68.890625 43.40625 70 37.296875 70 
C 18.09375 70 6.203125 52.234375 6.203125 34.234375 
C 6.203125 14.4375 20.296875 -1.203125 36.296875 -1.203125 
C 44.90625 -1.203125 47.90625 -0.5 55.296875 4.1875 
z
" id="CMSS17-67"/>
       <path d="M 43.703125 66.09375 
C 39.296875 68.6875 34.5 71 26.40625 71 
C 13.5 71 5.203125 61.46875 5.203125 51.703125 
C 5.203125 47.875 6.296875 43.546875 10.203125 39.125 
C 14.09375 34.6875 18.5 33.484375 24.09375 32.078125 
C 26.40625 31.46875 30.296875 30.359375 31 30.0625 
C 36.59375 27.84375 39.296875 22.71875 39.296875 17.875 
C 39.296875 11.53125 34.40625 4.796875 25.703125 4.796875 
C 22.703125 4.796875 13.90625 5.296875 5.59375 12.953125 
L 4.203125 5 
C 12.40625 -1 21.296875 -2 25.796875 -2 
C 38.09375 -2 46.90625 7.71875 46.90625 18.78125 
C 46.90625 22.8125 45.703125 27.953125 41.5 32.6875 
C 37.40625 37.203125 33.796875 38.21875 25.59375 40.4375 
C 20.90625 41.640625 17.90625 42.453125 15.40625 45.5625 
C 13.703125 47.78125 12.796875 49.890625 12.796875 52.609375 
C 12.796875 58.25 17.59375 64.390625 26.40625 64.390625 
C 30.796875 64.390625 36.5 63.484375 42.296875 58.046875 
z
" id="CMSS17-83"/>
      </defs>
      <g transform="translate(446.788317 610.424348)scale(0.36 -0.36)">
       <use transform="scale(0.996264)" xlink:href="#CMSS17-67"/>
       <use transform="translate(59.855772 0)scale(0.996264)" xlink:href="#CMSS17-83"/>
      </g>
     </g>
    </g>
    <g id="xtick_3">
     <g id="line2d_3">
      <g>
       <use style="stroke:#000000;stroke-width:0.8;" x="680.736424" xlink:href="#m1ab214892e" y="578.517748"/>
      </g>
     </g>
     <g id="text_3">
      <!-- ISC -->
      <defs>
       <path d="M 17.09375 69 
L 8.703125 69 
L 8.703125 0 
L 17.09375 0 
z
" id="CMSS17-73"/>
      </defs>
      <g transform="translate(655.952555 610.424348)scale(0.36 -0.36)">
       <use transform="scale(0.996264)" xlink:href="#CMSS17-73"/>
       <use transform="translate(25.783926 0)scale(0.996264)" xlink:href="#CMSS17-83"/>
       <use transform="translate(77.832442 0)scale(0.996264)" xlink:href="#CMSS17-67"/>
      </g>
     </g>
    </g>
   </g>
   <g id="matplotlib.axis_2">
    <g id="ytick_1">
     <g id="line2d_4">
      <defs>
       <path d="M 0 0 
L -3.5 0 
" id="maeca84af4d" style="stroke:#000000;stroke-width:0.8;"/>
      </defs>
      <g>
       <use style="stroke:#000000;stroke-width:0.8;" x="124.842534" xlink:href="#maeca84af4d" y="516.191081"/>
      </g>
     </g>
     <g id="text_4">
      <!-- $0.5$ -->
      <defs>
       <path d="M 42 31.84375 
C 42 37.96875 41.90625 48.421875 37.703125 56.453125 
C 34 63.484375 28.09375 66 22.90625 66 
C 18.09375 66 12 63.78125 8.203125 56.5625 
C 4.203125 49.015625 3.796875 39.671875 3.796875 31.84375 
C 3.796875 26.109375 3.90625 17.375 7 9.734375 
C 11.296875 -0.609375 19 -2 22.90625 -2 
C 27.5 -2 34.5 -0.109375 38.59375 9.4375 
C 41.59375 16.375 42 24.5 42 31.84375 
z
M 22.90625 -0.40625 
C 16.5 -0.40625 12.703125 5.125 11.296875 12.75 
C 10.203125 18.6875 10.203125 27.328125 10.203125 32.953125 
C 10.203125 40.6875 10.203125 47.109375 11.5 53.234375 
C 13.40625 61.78125 19 64.390625 22.90625 64.390625 
C 27 64.390625 32.296875 61.671875 34.203125 53.4375 
C 35.5 47.71875 35.59375 40.984375 35.59375 32.953125 
C 35.59375 26.421875 35.59375 18.375 34.40625 12.453125 
C 32.296875 1.5 26.40625 -0.40625 22.90625 -0.40625 
z
" id="CMR17-48"/>
       <path d="M 18.40625 4.796875 
C 18.40625 7.6875 16 9.6875 13.59375 9.6875 
C 10.703125 9.6875 8.703125 7.296875 8.703125 4.890625 
C 8.703125 2 11.09375 0 13.5 0 
C 16.40625 0 18.40625 2.390625 18.40625 4.796875 
z
" id="CMMI12-58"/>
       <path d="M 11.40625 58.59375 
C 12.40625 58.1875 16.5 56.890625 20.703125 56.890625 
C 30 56.890625 35.09375 61.890625 38 64.6875 
C 38 65.484375 38 66 37.40625 66 
C 37.296875 66 37.09375 66 36.296875 65.59375 
C 32.796875 64.09375 28.703125 63 23.703125 63 
C 20.703125 63 16.203125 63.359375 11.296875 65.484375 
C 10.203125 66 10 66 9.90625 66 
C 9.40625 66 9.296875 65.890625 9.296875 63.90625 
L 9.296875 34.859375 
C 9.296875 33.015625 9.296875 32.5 10.296875 32.5 
C 10.796875 32.5 11 32.703125 11.5 33.421875 
C 14.703125 38.046875 19.09375 40 24.09375 40 
C 27.59375 40 35.09375 37.734375 35.09375 20.203125 
C 35.09375 16.984375 35.09375 11.1875 32.09375 6.59375 
C 29.59375 2.484375 25.703125 0.390625 21.40625 0.390625 
C 14.796875 0.390625 8.09375 4.984375 6.296875 12.6875 
C 6.703125 12.59375 7.5 12.390625 7.90625 12.390625 
C 9.203125 12.390625 11.703125 13.09375 11.703125 16.1875 
C 11.703125 18.890625 9.796875 20 7.90625 20 
C 5.59375 20 4.09375 18.59375 4.09375 15.796875 
C 4.09375 7.09375 11 -2 21.59375 -2 
C 31.90625 -2 41.703125 6.890625 41.703125 19.796875 
C 41.703125 32.09375 33.90625 41.59375 24.203125 41.59375 
C 19.09375 41.59375 14.796875 39.6875 11.40625 36 
z
" id="CMR17-53"/>
      </defs>
      <g transform="translate(82.299095 526.568828)scale(0.3 -0.3)">
       <use transform="scale(0.996264)" xlink:href="#CMR17-48"/>
       <use transform="translate(45.690477 0)scale(0.996264)" xlink:href="#CMMI12-58"/>
       <use transform="translate(72.787654 0)scale(0.996264)" xlink:href="#CMR17-53"/>
      </g>
     </g>
    </g>
    <g id="ytick_2">
     <g id="line2d_5">
      <g>
       <use style="stroke:#000000;stroke-width:0.8;" x="124.842534" xlink:href="#maeca84af4d" y="391.537748"/>
      </g>
     </g>
     <g id="text_5">
      <!-- $1.0$ -->
      <defs>
       <path d="M 26.59375 63.796875 
C 26.59375 65.890625 26.5 66 25.09375 66 
C 21.203125 61.359375 15.296875 59.890625 9.703125 59.6875 
C 9.40625 59.6875 8.90625 59.6875 8.796875 59.5 
C 8.703125 59.296875 8.703125 59.09375 8.703125 57 
C 11.796875 57 17 57.59375 21 59.984375 
L 21 7.296875 
C 21 3.796875 20.796875 2.59375 12.203125 2.59375 
L 9.203125 2.59375 
L 9.203125 0 
C 14 0.09375 19 0.1875 23.796875 0.1875 
C 28.59375 0.1875 33.59375 0.09375 38.40625 0 
L 38.40625 2.59375 
L 35.40625 2.59375 
C 26.796875 2.59375 26.59375 3.6875 26.59375 7.296875 
z
" id="CMR17-49"/>
      </defs>
      <g transform="translate(82.299095 401.915495)scale(0.3 -0.3)">
       <use transform="scale(0.996264)" xlink:href="#CMR17-49"/>
       <use transform="translate(45.690477 0)scale(0.996264)" xlink:href="#CMMI12-58"/>
       <use transform="translate(72.787654 0)scale(0.996264)" xlink:href="#CMR17-48"/>
      </g>
     </g>
    </g>
    <g id="ytick_3">
     <g id="line2d_6">
      <g>
       <use style="stroke:#000000;stroke-width:0.8;" x="124.842534" xlink:href="#maeca84af4d" y="266.884414"/>
      </g>
     </g>
     <g id="text_6">
      <!-- $1.5$ -->
      <g transform="translate(82.299095 277.262162)scale(0.3 -0.3)">
       <use transform="scale(0.996264)" xlink:href="#CMR17-49"/>
       <use transform="translate(45.690477 0)scale(0.996264)" xlink:href="#CMMI12-58"/>
       <use transform="translate(72.787654 0)scale(0.996264)" xlink:href="#CMR17-53"/>
      </g>
     </g>
    </g>
    <g id="ytick_4">
     <g id="line2d_7">
      <g>
       <use style="stroke:#000000;stroke-width:0.8;" x="124.842534" xlink:href="#maeca84af4d" y="142.231081"/>
      </g>
     </g>
     <g id="text_7">
      <!-- $2.0$ -->
      <defs>
       <path d="M 41.703125 15.46875 
L 39.90625 15.46875 
C 38.90625 8.390625 38.09375 7.1875 37.703125 6.59375 
C 37.203125 5.796875 30 5.796875 28.59375 5.796875 
L 9.40625 5.796875 
C 13 9.6875 20 16.765625 28.5 24.9375 
C 34.59375 30.71875 41.703125 37.5 41.703125 47.390625 
C 41.703125 59.1875 32.296875 66 21.796875 66 
C 10.796875 66 4.09375 56.296875 4.09375 47.296875 
C 4.09375 43.390625 7 42.890625 8.203125 42.890625 
C 9.203125 42.890625 12.203125 43.484375 12.203125 46.984375 
C 12.203125 50.09375 9.59375 51 8.203125 51 
C 7.59375 51 7 50.890625 6.59375 50.6875 
C 8.5 59.1875 14.296875 63.390625 20.40625 63.390625 
C 29.09375 63.390625 34.796875 56.5 34.796875 47.390625 
C 34.796875 38.703125 29.703125 31.21875 24 24.734375 
L 4.09375 2.296875 
L 4.09375 0 
L 39.296875 0 
z
" id="CMR17-50"/>
      </defs>
      <g transform="translate(82.299095 152.608828)scale(0.3 -0.3)">
       <use transform="scale(0.996264)" xlink:href="#CMR17-50"/>
       <use transform="translate(45.690477 0)scale(0.996264)" xlink:href="#CMMI12-58"/>
       <use transform="translate(72.787654 0)scale(0.996264)" xlink:href="#CMR17-48"/>
      </g>
     </g>
    </g>
    <g id="ytick_5">
     <g id="line2d_8">
      <g>
       <use style="stroke:#000000;stroke-width:0.8;" x="124.842534" xlink:href="#maeca84af4d" y="17.577748"/>
      </g>
     </g>
     <g id="text_8">
      <!-- $2.5$ -->
      <g transform="translate(82.299095 27.955495)scale(0.3 -0.3)">
       <use transform="scale(0.996264)" xlink:href="#CMR17-50"/>
       <use transform="translate(45.690477 0)scale(0.996264)" xlink:href="#CMMI12-58"/>
       <use transform="translate(72.787654 0)scale(0.996264)" xlink:href="#CMR17-53"/>
      </g>
     </g>
    </g>
    <g id="text_9">
     <!-- Accuracy and \# neighbors  -->
     <defs>
      <path d="M 35.5 69 
L 26.90625 69 
L 2.59375 0 
L 10.203125 0 
L 17.203125 20 
L 44 20 
L 51.09375 0 
L 59.796875 0 
z
M 42.09375 25.59375 
L 19.09375 25.59375 
C 23.90625 39.53125 29.90625 56.84375 30.59375 61.3125 
L 30.703125 61.3125 
C 31.40625 57.234375 33.40625 51.265625 35.09375 46.1875 
z
" id="CMSS17-65"/>
      <path d="M 38.5 39.6875 
C 38.5 40.390625 33.90625 42.390625 32.703125 42.796875 
C 29.40625 44 25.203125 44 24.09375 44 
C 11.09375 44 3.296875 32.6875 3.296875 21.296875 
C 3.296875 9.296875 12 -1 23.703125 -1 
C 30.40625 -1 35.203125 1.1875 39.09375 3.796875 
L 38.5 10.390625 
C 34.203125 7.09375 29.203125 5.296875 23.796875 5.296875 
C 16 5.296875 10.90625 12.09375 10.90625 21.390625 
C 10.90625 28.59375 14.203125 37.6875 24.203125 37.6875 
C 29.703125 37.6875 32.796875 36.59375 37.40625 33.484375 
z
" id="CMSS17-99"/>
      <path d="M 40.90625 43 
L 33.296875 43 
L 33.296875 15.25 
C 33.296875 7.8125 27.90625 4.796875 22.203125 4.796875 
C 15.59375 4.796875 15 7 15 11.125 
L 15 43 
L 7.40625 43 
L 7.40625 10.625 
C 7.40625 2.796875 10.09375 -1 17 -1 
C 20.40625 -1 28.09375 -0.203125 33.5 4.796875 
L 33.5 -0.203125 
L 40.90625 -0.203125 
z
" id="CMSS17-117"/>
      <path d="M 14.90625 21.390625 
C 14.90625 30.84375 21.796875 37.171875 30.59375 37.375 
L 30.59375 44 
C 24.203125 43.890625 18.203125 40.6875 14.59375 35.46875 
L 14.59375 43.484375 
L 7.5 43.484375 
L 7.5 0 
L 14.90625 0 
z
" id="CMSS17-114"/>
      <path d="M 37.59375 27.953125 
C 37.59375 37.484375 30.90625 44 21.90625 44 
C 17.5 44 12.703125 43.1875 7.203125 39.984375 
L 7.796875 33.328125 
C 10.296875 35.15625 14.59375 38.09375 21.796875 38.09375 
C 26.90625 38.09375 30 34.140625 30 27.84375 
L 30 24 
C 14 23.5 4 18.890625 4 11.109375 
C 4 7.0625 6.5 -1 14.796875 -1 
C 16.296875 -1 24.40625 -0.8125 30.203125 3.5 
L 30.203125 -0.203125 
L 37.59375 -0.203125 
z
M 30 12.875 
C 30 11.109375 30 8.734375 27 6.96875 
C 24.40625 5.296875 21.09375 5.09375 19.703125 5.09375 
C 14.703125 5.09375 11.296875 7.859375 11.296875 11.296875 
C 11.296875 18.203125 26.90625 18.890625 30 19 
z
" id="CMSS17-97"/>
      <path d="M 41.796875 43 
L 34 43 
C 25.5 20.203125 22.59375 10.953125 22.40625 5.984375 
L 22.296875 5.984375 
C 22 10.859375 17.59375 22.796875 14.09375 31.34375 
L 9.40625 43 
L 1.296875 43 
L 19 0.21875 
C 17.90625 -2.765625 16.296875 -7.25 15.796875 -8.234375 
C 13.59375 -13.8125 12.09375 -13.8125 10.5 -13.8125 
C 10.09375 -13.8125 6.90625 -13.703125 3.296875 -12.609375 
L 3.90625 -19.203125 
C 6.40625 -19.703125 8.90625 -20 10.703125 -20 
C 13.203125 -20 18.203125 -20 22.796875 -7.734375 
z
" id="CMSS17-121"/>
      <path d="M 40.90625 29.34375 
C 40.90625 35.671875 39.40625 44 28.09375 44 
C 21.703125 44 17.5 40.6875 14.703125 37.28125 
L 14.703125 43.484375 
L 7.40625 43.484375 
L 7.40625 0 
L 15 0 
L 15 24.3125 
C 15 30.65625 17.40625 37.890625 24.203125 37.890625 
C 33 37.890625 33.296875 31.953125 33.296875 28.53125 
L 33.296875 0 
L 40.90625 0 
z
" id="CMSS17-110"/>
      <path d="M 40.796875 69 
L 33.40625 69 
L 33.40625 38.984375 
C 30.296875 41.59375 25.203125 44 19.59375 44 
C 10.5 44 3.296875 34.046875 3.296875 21.484375 
C 3.296875 8.9375 10.40625 -1 19.296875 -1 
C 26.203125 -1 30.796875 2.6875 33.203125 4.796875 
L 33.203125 -0.203125 
L 40.796875 -0.203125 
z
M 33.203125 13.296875 
C 33.203125 11.875 33.203125 10.359375 30.09375 7.625 
C 28.09375 5.90625 25.703125 5.09375 23.40625 5.09375 
C 18 5.09375 10.90625 9.140625 10.90625 21.390625 
C 10.90625 34.140625 18.90625 37.890625 24.40625 37.890625 
C 28.09375 37.890625 31.09375 36.0625 33.203125 33.03125 
z
" id="CMSS17-100"/>
      <path d="M 49.09375 14 
L 69.703125 14 
C 71.40625 14 73.09375 14 73.09375 15.796875 
C 73.09375 17.5 71.59375 17.5 70.09375 17.5 
L 50.09375 17.5 
L 53.5 31.484375 
L 70.09375 31.484375 
C 71.59375 31.484375 73.09375 31.484375 73.09375 33.1875 
C 73.09375 35 71.40625 35 69.703125 35 
L 54.5 35 
L 62.203125 65.390625 
C 62.5 66.390625 62.59375 66.890625 62.59375 67.1875 
C 62.59375 68.1875 61.796875 69 60.796875 69 
C 59.40625 69 59.09375 67.59375 58.90625 66.796875 
L 50.90625 35 
L 32.796875 35 
L 40.5 65.390625 
C 40.796875 66.390625 40.90625 66.890625 40.90625 67.1875 
C 40.90625 68.1875 40.09375 69 39.09375 69 
C 37.703125 69 37.40625 67.59375 37.203125 66.796875 
L 29.203125 35 
L 8.59375 35 
C 6.90625 35 5.203125 35 5.203125 33.1875 
C 5.203125 31.484375 6.703125 31.484375 8.203125 31.484375 
L 28.203125 31.484375 
L 24.796875 17.5 
L 8.203125 17.5 
C 6.703125 17.5 5.203125 17.5 5.203125 15.796875 
C 5.203125 14 6.90625 14 8.59375 14 
L 23.796875 14 
L 16.09375 -16.390625 
C 15.796875 -17.40625 15.703125 -17.90625 15.703125 -18.203125 
C 15.703125 -19.203125 16.5 -20 17.5 -20 
C 18.90625 -20 19.203125 -18.609375 19.40625 -17.8125 
L 27.40625 14 
L 45.5 14 
L 37.796875 -16.390625 
C 37.5 -17.40625 37.40625 -17.90625 37.40625 -18.203125 
C 37.40625 -19.203125 38.203125 -20 39.203125 -20 
C 40.59375 -20 40.90625 -18.609375 41.09375 -17.8125 
z
M 28.40625 17.5 
L 31.796875 31.484375 
L 49.90625 31.484375 
L 46.5 17.5 
z
" id="CMSS17-35"/>
      <path d="M 39.09375 21.484375 
C 39.09375 24.796875 38.90625 31.265625 35.703125 36.671875 
C 32.203125 42.390625 26.5 44 22.203125 44 
C 11.796875 44 3 34.125 3 21.296875 
C 3 9.046875 12.09375 -1 23.59375 -1 
C 28.09375 -1 33.59375 0.296875 38.59375 3.890625 
C 38.59375 4.296875 38.40625 6.46875 38.296875 6.578125 
C 38.296875 6.765625 38 9.828125 38 10.234375 
C 33.203125 6.375 27.703125 5.09375 23.703125 5.09375 
C 17.296875 5.09375 10.40625 10.421875 10.09375 21.484375 
z
M 10.90625 27 
C 12.203125 32.59375 16.59375 37.890625 22.203125 37.890625 
C 23.703125 37.890625 30.703125 37.6875 32.5 27 
z
" id="CMSS17-101"/>
      <path d="M 15.296875 66 
L 6.90625 66 
L 6.90625 57.59375 
L 15.296875 57.59375 
z
M 14.796875 43 
L 7.40625 43 
L 7.40625 0 
L 14.796875 0 
z
" id="CMSS17-105"/>
      <path d="M 44.5 44 
C 38.796875 43.890625 33.90625 42.796875 29.90625 40.890625 
C 26.59375 43.484375 23.203125 44 20.90625 44 
C 12.203125 44 5.59375 36.8125 5.59375 28.5 
C 5.59375 23.140625 8.59375 19.09375 8.796875 18.890625 
C 7 16.390625 6 13.6875 6 10.6875 
C 6 7.1875 7.40625 4.6875 8.5 3.296875 
C 3.296875 0.09375 2.59375 -4.8125 2.59375 -6.703125 
C 2.59375 -14 11.703125 -20 23.40625 -20 
C 35.203125 -20 44.296875 -14 44.296875 -6.609375 
C 44.296875 7.1875 29 7.296875 24.796875 7.296875 
L 16.703125 7.296875 
C 15.203125 7.296875 11.203125 7.296875 11.203125 12.390625 
C 11.203125 14.390625 12.09375 15.6875 12.203125 15.796875 
C 13.703125 14.6875 16.796875 13 20.90625 13 
C 29.203125 13 36.09375 19.984375 36.09375 28.5 
C 36.09375 33.25 33.90625 36.703125 33 37.890625 
L 33.296875 37.890625 
C 33.59375 37.890625 37.796875 38.1875 39.296875 38.1875 
C 42.5 38.1875 42.796875 38.09375 45.59375 37.796875 
z
M 20.90625 18.5 
C 17.5 18.5 12.703125 20.578125 12.703125 28.5 
C 12.703125 37.109375 18.203125 38.484375 20.796875 38.484375 
C 24.203125 38.484375 29 36.40625 29 28.5 
C 29 19.875 23.5 18.5 20.90625 18.5 
z
M 24.703125 0 
C 27.09375 0 37.203125 0 37.203125 -6.8125 
C 37.203125 -11.109375 31 -14.5 23.5 -14.5 
C 15.90625 -14.5 9.703125 -11.203125 9.703125 -6.703125 
C 9.703125 -6.203125 9.703125 0 16.59375 0 
z
" id="CMSS17-103"/>
      <path d="M 40.90625 29.34375 
C 40.90625 35.671875 39.40625 44 28.09375 44 
C 21.796875 44 17.703125 40.890625 14.796875 37.484375 
L 14.796875 69 
L 7.40625 69 
L 7.40625 0 
L 15 0 
L 15 24.3125 
C 15 30.65625 17.40625 37.890625 24.203125 37.890625 
C 33 37.890625 33.296875 31.953125 33.296875 28.53125 
L 33.296875 0 
L 40.90625 0 
z
" id="CMSS17-104"/>
      <path d="M 14.90625 69 
L 7.5 69 
L 7.5 -0.203125 
L 15.09375 -0.203125 
L 15.09375 4.296875 
C 18.90625 0.59375 23.5 -1 27.59375 -1 
C 37.203125 -1 45 8.734375 45 21.59375 
C 45 33.328125 39 44 30.09375 44 
C 23.796875 44 18.203125 41.390625 14.90625 38.6875 
z
M 15.09375 32.734375 
C 17.296875 35.5625 20.40625 37.890625 24.796875 37.890625 
C 30.703125 37.890625 37.40625 33.53125 37.40625 21.59375 
C 37.40625 8.84375 29.40625 5.09375 23.90625 5.09375 
C 21.90625 5.09375 19.796875 5.59375 17.796875 7.3125 
C 15.09375 9.75 15.09375 11.265625 15.09375 12.6875 
z
" id="CMSS17-98"/>
      <path d="M 44.203125 21.1875 
C 44.203125 33.984375 34.703125 44 23.5 44 
C 12 44 2.703125 33.6875 2.703125 21.1875 
C 2.703125 8.5 12.296875 -1 23.40625 -1 
C 34.796875 -1 44.203125 8.796875 44.203125 21.1875 
z
M 23.5 5.296875 
C 16.40625 5.296875 10.296875 11.09375 10.296875 21.984375 
C 10.296875 33.59375 17.40625 37.890625 23.40625 37.890625 
C 29.90625 37.890625 36.59375 33.1875 36.59375 21.984375 
C 36.59375 10.6875 30.09375 5.296875 23.5 5.296875 
z
" id="CMSS17-111"/>
      <path d="M 32.203125 40.984375 
C 26.296875 43.796875 21.703125 44 18.703125 44 
C 11.59375 44 3.09375 41.484375 3.09375 31.390625 
C 3.09375 21.296875 14.09375 19.09375 17.09375 18.484375 
C 21.703125 17.59375 26.796875 16.59375 26.796875 11.59375 
C 26.796875 5.296875 19.59375 5.296875 18.296875 5.296875 
C 14.296875 5.296875 8.796875 6.390625 3.796875 9.984375 
L 2.59375 3.296875 
C 8.296875 0 13.796875 -1 18.40625 -1 
C 30.703125 -1 33.796875 6.5 33.796875 12.1875 
C 33.796875 17.09375 31 20.390625 29.09375 21.890625 
C 25.796875 24.484375 24.59375 24.796875 16.40625 26.484375 
C 15 26.6875 10.09375 27.796875 10.09375 32.296875 
C 10.09375 37.984375 16.40625 37.984375 17.796875 37.984375 
C 24.296875 37.984375 28.296875 35.984375 31 34.484375 
z
" id="CMSS17-115"/>
     </defs>
     <g transform="translate(30.146376 484.925136)rotate(-90)scale(0.36 -0.36)">
      <use transform="scale(0.996264)" xlink:href="#CMSS17-65"/>
      <use transform="translate(62.217855 0)scale(0.996264)" xlink:href="#CMSS17-99"/>
      <use transform="translate(103.856677 0)scale(0.996264)" xlink:href="#CMSS17-99"/>
      <use transform="translate(145.495499 0)scale(0.996264)" xlink:href="#CMSS17-117"/>
      <use transform="translate(193.700442 0)scale(0.996264)" xlink:href="#CMSS17-114"/>
      <use transform="translate(225.610215 0)scale(0.996264)" xlink:href="#CMSS17-97"/>
      <use transform="translate(270.532135 0)scale(0.996264)" xlink:href="#CMSS17-99"/>
      <use transform="translate(312.170957 0)scale(0.996264)" xlink:href="#CMSS17-121"/>
      <use transform="translate(386.400212 0)scale(0.996264)" xlink:href="#CMSS17-97"/>
      <use transform="translate(431.322132 0)scale(0.996264)" xlink:href="#CMSS17-110"/>
      <use transform="translate(479.527076 0)scale(0.996264)" xlink:href="#CMSS17-100"/>
      <use transform="translate(558.961131 0)scale(0.996264)" xlink:href="#CMSS17-35"/>
      <use transform="translate(668.26298 0)scale(0.996264)" xlink:href="#CMSS17-110"/>
      <use transform="translate(716.467924 0)scale(0.996264)" xlink:href="#CMSS17-101"/>
      <use transform="translate(758.106746 0)scale(0.996264)" xlink:href="#CMSS17-105"/>
      <use transform="translate(780.287469 0)scale(0.996264)" xlink:href="#CMSS17-103"/>
      <use transform="translate(827.131092 0)scale(0.996264)" xlink:href="#CMSS17-104"/>
      <use transform="translate(875.336035 0)scale(0.996264)" xlink:href="#CMSS17-98"/>
      <use transform="translate(926.143417 0)scale(0.996264)" xlink:href="#CMSS17-111"/>
      <use transform="translate(970.384587 0)scale(0.996264)" xlink:href="#CMSS17-114"/>
      <use transform="translate(1002.294359 0)scale(0.996264)" xlink:href="#CMSS17-115"/>
     </g>
     <!--  (scaled to $1.0$) -->
     <defs>
      <path d="M 25.203125 75 
C 19.796875 69.484375 7.40625 56.671875 7.40625 25.046875 
C 7.40625 -6.6875 19.796875 -19.40625 25.203125 -25 
L 31.296875 -25 
C 19 -12.203125 15 5.71875 15 24.9375 
C 15 44.0625 18.796875 62.078125 31.296875 75 
z
" id="CMSS17-40"/>
      <path d="M 14.796875 69 
L 7.40625 69 
L 7.40625 0 
L 14.796875 0 
z
" id="CMSS17-108"/>
      <path d="M 16.703125 37.1875 
L 29.703125 37.1875 
L 29.703125 43 
L 16.703125 43 
L 16.703125 55 
L 9.59375 55 
L 9.59375 43 
L 1.703125 43 
L 1.703125 37.1875 
L 9.40625 37.1875 
L 9.40625 11.734375 
C 9.40625 6 10.703125 -1 17.296875 -1 
C 22.296875 -1 26.90625 0.390625 31.296875 2.6875 
L 29.703125 8.609375 
C 27.296875 6.5 24.40625 5.296875 21.296875 5.296875 
C 16.90625 5.296875 16.703125 10.921875 16.703125 13.4375 
z
" id="CMSS17-116"/>
      <path d="M 11.296875 -25 
C 16.703125 -19.5 29.09375 -6.6875 29.09375 24.9375 
C 29.09375 56.671875 16.703125 69.375 11.296875 75 
L 5.203125 75 
C 17.5 62.171875 21.5 44.265625 21.5 25.046875 
C 21.5 5.921875 17.703125 -12.09375 5.203125 -25 
z
" id="CMSS17-41"/>
     </defs>
     <g transform="translate(69.362727 400.463797)rotate(-90)scale(0.36 -0.36)">
      <use transform="scale(0.996264)" xlink:href="#CMSS17-40"/>
      <use transform="translate(36.433914 0)scale(0.996264)" xlink:href="#CMSS17-115"/>
      <use transform="translate(72.347456 0)scale(0.996264)" xlink:href="#CMSS17-99"/>
      <use transform="translate(113.986278 0)scale(0.996264)" xlink:href="#CMSS17-97"/>
      <use transform="translate(158.908199 0)scale(0.996264)" xlink:href="#CMSS17-108"/>
      <use transform="translate(181.088922 0)scale(0.996264)" xlink:href="#CMSS17-101"/>
      <use transform="translate(222.727744 0)scale(0.996264)" xlink:href="#CMSS17-100"/>
      <use transform="translate(302.1618 0)scale(0.996264)" xlink:href="#CMSS17-116"/>
      <use transform="translate(335.993367 0)scale(0.996264)" xlink:href="#CMSS17-111"/>
      <use transform="translate(414.066103 0)scale(0.996264)" xlink:href="#CMR17-49"/>
      <use transform="translate(459.75658 0)scale(0.996264)" xlink:href="#CMMI12-58"/>
      <use transform="translate(486.853757 0)scale(0.996264)" xlink:href="#CMR17-48"/>
      <use transform="translate(532.544234 0)scale(0.996264)" xlink:href="#CMSS17-41"/>
     </g>
    </g>
   </g>
   <g id="LineCollection_2">
    <path clip-path="url(#pbac5ed86b8)" d="M 215.709805 276.856681 
L 215.709805 27.550014 
" style="fill:none;stroke:#000000;stroke-width:5;"/>
    <path clip-path="url(#pbac5ed86b8)" d="M 429.515147 294.308148 
L 429.515147 229.488414 
" style="fill:none;stroke:#000000;stroke-width:5;"/>
    <path clip-path="url(#pbac5ed86b8)" d="M 643.320489 289.322014 
L 643.320489 244.446814 
" style="fill:none;stroke:#000000;stroke-width:5;"/>
   </g>
   <g id="LineCollection_3">
    <path clip-path="url(#pbac5ed86b8)" d="M 149.430149 392.784281 
L 799.339095 392.784281 
" style="fill:none;stroke:#f8b156;stroke-width:3;"/>
   </g>
   <g id="line2d_9">
    <defs>
     <path d="M 10 0 
L -10 -0 
" id="mafeb8907f9" style="stroke:#000000;"/>
    </defs>
    <g clip-path="url(#pbac5ed86b8)">
     <use style="stroke:#000000;" x="215.709805" xlink:href="#mafeb8907f9" y="276.856681"/>
     <use style="stroke:#000000;" x="429.515147" xlink:href="#mafeb8907f9" y="294.308148"/>
     <use style="stroke:#000000;" x="643.320489" xlink:href="#mafeb8907f9" y="289.322014"/>
    </g>
   </g>
   <g id="line2d_10">
    <g clip-path="url(#pbac5ed86b8)">
     <use style="stroke:#000000;" x="215.709805" xlink:href="#mafeb8907f9" y="27.550014"/>
     <use style="stroke:#000000;" x="429.515147" xlink:href="#mafeb8907f9" y="229.488414"/>
     <use style="stroke:#000000;" x="643.320489" xlink:href="#mafeb8907f9" y="244.446814"/>
    </g>
   </g>
   <g id="patch_6">
    <path d="M 124.842534 578.517748 
L 124.842534 17.577748 
" style="fill:none;stroke:#000000;stroke-linecap:square;stroke-linejoin:miter;stroke-width:0.8;"/>
   </g>
   <g id="patch_7">
    <path d="M 124.842534 578.517748 
L 787.639095 578.517748 
" style="fill:none;stroke:#000000;stroke-linecap:square;stroke-linejoin:miter;stroke-width:0.8;"/>
   </g>
   <g id="patch_8">
    <path clip-path="url(#pbac5ed86b8)" d="M 253.12574 640.844414 
L 327.957609 640.844414 
L 327.957609 508.711881 
L 253.12574 508.711881 
z
" style="fill:#f8b156;"/>
   </g>
   <g id="patch_9">
    <path clip-path="url(#pbac5ed86b8)" d="M 466.931082 640.844414 
L 541.762951 640.844414 
L 541.762951 476.302014 
L 466.931082 476.302014 
z
" style="fill:#f8b156;"/>
   </g>
   <g id="patch_10">
    <path clip-path="url(#pbac5ed86b8)" d="M 680.736424 640.844414 
L 755.568294 640.844414 
L 755.568294 456.357481 
L 680.736424 456.357481 
z
" style="fill:#f8b156;"/>
   </g>
   <g id="text_10">
    <!-- 1.96 -->
    <defs>
     <path d="M 28.40625 67 
L 26.5 67 
C 21.09375 61.703125 14.796875 60.96875 8.40625 60.796875 
L 8.40625 55 
C 11.296875 55.09375 16 55.296875 20.703125 57.390625 
L 20.703125 5.796875 
L 8.90625 5.796875 
L 8.90625 0 
L 40.203125 0 
L 40.203125 5.796875 
L 28.40625 5.796875 
z
" id="CMSS17-49"/>
     <path d="M 17 8 
L 9 8 
L 9 0 
L 17 0 
z
" id="CMSS17-46"/>
     <path d="M 6.796875 2.6875 
C 9.59375 0.296875 13.203125 -2 19.296875 -2 
C 31.40625 -2 43 11.53125 43 33.375 
C 43 62.296875 30.5 67 23.796875 67 
C 17.09375 67 12.796875 63.984375 9.09375 59.203125 
C 4.703125 53.71875 3.90625 48.828125 3.90625 43.140625 
C 3.90625 36.359375 5.09375 32.171875 7.90625 27.390625 
C 11.703125 21.1875 15.203125 19.890625 19.09375 19.890625 
C 25 19.890625 30.90625 22.796875 34.90625 27.78125 
C 34.203125 14.1875 28.09375 4.1875 19.296875 4.1875 
C 15.703125 4.1875 12.796875 5.3125 9.90625 8.0625 
z
M 34.59375 43.34375 
C 34.703125 42.640625 34.703125 41.34375 34.703125 40.953125 
C 34.703125 32.578125 29.90625 26 22.90625 26 
C 18.296875 26 15.90625 28.390625 14.09375 31.484375 
C 11.90625 35.359375 11.796875 39.15625 11.796875 43.140625 
C 11.796875 47.03125 11.796875 51.3125 14.59375 55.609375 
C 16.703125 58.703125 19.296875 60.890625 23.796875 60.890625 
C 33 60.890625 34.5 47.4375 34.59375 43.34375 
z
" id="CMSS17-57"/>
     <path d="M 39 64.984375 
C 34.796875 66.6875 31.796875 67 29 67 
C 16 67 3.90625 53.25 3.90625 31.609375 
C 3.90625 4.1875 15.40625 -2 23.59375 -2 
C 28.09375 -2 32.59375 -0.609375 36.90625 4.390625 
C 41.296875 9.671875 43 14.0625 43 21.75 
C 43 34.109375 36.90625 45.09375 27.796875 45.09375 
C 21.203125 45.09375 15.5 41.59375 12 37.203125 
C 13 51.40625 19.59375 60.890625 29.09375 60.890625 
C 31.703125 60.890625 35.09375 60.484375 39 58.75 
z
M 12.09375 21.4375 
C 12.09375 22.234375 12.09375 22.734375 12.203125 24.234375 
C 12.203125 32.015625 16.703125 39 24 39 
C 28.703125 39 31.09375 36.5 32.90625 33.40625 
C 35 29.515625 35.09375 25.828125 35.09375 21.75 
C 35.09375 17.859375 35.09375 13.96875 32.796875 9.96875 
C 30.90625 6.890625 28.40625 4.1875 23.59375 4.1875 
C 14.09375 4.1875 12.5 17.453125 12.09375 21.4375 
z
" id="CMSS17-54"/>
    </defs>
    <g transform="translate(152.749992 142.227204)scale(0.36 -0.36)">
     <use transform="scale(0.996264)" xlink:href="#CMSS17-49"/>
     <use transform="translate(46.843624 0)scale(0.996264)" xlink:href="#CMSS17-46"/>
     <use transform="translate(72.867828 0)scale(0.996264)" xlink:href="#CMSS17-57"/>
     <use transform="translate(119.711452 0)scale(0.996264)" xlink:href="#CMSS17-54"/>
    </g>
   </g>
   <g id="text_11">
    <!-- 1.52 -->
    <defs>
     <path d="M 14.59375 59.59375 
L 39.09375 59.59375 
L 39.09375 66 
L 7.296875 66 
L 7.296875 28.59375 
L 14 28.59375 
C 15.796875 32.859375 19.5 36 24.296875 36 
C 28.796875 36 33.796875 31.9375 33.796875 20.296875 
C 33.796875 7.84375 26.703125 4.1875 21.5 4.1875 
C 15.09375 4.1875 9.203125 8.140625 6.59375 13.609375 
L 3.40625 7.9375 
C 8 0.796875 15.5 -2 21.5 -2 
C 33.09375 -2 42.203125 7.9375 42.203125 20.09375 
C 42.203125 32.546875 34.09375 42.09375 24.40625 42.09375 
C 20.90625 42.09375 17.5 40.890625 14.59375 38.5 
z
" id="CMSS17-53"/>
    </defs>
    <g transform="translate(366.555334 251.922137)scale(0.36 -0.36)">
     <use transform="scale(0.996264)" xlink:href="#CMSS17-49"/>
     <use transform="translate(46.843624 0)scale(0.996264)" xlink:href="#CMSS17-46"/>
     <use transform="translate(72.867828 0)scale(0.996264)" xlink:href="#CMSS17-53"/>
     <use transform="translate(119.711452 0)scale(0.996264)" xlink:href="#CMSS17-50"/>
    </g>
   </g>
   <g id="text_12">
    <!-- 1.5 -->
    <g transform="translate(597.224378 256.908271)scale(0.36 -0.36)">
     <use transform="scale(0.996264)" xlink:href="#CMSS17-49"/>
     <use transform="translate(46.843624 0)scale(0.996264)" xlink:href="#CMSS17-46"/>
     <use transform="translate(72.867828 0)scale(0.996264)" xlink:href="#CMSS17-53"/>
    </g>
   </g>
   <g id="text_13">
    <!-- 0.53 -->
    <defs>
     <path d="M 43.09375 32.390625 
C 43.09375 38.109375 43 48.75 38.90625 56.984375 
C 34.796875 64.890625 28.203125 67 23.5 67 
C 16.703125 67 10.90625 62.984375 7.90625 56.578125 
C 4.703125 49.859375 3.796875 42.9375 3.796875 32.390625 
C 3.796875 25.171875 4.09375 16.34375 7.703125 8.609375 
C 11.796875 0.09375 18.703125 -2 23.40625 -2 
C 29.59375 -2 35.59375 1.296875 39 8.203125 
C 42.5 15.4375 43.09375 23.359375 43.09375 32.390625 
z
M 23.40625 4.09375 
C 15.796875 4.09375 13.5 12.828125 12.796875 15.734375 
C 11.59375 20.75 11.40625 25.5625 11.40625 33.5 
C 11.40625 39.71875 11.40625 46.75 13.296875 52.265625 
C 15.59375 58.6875 19.59375 60.890625 23.40625 60.890625 
C 30.796875 60.890625 33.203125 53.46875 34 50.859375 
C 35.5 45.546875 35.5 39.3125 35.5 33.5 
C 35.5 24.15625 35.5 4.09375 23.40625 4.09375 
z
" id="CMSS17-48"/>
     <path d="M 15.703125 32.1875 
L 22.5 32.1875 
C 31.90625 32.1875 34.59375 23.9375 34.59375 18.1875 
C 34.59375 10.34375 30.203125 4.1875 23 4.1875 
C 17.40625 4.1875 9.5 7.015625 5 14.46875 
C 4.296875 10.9375 4.296875 10.734375 3.90625 8.328125 
C 8.59375 1.390625 16.203125 -2 23.203125 -2 
C 34.59375 -2 43 7.515625 43 18.09375 
C 43 26.046875 37.5 32.6875 30 35.1875 
C 36 38.484375 40.40625 44.6875 40.40625 51.890625 
C 40.40625 60.296875 32.703125 67 23.296875 67 
C 14.703125 67 8 61.6875 5.203125 55.984375 
C 5.90625 54.984375 7.703125 52.09375 8.59375 50.59375 
C 10.796875 56.484375 16.5 60.890625 23.203125 60.890625 
C 28.796875 60.890625 32.5 57.1875 32.5 51.890625 
C 32.5 46.390625 29 40.390625 23.09375 39 
C 22.703125 39 16.5 38.390625 15.703125 38.296875 
z
" id="CMSS17-51"/>
    </defs>
    <g transform="translate(256.12574 492.503071)scale(0.36 -0.36)">
     <use transform="scale(0.996264)" xlink:href="#CMSS17-48"/>
     <use transform="translate(46.843624 0)scale(0.996264)" xlink:href="#CMSS17-46"/>
     <use transform="translate(72.867828 0)scale(0.996264)" xlink:href="#CMSS17-53"/>
     <use transform="translate(119.711452 0)scale(0.996264)" xlink:href="#CMSS17-51"/>
    </g>
   </g>
   <g id="text_14">
    <!-- 0.66 -->
    <g transform="translate(469.931082 460.093204)scale(0.36 -0.36)">
     <use transform="scale(0.996264)" xlink:href="#CMSS17-48"/>
     <use transform="translate(46.843624 0)scale(0.996264)" xlink:href="#CMSS17-46"/>
     <use transform="translate(72.867828 0)scale(0.996264)" xlink:href="#CMSS17-54"/>
     <use transform="translate(119.711452 0)scale(0.996264)" xlink:href="#CMSS17-54"/>
    </g>
   </g>
   <g id="text_15">
    <!-- 0.74 -->
    <defs>
     <path d="M 21.703125 59.1875 
C 22.90625 59.1875 24.09375 59.296875 25.296875 59.296875 
L 36.796875 59.296875 
C 22.5 42.421875 14.296875 21.09375 14.296875 -1 
L 22.296875 -1 
C 22.296875 20.390625 29.296875 42.109375 43 59.484375 
L 43 66 
L 3.90625 66 
L 3.90625 59.1875 
z
" id="CMSS17-55"/>
     <path d="M 35.203125 17 
L 44.296875 17 
L 44.296875 23.09375 
L 35.203125 23.09375 
L 35.203125 66 
L 26.40625 66 
L 2.59375 23.09375 
L 2.59375 17 
L 27.296875 17 
L 27.296875 0 
L 35.203125 0 
z
M 10.296875 23.09375 
C 16.09375 33.421875 27.59375 54.28125 27.59375 61.359375 
L 27.59375 23.09375 
z
" id="CMSS17-52"/>
    </defs>
    <g transform="translate(683.736424 440.148671)scale(0.36 -0.36)">
     <use transform="scale(0.996264)" xlink:href="#CMSS17-48"/>
     <use transform="translate(46.843624 0)scale(0.996264)" xlink:href="#CMSS17-46"/>
     <use transform="translate(72.867828 0)scale(0.996264)" xlink:href="#CMSS17-55"/>
     <use transform="translate(119.711452 0)scale(0.996264)" xlink:href="#CMSS17-52"/>
    </g>
   </g>
   <g id="legend_1">
    <g id="patch_11">
     <path d="M 410.632871 125.204648 
L 766.639095 125.204648 
Q 772.639095 125.204648 772.639095 119.204648 
L 772.639095 38.577748 
Q 772.639095 32.577748 766.639095 32.577748 
L 410.632871 32.577748 
Q 404.632871 32.577748 404.632871 38.577748 
L 404.632871 119.204648 
Q 404.632871 125.204648 410.632871 125.204648 
z
" style="fill:#ffffff;opacity:0.8;stroke:#cccccc;stroke-linejoin:miter;"/>
    </g>
    <g id="patch_12">
     <path d="M 416.632871 65.577748 
L 476.632871 65.577748 
L 476.632871 44.577748 
L 416.632871 44.577748 
z
" style="fill:#699cb1;"/>
    </g>
    <g id="text_16">
     <!-- Obtained \# neighbors -->
     <defs>
      <path d="M 64 34.390625 
C 64 55.328125 50.296875 71 34.59375 71 
C 18.90625 71 5.203125 55.234375 5.203125 34.390625 
C 5.203125 13.359375 19.09375 -2 34.59375 -2 
C 50.09375 -2 64 13.359375 64 34.390625 
z
M 34.59375 4.296875 
C 23.59375 4.296875 13.59375 16.671875 13.59375 35.703125 
C 13.59375 54.21875 24.203125 64.6875 34.59375 64.6875 
C 45 64.6875 55.59375 54.21875 55.59375 35.703125 
C 55.59375 16.578125 45.5 4.296875 34.59375 4.296875 
z
" id="CMSS17-79"/>
     </defs>
     <g transform="translate(500.632871 65.577748)scale(0.3 -0.3)">
      <use transform="scale(0.996264)" xlink:href="#CMSS17-79"/>
      <use transform="translate(69.024255 0)scale(0.996264)" xlink:href="#CMSS17-98"/>
      <use transform="translate(117.229198 0)scale(0.996264)" xlink:href="#CMSS17-116"/>
      <use transform="translate(151.060765 0)scale(0.996264)" xlink:href="#CMSS17-97"/>
      <use transform="translate(195.982686 0)scale(0.996264)" xlink:href="#CMSS17-105"/>
      <use transform="translate(218.163409 0)scale(0.996264)" xlink:href="#CMSS17-110"/>
      <use transform="translate(266.368352 0)scale(0.996264)" xlink:href="#CMSS17-101"/>
      <use transform="translate(308.007174 0)scale(0.996264)" xlink:href="#CMSS17-100"/>
      <use transform="translate(387.44123 0)scale(0.996264)" xlink:href="#CMSS17-35"/>
      <use transform="translate(496.743079 0)scale(0.996264)" xlink:href="#CMSS17-110"/>
      <use transform="translate(544.948022 0)scale(0.996264)" xlink:href="#CMSS17-101"/>
      <use transform="translate(586.586844 0)scale(0.996264)" xlink:href="#CMSS17-105"/>
      <use transform="translate(608.767567 0)scale(0.996264)" xlink:href="#CMSS17-103"/>
      <use transform="translate(655.611191 0)scale(0.996264)" xlink:href="#CMSS17-104"/>
      <use transform="translate(703.816134 0)scale(0.996264)" xlink:href="#CMSS17-98"/>
      <use transform="translate(754.623516 0)scale(0.996264)" xlink:href="#CMSS17-111"/>
      <use transform="translate(798.864685 0)scale(0.996264)" xlink:href="#CMSS17-114"/>
      <use transform="translate(830.774458 0)scale(0.996264)" xlink:href="#CMSS17-115"/>
     </g>
    </g>
    <g id="patch_13">
     <path d="M 416.632871 107.391198 
L 476.632871 107.391198 
L 476.632871 86.391198 
L 416.632871 86.391198 
z
" style="fill:#f8b156;"/>
    </g>
    <g id="text_17">
     <!-- Prediction accuracy -->
     <defs>
      <path d="M 32.90625 29 
C 44.90625 29 54.703125 38.234375 54.703125 49.046875 
C 54.703125 59.65625 45.296875 69 32.296875 69 
L 8.90625 69 
L 8.90625 0 
L 17.296875 0 
L 17.296875 29 
z
M 30.09375 63.390625 
C 41.703125 63.390625 46.796875 56.21875 46.796875 49.046875 
C 46.796875 42.359375 42.09375 34.796875 30.09375 34.796875 
L 17.09375 34.796875 
L 17.09375 63.390625 
z
" id="CMSS17-80"/>
     </defs>
     <g transform="translate(500.632871 107.391198)scale(0.3 -0.3)">
      <use transform="scale(0.996264)" xlink:href="#CMSS17-80"/>
      <use transform="translate(59.735586 0)scale(0.996264)" xlink:href="#CMSS17-114"/>
      <use transform="translate(91.645359 0)scale(0.996264)" xlink:href="#CMSS17-101"/>
      <use transform="translate(133.284181 0)scale(0.996264)" xlink:href="#CMSS17-100"/>
      <use transform="translate(181.489124 0)scale(0.996264)" xlink:href="#CMSS17-105"/>
      <use transform="translate(203.669847 0)scale(0.996264)" xlink:href="#CMSS17-99"/>
      <use transform="translate(245.308669 0)scale(0.996264)" xlink:href="#CMSS17-116"/>
      <use transform="translate(279.140236 0)scale(0.996264)" xlink:href="#CMSS17-105"/>
      <use transform="translate(301.320959 0)scale(0.996264)" xlink:href="#CMSS17-111"/>
      <use transform="translate(348.164582 0)scale(0.996264)" xlink:href="#CMSS17-110"/>
      <use transform="translate(427.598638 0)scale(0.996264)" xlink:href="#CMSS17-97"/>
      <use transform="translate(472.520559 0)scale(0.996264)" xlink:href="#CMSS17-99"/>
      <use transform="translate(514.159381 0)scale(0.996264)" xlink:href="#CMSS17-99"/>
      <use transform="translate(555.798203 0)scale(0.996264)" xlink:href="#CMSS17-117"/>
      <use transform="translate(604.003146 0)scale(0.996264)" xlink:href="#CMSS17-114"/>
      <use transform="translate(635.912919 0)scale(0.996264)" xlink:href="#CMSS17-97"/>
      <use transform="translate(680.834839 0)scale(0.996264)" xlink:href="#CMSS17-99"/>
      <use transform="translate(722.473661 0)scale(0.996264)" xlink:href="#CMSS17-121"/>
     </g>
    </g>
   </g>
  </g>
 </g>
 <defs>
  <clipPath id="pbac5ed86b8">
   <rect height="560.94" width="662.796561" x="124.842534" y="17.577748"/>
  </clipPath>
 </defs>
</svg>
